<svg width="20" height="20" viewBox="0 0 20 20" fill="none" xmlns="http://www.w3.org/2000/svg">
<mask id="mask0_502_12959" style="mask-type:alpha" maskUnits="userSpaceOnUse" x="0" y="0" width="20" height="20">
<path d="M0 0H20V20H0V0Z" fill="white"/>
</mask>
<g mask="url(#mask0_502_12959)">
<path d="M10.0013 7.50002C9.33826 7.50002 8.70238 7.76341 8.23353 8.23225C7.76469 8.70109 7.5013 9.33698 7.5013 10C7.5013 10.6631 7.76469 11.2989 8.23353 11.7678C8.70238 12.2366 9.33826 12.5 10.0013 12.5C10.6643 12.5 11.3002 12.2366 11.7691 11.7678C12.2379 11.2989 12.5013 10.6631 12.5013 10C12.5013 9.33698 12.2379 8.70109 11.7691 8.23225C11.3002 7.76341 10.6643 7.50002 10.0013 7.50002ZM10.0013 5.83335C11.1064 5.83335 12.1662 6.27234 12.9476 7.05374C13.729 7.83514 14.168 8.89495 14.168 10C14.168 11.1051 13.729 12.1649 12.9476 12.9463C12.1662 13.7277 11.1064 14.1667 10.0013 14.1667C8.89623 14.1667 7.83643 13.7277 7.05502 12.9463C6.27362 12.1649 5.83464 11.1051 5.83464 10C5.83464 8.89495 6.27362 7.83514 7.05502 7.05374C7.83643 6.27234 8.89623 5.83335 10.0013 5.83335ZM15.418 5.62502C15.418 5.90129 15.3082 6.16624 15.1129 6.36159C14.9175 6.55694 14.6526 6.66669 14.3763 6.66669C14.1 6.66669 13.8351 6.55694 13.6397 6.36159C13.4444 6.16624 13.3346 5.90129 13.3346 5.62502C13.3346 5.34875 13.4444 5.0838 13.6397 4.88845C13.8351 4.6931 14.1 4.58335 14.3763 4.58335C14.6526 4.58335 14.9175 4.6931 15.1129 4.88845C15.3082 5.0838 15.418 5.34875 15.418 5.62502ZM10.0013 3.33335C7.93964 3.33335 7.60297 3.33919 6.6438 3.38169C5.99047 3.41252 5.55214 3.50002 5.14547 3.65835C4.7838 3.79835 4.52297 3.96585 4.24547 4.24419C3.98464 4.49619 3.7841 4.80384 3.6588 5.14419C3.50047 5.55252 3.41297 5.99002 3.38297 6.64252C3.33964 7.56252 3.33464 7.88419 3.33464 10C3.33464 12.0617 3.34047 12.3984 3.38297 13.3575C3.4138 14.01 3.5013 14.4492 3.6588 14.855C3.80047 15.2175 3.96714 15.4784 4.2438 15.755C4.52464 16.035 4.78547 16.2025 5.1438 16.3409C5.55547 16.5 5.9938 16.5884 6.6438 16.6184C7.5638 16.6617 7.88547 16.6667 10.0013 16.6667C12.063 16.6667 12.3996 16.6609 13.3588 16.6184C14.0105 16.5875 14.4496 16.5 14.8563 16.3425C15.2171 16.2017 15.4796 16.0342 15.7563 15.7575C16.0371 15.4767 16.2046 15.2159 16.343 14.8575C16.5013 14.4467 16.5896 14.0075 16.6196 13.3575C16.663 12.4375 16.668 12.1159 16.668 10C16.668 7.93835 16.6621 7.60169 16.6196 6.64252C16.5888 5.99085 16.5013 5.55085 16.343 5.14419C16.2174 4.80419 16.0172 4.49665 15.7571 4.24419C15.5052 3.98323 15.1976 3.78266 14.8571 3.65752C14.4488 3.49919 14.0105 3.41169 13.3588 3.38169C12.4388 3.33835 12.1171 3.33335 10.0013 3.33335ZM10.0013 1.66669C12.2655 1.66669 12.548 1.67502 13.4363 1.71669C14.3238 1.75835 14.928 1.89752 15.4596 2.10419C16.0096 2.31585 16.473 2.60252 16.9363 3.06502C17.36 3.4816 17.6879 3.98551 17.8971 4.54169C18.103 5.07252 18.243 5.67752 18.2846 6.56502C18.3238 7.45335 18.3346 7.73585 18.3346 10C18.3346 12.2642 18.3263 12.5467 18.2846 13.435C18.243 14.3225 18.103 14.9267 17.8971 15.4584C17.6885 16.0148 17.3606 16.5189 16.9363 16.935C16.5196 17.3586 16.0157 17.6865 15.4596 17.8959C14.9288 18.1017 14.3238 18.2417 13.4363 18.2834C12.548 18.3225 12.2655 18.3334 10.0013 18.3334C7.73714 18.3334 7.45464 18.325 6.5663 18.2834C5.6788 18.2417 5.07464 18.1017 4.54297 17.8959C3.98657 17.6871 3.48257 17.3591 3.0663 16.935C2.64247 16.5185 2.31458 16.0146 2.10547 15.4584C1.8988 14.9275 1.75964 14.3225 1.71797 13.435C1.6788 12.5467 1.66797 12.2642 1.66797 10C1.66797 7.73585 1.6763 7.45335 1.71797 6.56502C1.75964 5.67669 1.8988 5.07335 2.10547 4.54169C2.314 3.98517 2.64197 3.48112 3.0663 3.06502C3.48269 2.64105 3.98666 2.31313 4.54297 2.10419C5.07464 1.89752 5.67797 1.75835 6.5663 1.71669C7.45464 1.67752 7.73714 1.66669 10.0013 1.66669Z" fill="#99A9AD"/>
</g>
</svg>
