<svg width="20" height="20" viewBox="0 0 20 20" fill="none" xmlns="http://www.w3.org/2000/svg">
<mask id="mask0_502_12964" style="mask-type:alpha" maskUnits="userSpaceOnUse" x="0" y="0" width="20" height="20">
<path d="M0 0H20V20H0V0Z" fill="white"/>
</mask>
<g mask="url(#mask0_502_12964)">
<path d="M5.78255 4.16665C5.78233 4.60867 5.60652 5.03251 5.29381 5.34491C4.98109 5.65732 4.55708 5.8327 4.11505 5.83248C3.67302 5.83226 3.24919 5.65645 2.93678 5.34373C2.62438 5.03102 2.449 4.60701 2.44922 4.16498C2.44944 3.72295 2.62525 3.29912 2.93796 2.98671C3.25068 2.67431 3.67469 2.49892 4.11672 2.49915C4.55875 2.49937 4.98258 2.67517 5.29499 2.98789C5.60739 3.30061 5.78277 3.72462 5.78255 4.16665ZM5.83255 7.06665H2.49922V17.5H5.83255V7.06665ZM11.0992 7.06665H7.78255V17.5H11.0659V12.025C11.0659 8.97498 15.0409 8.69165 15.0409 12.025V17.5H18.3326V10.8916C18.3326 5.74998 12.4492 5.94165 11.0659 8.46665L11.0992 7.06665Z" fill="#99A9AD"/>
</g>
</svg>
