<svg width="20" height="20" viewBox="0 0 20 20" fill="none" xmlns="http://www.w3.org/2000/svg">
<mask id="mask0_502_12954" style="mask-type:alpha" maskUnits="userSpaceOnUse" x="0" y="0" width="20" height="20">
<path d="M0 0H20V20H0V0Z" fill="white"/>
</mask>
<g mask="url(#mask0_502_12954)">
<path d="M18.4702 4.71333C17.834 4.99474 17.1593 5.17956 16.4685 5.26167C17.1967 4.82619 17.7416 4.14084 18.0019 3.33333C17.3185 3.74 16.5694 4.025 15.7885 4.17917C15.264 3.61798 14.5688 3.2458 13.811 3.12049C13.0532 2.99517 12.2752 3.12374 11.5979 3.48621C10.9207 3.84868 10.3822 4.42474 10.0661 5.12483C9.75008 5.82492 9.67417 6.60982 9.85021 7.3575C8.46447 7.28804 7.10882 6.92794 5.87128 6.30055C4.63374 5.67317 3.54198 4.79254 2.66688 3.71583C2.35712 4.24788 2.19434 4.85269 2.19521 5.46833C2.19521 6.67667 2.81021 7.74417 3.74521 8.36917C3.19188 8.35175 2.65074 8.20232 2.16688 7.93333V7.97667C2.16704 8.78142 2.44552 9.56135 2.95508 10.1842C3.46465 10.8071 4.17394 11.2346 4.96271 11.3942C4.44905 11.5334 3.91046 11.5539 3.38771 11.4542C3.6101 12.1469 4.04355 12.7527 4.62737 13.1868C5.21119 13.6209 5.91615 13.8615 6.64354 13.875C5.92061 14.4428 5.09286 14.8625 4.20761 15.1101C3.32236 15.3578 2.39698 15.4285 1.48438 15.3183C3.07746 16.3429 4.93196 16.8868 6.82604 16.885C13.2369 16.885 16.7427 11.5742 16.7427 6.96833C16.7427 6.81833 16.7385 6.66667 16.7319 6.51833C17.4143 6.02514 18.0032 5.41418 18.471 4.71417L18.4702 4.71333Z" fill="#99A9AD"/>
</g>
</svg>
