<svg width="770" height="721" viewBox="0 0 770 721" fill="none" xmlns="http://www.w3.org/2000/svg">
<path d="M110.903 201.509L114.149 208.061L121.404 209.123L116.153 214.232L117.396 221.445L110.903 218.039L104.43 221.445L105.672 214.232L100.422 209.123L107.676 208.061L110.903 201.509Z" fill="#99A9AD"/>
<path d="M759.496 510.535L762.743 517.107L769.997 518.169L764.747 523.258L765.989 530.491L759.496 527.085L753.024 530.491L754.266 523.258L749.016 518.169L756.27 517.107L759.496 510.535Z" fill="#99A9AD"/>
<path d="M631.043 701.064L634.29 707.616L641.524 708.677L636.274 713.787L637.516 721L631.043 717.594L624.57 721L625.793 713.787L620.562 708.677L627.797 707.616L631.043 701.064Z" fill="#99A9AD"/>
<path d="M337.139 85.0958L338.342 87.5403L341.047 87.941C341.198 87.9608 341.34 88.0231 341.457 88.1207C341.574 88.2184 341.661 88.3472 341.707 88.4923C341.753 88.6373 341.757 88.7925 341.718 88.9397C341.68 89.087 341.6 89.2201 341.488 89.3236L339.484 91.2271L339.945 93.912C339.969 94.0614 339.951 94.2145 339.893 94.3543C339.835 94.4941 339.74 94.6153 339.617 94.7044C339.495 94.7935 339.351 94.8471 339.2 94.8593C339.049 94.8715 338.898 94.8418 338.763 94.7736L336.358 93.4912L333.953 94.7736C333.818 94.8418 333.667 94.8715 333.516 94.8593C333.365 94.8471 333.221 94.7935 333.098 94.7044C332.976 94.6153 332.881 94.4941 332.823 94.3543C332.765 94.2145 332.747 94.0614 332.771 93.912L333.212 91.2271L331.208 89.3236C331.095 89.2188 331.016 89.084 330.978 88.9353C330.94 88.7865 330.946 88.63 330.994 88.4844C331.043 88.3388 331.132 88.2102 331.252 88.1139C331.371 88.0175 331.516 87.9576 331.668 87.941L334.354 87.5403L335.556 85.0958C335.604 84.9229 335.708 84.7705 335.851 84.6619C335.994 84.5533 336.168 84.4945 336.348 84.4945C336.527 84.4945 336.702 84.5533 336.845 84.6619C336.988 84.7705 337.091 84.9229 337.139 85.0958Z" fill="#99A9AD"/>
<path d="M6.16303 669.866L7.36543 672.291L10.0508 672.692C10.2032 672.713 10.3467 672.776 10.4649 672.875C10.5831 672.973 10.6712 673.103 10.7192 673.249C10.7673 673.395 10.7733 673.552 10.7366 673.701C10.6999 673.851 10.622 673.987 10.5117 674.094L8.5077 675.978L8.96861 678.663C8.99228 678.812 8.97422 678.965 8.91641 679.105C8.85861 679.245 8.76331 679.366 8.64102 679.455C8.51874 679.544 8.37421 679.598 8.22338 679.61C8.07256 679.622 7.92129 679.592 7.78626 679.524L5.38148 678.262L2.9767 679.524C2.84167 679.592 2.6904 679.622 2.53958 679.61C2.38875 679.598 2.24423 679.544 2.12194 679.455C1.99965 679.366 1.90435 679.245 1.84654 679.105C1.78874 678.965 1.77068 678.812 1.79435 678.663L2.25527 675.978L0.251285 674.094C0.141362 673.988 0.0631503 673.854 0.0254414 673.706C-0.0122676 673.558 -0.00798438 673.402 0.0378027 673.257C0.0835897 673.111 0.169069 672.981 0.284654 672.881C0.400239 672.781 0.541353 672.716 0.692157 672.692L3.3775 672.291L4.59993 669.866C4.65348 669.701 4.75796 669.557 4.89836 669.455C5.03877 669.353 5.20789 669.298 5.38148 669.298C5.55506 669.298 5.72419 669.353 5.8646 669.455C6.00501 669.557 6.10948 669.701 6.16303 669.866Z" fill="#99A9AD"/>
<path d="M60.2117 59.3487L61.414 61.7932L64.1194 62.1739C64.2702 62.1979 64.4113 62.2636 64.5269 62.3633C64.6425 62.4631 64.728 62.5932 64.7738 62.7388C64.8196 62.8845 64.8238 63.04 64.7861 63.188C64.7484 63.3359 64.6702 63.4705 64.5603 63.5765L62.5563 65.5801L63.0172 68.245C63.0493 68.3963 63.0368 68.5536 62.9815 68.6979C62.9261 68.8423 62.8301 68.9676 62.7051 69.0587C62.5802 69.1497 62.4315 69.2027 62.2771 69.2112C62.1227 69.2197 61.9691 69.1834 61.8349 69.1066L59.4301 67.8443L57.0253 69.1066C56.8911 69.1834 56.7375 69.2197 56.5831 69.2112C56.4287 69.2027 56.2801 69.1497 56.1551 69.0587C56.0301 68.9676 55.9341 68.8423 55.8788 68.6979C55.8234 68.5536 55.811 68.3963 55.843 68.245L56.2839 65.5801L54.2799 63.5765C54.1696 63.4692 54.0916 63.333 54.055 63.1836C54.0183 63.0342 54.0243 62.8774 54.0723 62.7313C54.1203 62.5851 54.2085 62.4554 54.3267 62.3568C54.4448 62.2583 54.5883 62.1949 54.7408 62.1739L57.4261 61.7932L58.7087 59.3487C58.773 59.2031 58.8783 59.0793 59.0118 58.9925C59.1452 58.9056 59.3009 58.8593 59.4602 58.8593C59.6194 58.8593 59.7752 58.9056 59.9086 58.9925C60.042 59.0793 60.1473 59.2031 60.2117 59.3487Z" fill="#99A9AD"/>
<path d="M56.9555 542.273C56.9595 542.801 56.8065 543.318 56.5161 543.759C56.2257 544.2 55.8108 544.545 55.3241 544.75C54.8375 544.955 54.301 545.01 53.7826 544.91C53.2643 544.809 52.7875 544.557 52.4128 544.185C52.038 543.813 51.7822 543.338 51.6777 542.821C51.5732 542.303 51.6248 541.766 51.8259 541.278C52.0271 540.79 52.3687 540.372 52.8074 540.079C53.2461 539.785 53.7622 539.628 54.2902 539.628C54.9936 539.628 55.6685 539.906 56.1678 540.402C56.6671 540.897 56.9502 541.57 56.9555 542.273Z" fill="#99A9AD"/>
<path d="M436.799 208.803C436.803 209.331 436.65 209.848 436.36 210.289C436.069 210.73 435.655 211.075 435.168 211.279C434.681 211.484 434.145 211.54 433.626 211.439C433.108 211.339 432.631 211.087 432.256 210.715C431.882 210.343 431.626 209.868 431.521 209.35C431.417 208.833 431.469 208.296 431.67 207.808C431.871 207.319 432.212 206.902 432.651 206.608C433.09 206.314 433.606 206.158 434.134 206.158C434.483 206.155 434.829 206.221 435.152 206.353C435.476 206.485 435.77 206.679 436.017 206.925C436.265 207.171 436.462 207.464 436.596 207.786C436.73 208.108 436.799 208.454 436.799 208.803Z" fill="#99A9AD"/>
<path d="M298.604 61.5532C298.604 62.0803 298.448 62.5956 298.155 63.0339C297.862 63.4722 297.446 63.8139 296.959 64.0156C296.472 64.2173 295.936 64.2701 295.419 64.1673C294.902 64.0644 294.427 63.8106 294.054 63.4378C293.681 63.0651 293.427 62.5902 293.325 62.0731C293.222 61.5561 293.275 61.0202 293.476 60.5332C293.678 60.0462 294.02 59.6299 294.458 59.3371C294.896 59.0442 295.412 58.8879 295.939 58.8879C296.644 58.8931 297.319 59.1756 297.818 59.6743C298.316 60.173 298.599 60.8479 298.604 61.5532Z" fill="#99A9AD"/>
<path d="M302.821 711.029C310.738 709.161 315.642 701.229 313.773 693.313C311.904 685.397 303.971 680.495 296.054 682.363C288.137 684.231 283.234 692.163 285.102 700.079C286.971 707.995 294.904 712.898 302.821 711.029Z" fill="#EEEFF3"/>
<path d="M294.372 688.08C291.355 688.074 288.414 689.028 285.975 690.805C284.73 693.661 284.424 696.84 285.102 699.881C285.78 702.923 287.407 705.67 289.748 707.728C292.089 709.785 295.023 711.046 298.126 711.328C301.23 711.61 304.344 710.9 307.017 709.299C308.201 707.11 308.796 704.651 308.743 702.164C308.691 699.676 307.993 697.244 306.718 695.107C305.443 692.97 303.635 691.201 301.471 689.973C299.307 688.744 296.861 688.099 294.372 688.1V688.08Z" fill="#99A9AD"/>
<path d="M180.31 440.727H58.3672V385.686L180.31 240.741H238.666V388.812H268.906V440.727H238.666V485.769H180.31V440.727ZM180.31 388.812V312.993L115.861 388.812H180.31Z" fill="#FFDE9F"/>
<path d="M289.765 364.327C289.765 318.523 298.008 286.465 314.494 268.151C330.98 249.837 356.104 240.687 389.864 240.701C406.07 240.701 419.383 242.704 429.804 246.712C439.27 250.122 447.938 255.434 455.274 262.32C461.458 268.223 466.696 275.042 470.805 282.537C474.871 290.363 477.935 298.671 479.923 307.263C484.454 325.618 486.715 344.459 486.657 363.365C486.657 407.072 479.262 439.057 464.473 459.321C449.683 479.585 424.213 489.723 388.061 489.737C367.78 489.737 351.394 486.504 338.903 480.039C326.311 473.469 315.705 463.653 308.182 451.607C302.37 442.737 297.848 430.602 294.615 415.2C291.258 398.454 289.633 381.406 289.765 364.327ZM356.177 364.487C356.177 395.21 358.883 416.162 364.293 427.342C369.704 438.523 377.566 444.14 387.88 444.193C391.153 444.23 394.401 443.617 397.435 442.389C400.469 441.161 403.229 439.343 405.555 437.04C410.552 432.271 414.226 424.738 416.577 414.439C418.929 404.14 420.104 388.111 420.104 366.351C420.104 334.372 417.392 312.873 411.968 301.853C406.544 290.833 398.408 285.329 387.56 285.342C376.498 285.342 368.482 290.959 363.512 302.193C358.542 313.427 356.097 334.192 356.177 364.487Z" fill="#FFDE9F"/>
<path d="M629.317 440.727H507.375V385.686L629.317 240.741H687.673V388.812H718.014V440.727H687.673V485.769H629.317V440.727ZM629.317 388.812V312.993L564.889 388.812H629.317Z" fill="#FFDE9F"/>
<g opacity="0.3">
<path d="M287.159 156.166C287.159 156.908 286.939 157.633 286.526 158.25C286.113 158.866 285.527 159.346 284.841 159.629C284.155 159.912 283.4 159.985 282.673 159.839C281.946 159.693 281.278 159.334 280.755 158.808C280.231 158.282 279.876 157.613 279.734 156.885C279.591 156.156 279.668 155.402 279.955 154.718C280.242 154.034 280.725 153.45 281.344 153.041C281.963 152.631 282.69 152.415 283.432 152.419C283.923 152.419 284.409 152.516 284.863 152.705C285.316 152.893 285.728 153.169 286.074 153.518C286.421 153.866 286.695 154.279 286.881 154.734C287.067 155.188 287.162 155.675 287.159 156.166Z" fill="#FFDE9F"/>
<path d="M30.5906 300.09C32.0515 300.09 33.2358 298.906 33.2358 297.445C33.2358 295.984 32.0515 294.8 30.5906 294.8C29.1296 294.8 27.9453 295.984 27.9453 297.445C27.9453 298.906 29.1296 300.09 30.5906 300.09Z" fill="#FFDE9F"/>
<path d="M467.616 686.337C469.707 686.337 471.403 684.641 471.403 682.55C471.403 680.458 469.707 678.763 467.616 678.763C465.524 678.763 463.828 680.458 463.828 682.55C463.828 684.641 465.524 686.337 467.616 686.337Z" fill="#FFDE9F"/>
<path d="M558.7 532.255C560.161 532.255 561.345 531.071 561.345 529.61C561.345 528.149 560.161 526.965 558.7 526.965C557.239 526.965 556.055 528.149 556.055 529.61C556.055 531.071 557.239 532.255 558.7 532.255Z" fill="#FFDE9F"/>
<path d="M734.392 55.9829C734.392 56.5061 734.237 57.0175 733.946 57.4525C733.656 57.8875 733.242 58.2266 732.759 58.4268C732.276 58.627 731.744 58.6794 731.231 58.5773C730.718 58.4753 730.246 58.2233 729.876 57.8534C729.506 57.4834 729.254 57.0121 729.152 56.499C729.05 55.9858 729.103 55.454 729.303 54.9706C729.503 54.4872 729.842 54.0741 730.277 53.7834C730.712 53.4928 731.224 53.3376 731.747 53.3376C732.448 53.3376 733.121 53.6163 733.617 54.1124C734.113 54.6085 734.392 55.2813 734.392 55.9829Z" fill="#FFDE9F"/>
<path d="M230.548 2.64526C230.548 3.16844 230.393 3.67987 230.103 4.11488C229.812 4.54989 229.399 4.88894 228.915 5.08916C228.432 5.28937 227.9 5.34176 227.387 5.23969C226.874 5.13763 226.403 4.88568 226.033 4.51574C225.663 4.14579 225.411 3.67446 225.309 3.16133C225.207 2.6482 225.259 2.11632 225.459 1.63296C225.659 1.1496 225.998 0.736467 226.433 0.445802C226.868 0.155137 227.38 0 227.903 0C228.603 0.00524326 229.273 0.285624 229.768 0.780574C230.263 1.27552 230.543 1.94531 230.548 2.64526Z" fill="#FFDE9F"/>
<path d="M440.864 141.42C442.325 141.42 443.509 140.235 443.509 138.774C443.509 137.314 442.325 136.129 440.864 136.129C439.403 136.129 438.219 137.314 438.219 138.774C438.219 140.235 439.403 141.42 440.864 141.42Z" fill="#FFDE9F"/>
</g>
<path d="M167.376 141.439C191.625 141.439 211.283 121.784 211.283 97.5386C211.283 73.2931 191.625 53.6382 167.376 53.6382C143.127 53.6382 123.469 73.2931 123.469 97.5386C123.469 121.784 143.127 141.439 167.376 141.439Z" fill="#FFDE9F"/>
<path opacity="0.7" d="M167.376 141.439C191.625 141.439 211.283 121.784 211.283 97.5386C211.283 73.2931 191.625 53.6382 167.376 53.6382C143.127 53.6382 123.469 73.2931 123.469 97.5386C123.469 121.784 143.127 141.439 167.376 141.439Z" fill="white"/>
<path opacity="0.2" d="M152.253 64.4179C146.273 64.3996 140.353 65.6066 134.858 67.9644C128.105 75.3858 124.096 84.8954 123.5 94.9112C122.903 104.927 125.754 114.845 131.579 123.015C137.404 131.186 145.851 137.116 155.515 139.819C165.179 142.522 175.478 141.835 184.697 137.872C190.413 131.574 194.177 123.752 195.532 115.356C196.888 106.96 195.776 98.3509 192.331 90.5745C188.887 82.7981 183.259 76.1889 176.13 71.5492C169.001 66.9096 160.679 64.4392 152.172 64.438L152.253 64.4179Z" fill="#FFDE9F"/>
<path opacity="0.2" d="M147.883 76.0192C147.883 76.8117 147.648 77.5865 147.208 78.2455C146.767 78.9045 146.141 79.4181 145.409 79.7215C144.677 80.0248 143.871 80.1041 143.093 79.9495C142.316 79.7949 141.602 79.4132 141.041 78.8528C140.481 78.2923 140.099 77.5783 139.944 76.8009C139.79 76.0236 139.869 75.2179 140.172 74.4856C140.476 73.7534 140.989 73.1275 141.648 72.6872C142.308 72.2468 143.082 72.0118 143.875 72.0118C144.938 72.0118 145.958 72.434 146.709 73.1855C147.461 73.9371 147.883 74.9564 147.883 76.0192Z" fill="#FFDE9F"/>
<path opacity="0.2" d="M195.102 72.0119C195.102 72.8044 194.867 73.5792 194.426 74.2382C193.986 74.8972 193.36 75.4108 192.628 75.7141C191.895 76.0174 191.089 76.0968 190.312 75.9422C189.535 75.7876 188.82 75.4059 188.26 74.8455C187.699 74.285 187.318 73.571 187.163 72.7936C187.008 72.0163 187.088 71.2105 187.391 70.4783C187.694 69.7461 188.208 69.1202 188.867 68.6799C189.526 68.2395 190.301 68.0045 191.094 68.0045C192.157 68.0045 193.176 68.4267 193.928 69.1782C194.68 69.9298 195.102 70.949 195.102 72.0119Z" fill="#FFDE9F"/>
<path opacity="0.2" d="M187.084 100.624C187.084 101.924 186.698 103.195 185.976 104.275C185.254 105.356 184.227 106.199 183.026 106.696C181.825 107.193 180.503 107.324 179.228 107.07C177.953 106.816 176.782 106.19 175.863 105.271C174.943 104.352 174.317 103.181 174.064 101.906C173.81 100.631 173.94 99.3101 174.438 98.1092C174.935 96.9083 175.778 95.8819 176.859 95.1598C177.94 94.4376 179.211 94.0522 180.511 94.0522C182.254 94.0522 183.926 94.7446 185.158 95.9771C186.391 97.2096 187.084 98.8812 187.084 100.624Z" fill="#FFDE9F"/>
<path opacity="0.2" d="M166.196 119.359C166.196 121.094 165.681 122.791 164.716 124.234C163.752 125.677 162.381 126.802 160.777 127.467C159.173 128.131 157.408 128.305 155.706 127.966C154.003 127.627 152.439 126.792 151.211 125.564C149.984 124.337 149.148 122.773 148.809 121.071C148.471 119.368 148.644 117.604 149.309 116C149.973 114.396 151.098 113.026 152.542 112.062C153.985 111.097 155.682 110.582 157.418 110.582C159.746 110.582 161.979 111.507 163.625 113.153C165.271 114.799 166.196 117.031 166.196 119.359Z" fill="#FFDE9F"/>
<path d="M687.755 627.08C692.644 606.369 679.815 585.617 659.101 580.729C638.387 575.841 617.632 588.668 612.743 609.379C607.854 630.089 620.683 650.841 641.397 655.73C662.111 660.618 682.866 647.791 687.755 627.08Z" fill="#FFDE9F"/>
<path opacity="0.3" d="M687.755 627.08C692.644 606.369 679.815 585.617 659.101 580.729C638.387 575.841 617.632 588.668 612.743 609.379C607.854 630.089 620.683 650.841 641.397 655.73C662.111 660.618 682.866 647.791 687.755 627.08Z" fill="white"/>
<path opacity="0.4" d="M674.591 588.397C666.048 585.819 656.875 586.287 648.639 589.72C640.403 593.154 633.615 599.34 629.434 607.223C625.253 615.105 623.94 624.194 625.717 632.937C627.495 641.68 632.254 649.535 639.181 655.159C642.774 656.25 646.508 656.804 650.263 656.802C658.219 656.801 665.979 654.337 672.478 649.75C678.978 645.162 683.898 638.676 686.564 631.181C689.229 623.687 689.509 615.551 687.366 607.89C685.222 600.23 680.76 593.421 674.591 588.397Z" fill="#FFDE9F"/>
<path d="M613.47 629.793C572.329 649.148 603.01 664.076 660.985 643.238C714.672 623.942 735.132 599.618 687.037 607.172C689.622 617.29 622.388 643.478 613.47 629.793Z" fill="#FFDE9F"/>
<path opacity="0.2" d="M674.129 240.741C620.242 277.147 550.484 325.236 531.225 440.727H527.117C545.854 326.518 613.068 277.288 666.975 240.741H674.129Z" fill="#0B1315"/>
<path d="M395.373 602.283C361.305 602.283 327.618 586.915 311.206 561.829C301.086 546.32 289.322 513.841 324.352 470.501L327.458 473.026C302.689 503.682 298.12 534.439 314.573 559.645C334.612 590.301 381.886 605.729 422.247 594.749C463.589 583.508 488.679 547.563 491.103 496.128C499.38 320.186 592.866 265.987 661.121 226.415C703.546 201.83 734.187 184.077 727.453 146.588C726.511 141.399 724.447 137.812 721.101 135.608C712.383 129.858 695.349 133.845 675.63 138.434C636.933 147.45 583.948 159.793 552.385 106.114L555.852 104.111C585.912 155.264 635.15 143.783 674.728 134.566C695.349 129.778 713.145 125.63 723.305 132.302C727.614 135.127 730.259 139.596 731.321 145.927C738.555 186.161 705.269 205.476 663.085 229.921C595.611 269.033 503.227 322.591 495.051 496.409C492.526 549.706 466.354 586.995 423.228 598.716C414.143 601.135 404.775 602.335 395.373 602.283Z" fill="#FFDE9F"/>
<path opacity="0.2" d="M395.373 602.283C361.305 602.283 327.618 586.915 311.206 561.829C301.086 546.32 289.322 513.841 324.352 470.501L327.458 473.026C302.689 503.682 298.12 534.439 314.573 559.645C334.612 590.301 381.886 605.729 422.247 594.749C463.589 583.508 488.679 547.563 491.103 496.128C499.38 320.186 592.866 265.987 661.121 226.415C703.546 201.83 734.187 184.077 727.453 146.588C726.511 141.399 724.447 137.812 721.101 135.608C712.383 129.858 695.349 133.845 675.63 138.434C636.933 147.45 583.948 159.793 552.385 106.114L555.852 104.111C585.912 155.264 635.15 143.783 674.728 134.566C695.349 129.778 713.145 125.63 723.305 132.302C727.614 135.127 730.259 139.596 731.321 145.927C738.555 186.161 705.269 205.476 663.085 229.921C595.611 269.033 503.227 322.591 495.051 496.409C492.526 549.706 466.354 586.995 423.228 598.716C414.143 601.135 404.775 602.335 395.373 602.283Z" fill="white"/>
<path d="M511.125 58.7476C520.359 58.8009 529.532 60.2395 538.339 63.0154C538.339 63.0154 560.383 100.624 562.988 109.24C562.066 117.736 547.738 131.661 547.738 131.661L511.125 58.7476Z" fill="#FFDE9F"/>
<path opacity="0.3" d="M511.125 58.7476C520.359 58.8009 529.532 60.2395 538.339 63.0154C538.339 63.0154 560.383 100.624 562.988 109.24C562.066 117.736 547.738 131.661 547.738 131.661L511.125 58.7476Z" fill="white"/>
<path d="M576.411 241.342C567.922 230.964 560.18 219.996 553.245 208.522C551.561 205.623 549.965 202.671 548.455 199.666C547.593 197.962 546.772 196.259 545.97 194.536C544.918 192.859 544.102 191.046 543.545 189.146C541.14 163.76 549.838 145.066 541.541 124.688L508.516 137.592C508.516 137.592 511.321 173.898 517.734 195.698C521.742 209.183 530.72 220.844 539.397 231.644C542.102 235.01 544.708 238.477 547.413 241.863C550.118 245.249 552.844 247.994 555.429 251.18C559.337 256.009 560.619 260.637 557.673 266.328L557.172 267.229C556.331 268.712 560.258 270.395 562.743 267.229C566.751 262.06 566.19 262.38 569.677 257.972C571.801 255.307 574.226 252.402 576.33 249.958C577.345 248.756 577.909 247.237 577.924 245.664C577.938 244.091 577.403 242.562 576.411 241.342Z" fill="#FFDE9F"/>
<path opacity="0.7" d="M576.411 241.342C567.922 230.964 560.18 219.996 553.245 208.522C551.561 205.623 549.965 202.671 548.455 199.666C547.593 197.962 546.772 196.259 545.97 194.536C544.918 192.859 544.102 191.046 543.545 189.146C541.14 163.76 549.838 145.066 541.541 124.688L508.516 137.592C508.516 137.592 511.321 173.898 517.734 195.698C521.742 209.183 530.72 220.844 539.397 231.644C542.102 235.01 544.708 238.477 547.413 241.863C550.118 245.249 552.844 247.994 555.429 251.18C559.337 256.009 560.619 260.637 557.673 266.328L557.172 267.229C556.331 268.712 560.258 270.395 562.743 267.229C566.751 262.06 566.19 262.38 569.677 257.972C571.801 255.307 574.226 252.402 576.33 249.958C577.345 248.756 577.909 247.237 577.924 245.664C577.938 244.091 577.403 242.562 576.411 241.342Z" fill="white"/>
<path opacity="0.3" d="M568.339 230.903C563.098 236.52 557.281 241.57 550.984 245.97C551.846 246.932 552.688 247.974 553.549 248.896C559.854 244.637 565.58 239.579 570.583 233.848L568.339 230.903Z" fill="#FFDE9F"/>
<path opacity="0.3" d="M576.411 241.342L576.171 241.061C574.629 242.83 573.732 245.069 573.626 247.413C573.497 249.021 573.758 250.636 574.387 252.122L576.291 249.858C577.286 248.668 577.841 247.172 577.863 245.621C577.885 244.07 577.372 242.559 576.411 241.342Z" fill="#FFDE9F"/>
<path d="M503.264 82.7917C499.683 88.1517 495.389 92.9985 490.498 97.198C487.786 99.535 484.814 101.552 481.641 103.209C479.973 104.063 478.245 104.793 476.47 105.393L475.108 105.834L474.667 105.954L473.725 106.215C473.145 106.352 472.555 106.446 471.961 106.495C470.271 106.624 468.57 106.469 466.931 106.034C464.864 105.448 462.884 104.592 461.04 103.49C459.556 102.622 458.118 101.679 456.731 100.664C454.225 98.801 451.83 96.794 449.557 94.6534C445.173 90.5007 441.151 85.9828 437.533 81.1487C436.836 80.2069 436.49 79.0515 436.554 77.8819C436.619 76.7123 437.089 75.6018 437.885 74.7421C438.681 73.8824 439.752 73.3273 440.913 73.1727C442.074 73.0182 443.253 73.2737 444.246 73.8954H444.407C449.136 76.9009 453.905 80.0667 458.555 82.8919C460.919 84.2744 463.204 85.677 465.468 86.7589C466.502 87.3001 467.566 87.7817 468.655 88.2016C469.333 88.5009 470.059 88.6773 470.799 88.7225C470.919 88.7225 470.799 88.5823 470.058 88.6023C469.824 88.5883 469.59 88.5883 469.356 88.6023L468.915 88.7025L469.577 88.3619C470.467 87.8828 471.33 87.3544 472.162 86.779C473.955 85.5149 475.631 84.0933 477.172 82.5312C480.673 78.8628 483.952 74.9889 486.991 70.9299C488.657 69.0671 490.958 67.8936 493.444 67.6398C495.93 67.386 498.421 68.0701 500.429 69.558C502.436 71.0458 503.815 73.23 504.295 75.682C504.775 78.1341 504.321 80.6769 503.023 82.8117L503.264 82.7917Z" fill="#FFDE9F"/>
<path opacity="0.7" d="M503.264 82.7917C499.683 88.1517 495.389 92.9985 490.498 97.198C487.786 99.535 484.814 101.552 481.641 103.209C479.973 104.063 478.245 104.793 476.47 105.393L475.108 105.834L474.667 105.954L473.725 106.215C473.145 106.352 472.555 106.446 471.961 106.495C470.271 106.624 468.57 106.469 466.931 106.034C464.864 105.448 462.884 104.592 461.04 103.49C459.556 102.622 458.118 101.679 456.731 100.664C454.225 98.801 451.83 96.794 449.557 94.6534C445.173 90.5007 441.151 85.9828 437.533 81.1487C436.836 80.2069 436.49 79.0515 436.554 77.8819C436.619 76.7123 437.089 75.6018 437.885 74.7421C438.681 73.8824 439.752 73.3273 440.913 73.1727C442.074 73.0182 443.253 73.2737 444.246 73.8954H444.407C449.136 76.9009 453.905 80.0667 458.555 82.8919C460.919 84.2744 463.204 85.677 465.468 86.7589C466.502 87.3001 467.566 87.7817 468.655 88.2016C469.333 88.5009 470.059 88.6773 470.799 88.7225C470.919 88.7225 470.799 88.5823 470.058 88.6023C469.824 88.5883 469.59 88.5883 469.356 88.6023L468.915 88.7025L469.577 88.3619C470.467 87.8828 471.33 87.3544 472.162 86.779C473.955 85.5149 475.631 84.0933 477.172 82.5312C480.673 78.8628 483.952 74.9889 486.991 70.9299C488.657 69.0671 490.958 67.8936 493.444 67.6398C495.93 67.386 498.421 68.0701 500.429 69.558C502.436 71.0458 503.815 73.23 504.295 75.682C504.775 78.1341 504.321 80.6769 503.023 82.8117L503.264 82.7917Z" fill="white"/>
<path d="M430.021 69.6075L432.366 73.6149C432.366 73.6149 434.149 78.8645 437.737 79.8262L447.476 76.6805L446.975 75.859C445.732 73.9755 445.873 70.3088 446.294 67.2632C446.714 64.2176 445.151 64.1175 443.989 64.8789C443.165 65.8262 442.587 66.9615 442.306 68.1849C441.828 67.5232 441.298 66.9002 440.722 66.3215L437.757 63.3561C437.134 62.748 436.305 62.3977 435.436 62.3754C434.566 62.3531 433.72 62.6605 433.067 63.2358L430.662 65.3798C430.092 65.9074 429.718 66.6131 429.601 67.3813C429.485 68.1495 429.633 68.9345 430.021 69.6075Z" fill="#FFDE9F"/>
<path opacity="0.7" d="M430.021 69.6075L432.366 73.6149C432.366 73.6149 434.149 78.8645 437.737 79.8262L447.476 76.6805L446.975 75.859C445.732 73.9755 445.873 70.3088 446.294 67.2632C446.714 64.2176 445.151 64.1175 443.989 64.8789C443.165 65.8262 442.587 66.9615 442.306 68.1849C441.828 67.5232 441.298 66.9002 440.722 66.3215L437.757 63.3561C437.134 62.748 436.305 62.3977 435.436 62.3754C434.566 62.3531 433.72 62.6605 433.067 63.2358L430.662 65.3798C430.092 65.9074 429.718 66.6131 429.601 67.3813C429.485 68.1495 429.633 68.9345 430.021 69.6075Z" fill="white"/>
<path d="M520.962 55.1811C510.159 58.044 499.811 62.4078 490.221 68.1448C488.724 69.0811 487.55 70.4522 486.855 72.0745C486.16 73.6968 485.978 75.4927 486.333 77.2214C490.201 96.1361 498.998 121.462 508.497 137.592L552.805 119.258C553.106 111.444 542.344 86.1578 531.382 61.713C529.418 57.325 525.631 54.059 520.962 55.1811Z" fill="#FFDE9F"/>
<path opacity="0.8" d="M520.962 55.1811C510.159 58.044 499.811 62.4078 490.221 68.1448C488.724 69.0811 487.55 70.4522 486.855 72.0745C486.16 73.6968 485.978 75.4927 486.333 77.2214C490.201 96.1361 498.998 121.462 508.497 137.592L552.805 119.258C553.106 111.444 542.344 86.1578 531.382 61.713C529.418 57.325 525.631 54.059 520.962 55.1811Z" fill="white"/>
<path opacity="0.3" d="M538.251 77.2014L529.453 74.256C531.457 79.4054 538.531 85.9174 543.481 89.7444C541.878 85.737 540.094 81.5293 538.251 77.2014Z" fill="#FFDE9F"/>
<path d="M518.059 35.3448C514.392 28.372 506.476 24.8656 496.977 25.647C488.961 26.3283 481.867 34.5032 482.709 38.9113C483.55 43.3194 490.284 45.2028 491.566 46.7256L486.015 50.7329C485.358 51.2075 484.803 51.8102 484.384 52.5047C483.966 53.1993 483.692 53.9713 483.58 54.7743C483.468 55.5774 483.519 56.3948 483.731 57.1775C483.943 57.9602 484.311 58.6919 484.813 59.3287C487.158 62.2941 490.244 65.3397 492.027 67.5838C507.378 67.1831 518.74 61.3324 522.848 55.702C521.305 48.569 521.626 42.2775 518.059 35.3448Z" fill="#FFDE9F"/>
<path opacity="0.8" d="M518.059 35.3448C514.392 28.372 506.476 24.8656 496.977 25.647C488.961 26.3283 481.867 34.5032 482.709 38.9113C483.55 43.3194 490.284 45.2028 491.566 46.7256L486.015 50.7329C485.358 51.2075 484.803 51.8102 484.384 52.5047C483.966 53.1993 483.692 53.9713 483.58 54.7743C483.468 55.5774 483.519 56.3948 483.731 57.1775C483.943 57.9602 484.311 58.6919 484.813 59.3287C487.158 62.2941 490.244 65.3397 492.027 67.5838C507.378 67.1831 518.74 61.3324 522.848 55.702C521.305 48.569 521.626 42.2775 518.059 35.3448Z" fill="white"/>
<path d="M510.523 39.6727C511.612 42.467 511.849 45.5217 511.203 48.4505C510.557 51.3793 509.056 54.0508 506.892 56.1273C504.727 58.2039 501.996 59.5922 499.042 60.1168C496.089 60.6414 493.046 60.2787 490.299 59.0747C487.551 57.8706 485.223 55.8792 483.607 53.3521C481.991 50.8251 481.161 47.8758 481.222 44.8772C481.282 41.8785 482.231 38.9651 483.947 36.5052C485.663 34.0453 488.07 32.1493 490.864 31.0569C494.613 29.5963 498.79 29.6832 502.476 31.2986C506.162 32.914 509.056 35.9257 510.523 39.6727Z" fill="#0B1315"/>
<path d="M640.642 220.243C640.422 213.651 640.121 214.232 639.941 208.682C639.821 205.276 639.801 201.489 639.781 198.223C639.774 196.672 639.232 195.171 638.246 193.973C637.26 192.776 635.891 191.956 634.37 191.651C631.725 191.11 629.059 190.609 626.354 190.048C622.887 189.307 619.46 188.505 616.073 187.523C613.428 186.762 610.823 185.92 608.238 184.979C605.653 184.037 602.747 182.975 600.062 181.733C596.895 180.39 593.769 178.948 590.683 177.445C587.216 175.802 583.789 174.079 580.362 172.336C567.176 150.516 566.896 136.129 552.748 119.258L522.367 133.004C522.367 133.004 544.692 172.596 559.882 189.387C568.639 199.044 582.366 203.412 594.611 206.578C603.448 208.842 612.406 210.586 621.364 212.249C624.851 212.89 628.638 213.13 631.644 215.214C633.868 216.919 635.393 219.377 635.933 222.127C636.067 222.688 636.187 223.249 636.294 223.81C636.674 225.493 640.783 224.211 640.642 220.243Z" fill="#FFDE9F"/>
<path opacity="0.8" d="M640.642 220.243C640.422 213.651 640.121 214.232 639.941 208.682C639.821 205.276 639.801 201.489 639.781 198.223C639.774 196.672 639.232 195.171 638.246 193.973C637.26 192.776 635.891 191.956 634.37 191.651C631.725 191.11 629.059 190.609 626.354 190.048C622.887 189.307 619.46 188.505 616.073 187.523C613.428 186.762 610.823 185.92 608.238 184.979C605.653 184.037 602.747 182.975 600.062 181.733C596.895 180.39 593.769 178.948 590.683 177.445C587.216 175.802 583.789 174.079 580.362 172.336C567.176 150.516 566.896 136.129 552.748 119.258L522.367 133.004C522.367 133.004 544.692 172.596 559.882 189.387C568.639 199.044 582.366 203.412 594.611 206.578C603.448 208.842 612.406 210.586 621.364 212.249C624.851 212.89 628.638 213.13 631.644 215.214C633.868 216.919 635.393 219.377 635.933 222.127C636.067 222.688 636.187 223.249 636.294 223.81C636.674 225.493 640.783 224.211 640.642 220.243Z" fill="white"/>
<path opacity="0.3" d="M625.237 189.787C624.035 189.527 622.832 189.267 621.61 188.966C621.71 195.899 618.464 207.841 617.281 211.467L621.089 212.189C623.584 204.971 624.982 197.42 625.237 189.787Z" fill="#FFDE9F"/>
<path opacity="0.3" d="M639.863 198.223C639.858 196.675 639.318 195.176 638.336 193.979C637.355 192.782 635.99 191.96 634.473 191.651L632.469 191.27C632.791 193.548 633.957 195.622 635.735 197.081C636.879 198.138 638.25 198.92 639.743 199.365C639.863 199.004 639.863 198.604 639.863 198.223Z" fill="#FFDE9F"/>
<path d="M507.695 39.7929C508.497 42.8385 505.09 46.0243 502.384 43.3995C499.859 40.6927 497.096 38.2182 494.128 36.006C491.342 34.2628 495.05 31.2172 499.439 32.3994C501.311 32.8698 503.042 33.7886 504.48 35.0767C505.918 36.3648 507.022 37.9834 507.695 39.7929Z" fill="white"/>
<path d="M507.919 136.61C506.517 137.131 509.082 139.536 509.082 139.536C509.082 139.536 537.138 129.938 554.171 120.06C554.213 119.462 554.11 118.863 553.873 118.312C553.636 117.761 553.271 117.275 552.809 116.894C538.23 124.309 523.243 130.891 507.919 136.61Z" fill="#FFDE9F"/>
<path opacity="0.5" d="M507.919 136.61C506.517 137.131 509.082 139.536 509.082 139.536C509.082 139.536 537.138 129.938 554.171 120.06C554.213 119.462 554.11 118.863 553.873 118.312C553.636 117.761 553.271 117.275 552.809 116.894C538.23 124.309 523.243 130.891 507.919 136.61Z" fill="white"/>
<path d="M528.56 53.8587C534.091 56.6638 539.281 59.6092 544.592 62.8752C547.177 64.5182 549.742 66.1812 552.287 67.9845C554.832 69.7878 557.357 71.6312 559.902 73.715L560.844 74.4965L562.027 75.5784C562.731 76.2087 563.4 76.8776 564.031 77.5821C564.672 78.2834 565.213 78.9646 565.734 79.5858C566.255 80.2069 566.816 80.9483 567.277 81.5894C569.145 84.1653 570.871 86.8408 572.447 89.6041C575.553 94.9626 578.233 100.557 580.463 106.335C580.876 107.426 580.897 108.627 580.524 109.733C580.15 110.838 579.406 111.781 578.416 112.399C577.427 113.018 576.253 113.275 575.096 113.126C573.938 112.978 572.868 112.433 572.067 111.584L571.966 111.464C567.958 107.196 564.091 102.708 560.203 98.5204C556.315 94.3328 552.367 90.085 549.101 88.2216C544.552 85.3964 539.482 82.5712 534.452 79.8062L519.302 71.3908C516.953 70.1473 515.194 68.0217 514.412 65.4815C513.63 62.9414 513.89 60.1948 515.133 57.846C516.377 55.4972 518.503 53.7385 521.044 52.9569C523.584 52.1754 526.331 52.4349 528.68 53.6783L528.56 53.8587Z" fill="#FFDE9F"/>
<path opacity="0.8" d="M528.56 53.8587C534.091 56.6638 539.281 59.6092 544.592 62.8752C547.177 64.5182 549.742 66.1812 552.287 67.9845C554.832 69.7878 557.357 71.6312 559.902 73.715L560.844 74.4965L562.027 75.5784C562.731 76.2087 563.4 76.8776 564.031 77.5821C564.672 78.2834 565.213 78.9646 565.734 79.5858C566.255 80.2069 566.816 80.9483 567.277 81.5894C569.145 84.1653 570.871 86.8408 572.447 89.6041C575.553 94.9626 578.233 100.557 580.463 106.335C580.876 107.426 580.897 108.627 580.524 109.733C580.15 110.838 579.406 111.781 578.416 112.399C577.427 113.018 576.253 113.275 575.096 113.126C573.938 112.978 572.868 112.433 572.067 111.584L571.966 111.464C567.958 107.196 564.091 102.708 560.203 98.5204C556.315 94.3328 552.367 90.085 549.101 88.2216C544.552 85.3964 539.482 82.5712 534.452 79.8062L519.302 71.3908C516.953 70.1473 515.194 68.0217 514.412 65.4815C513.63 62.9414 513.89 60.1948 515.133 57.846C516.377 55.4972 518.503 53.7385 521.044 52.9569C523.584 52.1754 526.331 52.4349 528.68 53.6783L528.56 53.8587Z" fill="white"/>
<path d="M585.212 116.333L583.508 112.065C583.508 112.065 582.566 106.615 579.18 105.092L569.16 106.675L569.5 107.557C570.422 109.561 569.721 113.227 568.819 116.153C567.917 119.078 569.44 119.459 570.723 118.878C571.444 118.557 572.146 117.255 572.907 115.872C573.281 116.569 573.703 117.238 574.17 117.876L576.634 121.262C577.149 121.964 577.911 122.445 578.766 122.608C579.621 122.772 580.506 122.606 581.244 122.144L583.969 120.4C584.607 119.964 585.077 119.324 585.303 118.584C585.529 117.845 585.497 117.051 585.212 116.333Z" fill="#FFDE9F"/>
<path opacity="0.8" d="M585.212 116.333L583.508 112.065C583.508 112.065 582.566 106.615 579.18 105.092L569.16 106.675L569.5 107.557C570.422 109.561 569.721 113.227 568.819 116.153C567.917 119.078 569.44 119.459 570.723 118.878C571.444 118.557 572.146 117.255 572.907 115.872C573.281 116.569 573.703 117.238 574.17 117.876L576.634 121.262C577.149 121.964 577.911 122.445 578.766 122.608C579.621 122.772 580.506 122.606 581.244 122.144L583.969 120.4C584.607 119.964 585.077 119.324 585.303 118.584C585.529 117.845 585.497 117.051 585.212 116.333Z" fill="white"/>
<path opacity="0.3" d="M520.095 76.9008L517.65 77.1012L502.641 113.328C503.461 113.387 504.286 113.319 505.085 113.127C505.085 113.127 524.644 105.834 530.556 103.109C526.588 94.9138 520.095 76.9008 520.095 76.9008Z" fill="#FFDE9F"/>
<path d="M492.703 86.3982C494.527 95.868 497.913 104.969 502.723 113.328C510.058 110.803 522.282 106.034 528.214 103.309C524.227 94.7634 520.688 86.0155 517.613 77.1012C511.34 77.522 497.573 82.7916 492.703 86.3982Z" fill="white"/>
<path opacity="0.3" d="M507.593 94.2326C507.3 95.2124 506.723 96.0834 505.935 96.7352C505.146 97.3871 504.183 97.7905 503.165 97.8946C502.147 97.9986 501.122 97.7986 500.218 97.3197C499.314 96.8408 498.573 96.1047 498.088 95.2045C497.602 94.3042 497.395 93.2802 497.492 92.2622C497.589 91.2441 497.986 90.2776 498.632 89.485C499.278 88.6924 500.145 88.1094 501.123 87.8096C502.101 87.5098 503.146 87.5067 504.126 87.8008C505.438 88.1948 506.54 89.0934 507.19 90.2994C507.84 91.5054 507.985 92.92 507.593 94.2326Z" fill="#FFDE9F"/>
<path opacity="0.6" d="M511.425 87.3403C511.347 87.6748 511.169 87.9779 510.916 88.2098C510.662 88.4416 510.345 88.5915 510.005 88.6396C509.664 88.6877 509.318 88.6319 509.01 88.4794C508.702 88.3269 508.448 88.085 508.28 87.7853C508.112 87.4856 508.039 87.1421 508.069 86.8C508.1 86.4579 508.234 86.1331 508.453 85.8682C508.671 85.6034 508.965 85.4109 509.295 85.3159C509.625 85.221 509.976 85.2281 510.302 85.3363C510.709 85.4662 511.05 85.7452 511.258 86.1172C511.467 86.4891 511.526 86.9262 511.425 87.3403Z" fill="#FFDE9F"/>
<path opacity="0.6" d="M515.92 85.5971C515.873 85.8296 515.778 86.0497 515.641 86.2433C515.504 86.4369 515.328 86.5997 515.124 86.7214C514.921 86.8431 514.694 86.9209 514.458 86.9499C514.223 86.9789 513.984 86.9584 513.757 86.8897C513.53 86.821 513.32 86.7057 513.14 86.5511C512.96 86.3965 512.815 86.2061 512.713 85.992C512.61 85.7778 512.554 85.5448 512.548 85.3077C512.541 85.0706 512.584 84.8347 512.673 84.6152C512.738 84.4031 512.843 84.2058 512.983 84.0345C513.124 83.8633 513.297 83.7214 513.492 83.6172C513.688 83.5129 513.902 83.4483 514.123 83.4269C514.343 83.4056 514.566 83.428 514.778 83.4929C515.206 83.6229 515.567 83.9166 515.781 84.3105C515.995 84.7044 516.045 85.1666 515.92 85.5971Z" fill="#FFDE9F"/>
<path opacity="0.5" d="M522.202 101.205L503.665 108.519L502.562 104.872L521.079 97.5587L522.202 101.205Z" fill="#FFDE9F"/>
<path opacity="0.2" d="M419.944 379.675C419.901 391.342 418.774 402.98 416.577 414.439C414.212 424.738 410.538 432.271 405.555 437.04C403.234 439.344 400.478 441.163 397.447 442.391C394.416 443.619 391.17 444.232 387.9 444.193C377.6 444.193 369.737 438.576 364.313 427.342C363.36 425.325 362.55 423.242 361.888 421.111C350.433 430.948 339.766 441.667 329.985 453.17L319.344 465.713C325.07 471.516 331.678 476.378 338.923 480.119C351.401 486.571 367.78 489.804 388.06 489.817C391.627 489.817 395.074 489.717 398.421 489.516C410.69 471.364 420.843 451.869 428.681 431.41L458.44 353.828L419.944 379.675Z" fill="#0B1315"/>
<path d="M151.672 485.529L186.742 520.593L284.937 428.084C251.09 415.16 185.279 451.847 151.672 485.529Z" fill="white"/>
<path d="M273.976 607.753C262.774 596.532 238.906 572.689 238.906 572.689L331.43 474.509C344.276 508.271 307.583 574.131 273.976 607.753Z" fill="white"/>
<path d="M408.199 386.748L446.455 312.993L372.689 351.283C348.995 363.57 327.117 379.078 307.68 397.368L181.93 515.724L243.713 577.497L362.088 451.767C380.388 432.328 395.907 410.447 408.199 386.748Z" fill="#FFDE9F"/>
<path opacity="0.6" d="M408.199 386.748L446.455 312.993L372.689 351.283C348.995 363.57 327.117 379.078 307.68 397.368L181.93 515.724L243.713 577.497L362.088 451.767C380.388 432.328 395.907 410.447 408.199 386.748Z" fill="white"/>
<path d="M329.64 455.634C343.918 455.634 355.492 444.062 355.492 429.787C355.492 415.512 343.918 403.94 329.64 403.94C315.363 403.94 303.789 415.512 303.789 429.787C303.789 444.062 315.363 455.634 329.64 455.634Z" fill="white"/>
<path d="M329.644 446.397C338.819 446.397 346.257 438.961 346.257 429.787C346.257 420.613 338.819 413.177 329.644 413.177C320.469 413.177 313.031 420.613 313.031 429.787C313.031 438.961 320.469 446.397 329.644 446.397Z" fill="#FFDE9F"/>
<path opacity="0.3" d="M264.61 555.297L204.109 494.806L253.648 448.201L311.222 505.786L264.61 555.297Z" fill="#FFDE9F"/>
<path d="M165.355 540.87C120.065 544.537 105.056 573.53 99.9254 612.061C97.3202 631.717 96.1579 651.613 79.6651 663.114C78.6729 663.788 77.9259 664.766 77.5359 665.9C77.1459 667.034 77.1339 668.264 77.5018 669.406C77.8696 670.548 78.5974 671.54 79.5763 672.233C80.5552 672.927 81.7324 673.284 82.9316 673.253C143.732 671.349 172.089 641.595 175.656 629.172C174.72 635.666 173.045 642.032 170.666 648.147C170.229 649.226 170.143 650.415 170.421 651.546C170.7 652.676 171.328 653.69 172.216 654.443C173.104 655.195 174.208 655.649 175.369 655.738C176.53 655.827 177.689 655.547 178.682 654.939C195.736 644.26 217.138 624.584 218.561 592.665C206.016 574.893 165.355 540.87 165.355 540.87Z" fill="#FFDE9F"/>
<path opacity="0.2" d="M165.355 540.87C120.065 544.537 105.056 573.53 99.9254 612.061C97.3202 631.717 96.1579 651.613 79.6651 663.114C78.6729 663.788 77.9259 664.766 77.5359 665.9C77.1459 667.034 77.1339 668.264 77.5018 669.406C77.8696 670.548 78.5974 671.54 79.5763 672.233C80.5552 672.927 81.7324 673.284 82.9316 673.253C143.732 671.349 172.089 641.595 175.656 629.172C174.72 635.666 173.045 642.032 170.666 648.147C170.229 649.226 170.143 650.415 170.421 651.546C170.7 652.676 171.328 653.69 172.216 654.443C173.104 655.195 174.208 655.649 175.369 655.738C176.53 655.827 177.689 655.547 178.682 654.939C195.736 644.26 217.138 624.584 218.561 592.665C206.016 574.893 165.355 540.87 165.355 540.87Z" fill="white"/>
<path d="M225.591 606.35L153.047 533.817L191.684 525.462L233.948 567.719L225.591 606.35Z" fill="#FFDE9F"/>
</svg>
