<svg width="36" height="36" viewBox="0 0 36 36" fill="none" xmlns="http://www.w3.org/2000/svg">
<mask id="mask0_586_3521" style="mask-type:alpha" maskUnits="userSpaceOnUse" x="0" y="0" width="36" height="36">
<path d="M0 0H36V36H0V0Z" fill="white"/>
</mask>
<g mask="url(#mask0_586_3521)">
<path d="M24.591 18L15 11.6055V24.3945L24.591 18ZM29.064 18.624L13.1655 29.223C13.0526 29.2982 12.9213 29.3413 12.7858 29.3478C12.6503 29.3542 12.5156 29.3239 12.396 29.2598C12.2764 29.1958 12.1764 29.1005 12.1067 28.9841C12.0369 28.8678 12.0001 28.7347 12 28.599V7.40101C12.0001 7.26535 12.0369 7.13224 12.1067 7.01588C12.1764 6.89951 12.2764 6.80423 12.396 6.7402C12.5156 6.67617 12.6503 6.64577 12.7858 6.65225C12.9213 6.65874 13.0526 6.70185 13.1655 6.77701L29.064 17.376C29.1667 17.4445 29.2509 17.5373 29.3092 17.6461C29.3674 17.755 29.3979 17.8766 29.3979 18C29.3979 18.1235 29.3674 18.245 29.3092 18.3539C29.2509 18.4627 29.1667 18.5555 29.064 18.624Z" fill="#0B1315"/>
</g>
</svg>
