<svg width="60" height="42" viewBox="0 0 60 42" fill="none" xmlns="http://www.w3.org/2000/svg">
<mask id="mask0_585_9301" style="mask-type:alpha" maskUnits="userSpaceOnUse" x="0" y="0" width="60" height="42">
<rect width="60" height="42" fill="white"/>
</mask>
<g mask="url(#mask0_585_9301)">
<path d="M23.1429 2.08163C19.7959 3.06122 16.3265 4.65306 12.7347 6.85714C9.14286 9.06122 6.4898 11.7959 4.77551 15.0612C3.06122 18.3265 2.20408 21.6326 2.20408 24.9796C2.20408 28.2449 2.85714 31.1429 4.16327 33.6735C5.46939 36.1224 7.42857 37.8776 10.0408 38.9388C10.6939 39.1837 11.1429 39.3061 11.3878 39.3061C12.1224 39.3061 12.4898 38.9388 12.4898 38.2041C12.4898 37.7143 12.0816 37.2653 11.2653 36.8571C7.91837 35.551 6.2449 32.6531 6.2449 28.1633C6.2449 25.1429 7.30612 22.6939 9.42857 20.8163C11.551 18.9388 14.1224 18 17.1429 18C20.2449 18 22.8571 19.1429 24.9796 21.4286C27.102 23.7143 28.1633 26.5306 28.1633 29.8775C28.1633 33.2245 26.9388 36.0816 24.4898 38.449C22.0408 40.8163 18.6531 42 14.3265 42C10.0816 42 6.61224 40.4082 3.91837 37.2245C1.30612 34.0408 0 29.8776 0 24.7347C0 19.5102 1.83673 14.6939 5.5102 10.2857C9.26531 5.79592 15.0612 2.36735 22.898 0L23.1429 2.08163ZM54.9796 2.08163C51.6327 3.06122 48.1633 4.65306 44.5714 6.85714C40.9796 9.06122 38.3265 11.7959 36.6122 15.0612C34.898 18.3265 34.0408 21.6326 34.0408 24.9796C34.0408 28.2449 34.6939 31.1429 36 33.6735C37.3061 36.1224 39.2653 37.8776 41.8775 38.9388C42.449 39.1837 42.898 39.3061 43.2245 39.3061C43.9592 39.3061 44.3265 38.9388 44.3265 38.2041C44.3265 37.7143 43.9184 37.2653 43.102 36.8571C39.7551 35.551 38.0816 32.6531 38.0816 28.1633C38.0816 25.1429 39.1429 22.6939 41.2653 20.8163C43.3878 18.9388 45.9592 18 48.9796 18C52.0816 18 54.6939 19.1429 56.8163 21.4286C58.9388 23.7143 60 26.5306 60 29.8775C60 33.2245 58.7755 36.0816 56.3265 38.449C53.8776 40.8163 50.4898 42 46.1633 42C41.9184 42 38.449 40.4082 35.7551 37.2245C33.1429 34.0408 31.8367 29.8776 31.8367 24.7347C31.8367 19.5102 33.6735 14.6939 37.3469 10.2857C41.102 5.79592 46.898 2.36735 54.7347 0L54.9796 2.08163Z" fill="white"/>
</g>
</svg>
