<svg width="87" height="100" viewBox="0 0 87 100" fill="none" xmlns="http://www.w3.org/2000/svg">
<path fill-rule="evenodd" clip-rule="evenodd" d="M33.2525 0.364438C31.3861 0.85345 29.6799 1.77872 28.3149 3.04219L27.2112 4.06358L25.8651 3.90064C19.0623 3.07657 13.0793 8.14527 12.7489 15.0129C12.5801 18.5175 13.6498 21.2642 16.1669 23.7901L17.6414 25.2699L16.9201 31.131C16.5233 34.3546 16.2027 37.4878 16.2072 38.0938L16.2158 39.1953L15.4923 39.3311C11.556 40.0696 9.97738 44.9789 12.7569 47.8369C13.446 48.5454 15.0877 49.3933 15.7762 49.3962C16.0178 49.3974 16.2158 49.4357 16.2158 49.4818C16.2158 50.2136 16.7513 52.9623 17.1234 54.1402C17.6883 55.9284 18.1044 56.4315 19.0183 56.4315C20.2488 56.4315 20.6653 55.4822 20.1161 53.9298C19.3208 51.6826 19.1463 49.8612 19.1463 43.8082V38.0741L19.5859 37.9744C21.6359 37.5095 31.2079 36.8981 36.4366 36.8981C41.8501 36.8981 50.6615 37.4733 53.2092 37.9928L53.7662 38.1063L53.6779 44.4848C53.5972 50.317 53.5524 50.9969 53.1558 52.4205C51.7757 57.3755 48.5267 61.3611 44.0164 63.6325C41.1439 65.0788 37.2322 65.7085 34.0279 65.2398C30.3041 64.6953 27.2827 63.1956 24.0966 60.3102C23.085 59.3941 22.6575 59.2265 21.988 59.4834C21.5124 59.6658 21.0731 60.6521 21.2151 61.2181C21.3773 61.8643 23.6185 63.9206 25.3671 65.0278C26.1308 65.5113 26.7578 66.0388 26.7601 66.2C26.7665 66.6519 26.0552 67.7112 25.5711 67.9703C25.3323 68.098 21.2391 69.5055 16.4752 71.0978C11.7111 72.69 7.26427 74.2831 6.59297 74.6379C5.86483 75.0229 4.73402 75.9136 3.78882 76.8469C2.52399 78.0955 2.04221 78.7453 1.39749 80.0713C0.0277426 82.8882 0 83.1181 0 91.6251V99.1893L0.514801 99.5941C1.35196 100.253 2.18073 100.101 2.64473 99.2036C2.88015 98.7484 2.93056 97.4001 2.93056 91.5513C2.93056 83.8238 3.00538 83.1341 4.05863 81.1605C4.80318 79.7652 6.7227 77.8879 8.11452 77.1939C8.75553 76.8743 12.4627 75.5352 16.3527 74.2182L23.4253 71.8236L26.4143 74.1248C28.0581 75.3904 29.5928 76.5943 29.8245 76.8L30.2457 77.1744L28.9287 78.4763C27.5156 79.8732 26.7689 81.1969 26.3975 82.9626C26.259 83.6206 26.1797 86.7389 26.1797 91.5191V99.04L26.6593 99.5195C27.2431 100.103 27.9122 100.132 28.5872 99.6006L29.0938 99.2022L29.1508 91.2485C29.2054 83.6382 29.2257 83.2566 29.6193 82.4058C30.3383 80.8518 31.1421 80.1391 33.3855 79.0667C34.5263 78.5213 38.5624 76.6277 42.3546 74.859L49.2494 71.6432L56.4212 74.023C63.8694 76.4945 65.8895 77.3154 66.9632 78.3071C67.5521 78.851 67.5982 78.9841 67.5982 80.1413V81.3889L66.7833 81.5192C65.7432 81.6857 64.4176 82.9517 64.1052 84.077C63.8207 85.1017 63.8106 96.3004 64.0933 97.3181C64.3728 98.3248 65.2967 99.3226 66.3062 99.708C67.026 99.9829 67.879 100.018 72.3049 99.9587C78.2172 99.8786 78.4887 99.8159 80.3186 98.1044C81.6223 96.8847 82.2084 95.6881 82.4772 93.6961C82.7789 91.4618 82.5876 87.0732 82.1391 85.9324C81.6059 84.5768 80.7445 83.4327 79.6829 82.6699L78.7158 81.975L78.774 77.0382C78.8441 71.0686 78.7074 71.3898 81.2499 71.2251C83.87 71.0554 85.2029 70.328 85.9834 68.6421C86.3172 67.9212 86.3452 67.2329 86.3452 59.7528C86.3452 52.2726 86.3172 51.5843 85.9834 50.8634C85.7845 50.4336 85.3687 49.8448 85.0596 49.555C83.8405 48.4117 83.9402 48.4213 73.1647 48.4213C61.9922 48.4213 62.4926 48.3558 61.083 50.0026C60.0163 51.2487 59.9495 51.8987 60.0169 60.3727C60.0745 67.6133 60.0903 67.8865 60.498 68.6421C61.4466 70.3999 62.6258 71.0505 65.1666 71.2173C67.4616 71.3681 67.5982 71.5002 67.5982 73.57C67.5982 74.3519 67.5513 74.9917 67.4941 74.9917C67.4366 74.9917 66.9312 74.7578 66.3707 74.4718C65.8102 74.1858 61.4831 72.6465 56.7551 71.0509C52.0272 69.4555 47.9535 68.0439 47.7026 67.9146C47.2228 67.6671 46.8311 67.0344 46.6258 66.1756C46.5193 65.7309 46.6133 65.5909 47.3309 65.1227C49.0519 64.0005 50.8626 62.3709 52.0842 60.8445C54.33 58.039 56.0577 54.0286 56.4185 50.7831L56.5598 49.5128L57.2987 49.3597C59.6175 48.8785 61.5417 46.6493 61.5417 44.4443C61.5417 42.2109 59.9803 40.1175 57.8467 39.4905L56.658 39.1412L56.6539 38.0667C56.6518 37.4757 56.3042 34.273 55.8814 30.9495L55.1131 24.9069L56.3724 23.5721C58.675 21.1312 59.7043 18.3422 59.531 15.0129C59.3618 11.7588 58.2939 9.34719 57.022 9.34719C56.4224 9.34719 55.4831 10.0894 55.4878 10.5595C55.4893 10.6986 55.7519 11.5598 56.0713 12.4731C56.7444 14.3971 56.83 16.0265 56.3542 17.8536C55.9473 19.4168 55.2789 20.5038 53.6988 22.1737C52.9714 22.942 52.3208 23.7923 52.2528 24.0629C52.185 24.3335 52.4132 26.8502 52.76 29.6556C53.1068 32.4609 53.3395 34.8071 53.2774 34.8694C53.215 34.9315 51.7742 34.8411 50.0754 34.6684C40.8573 33.731 32.0673 33.7308 22.7021 34.6676C20.9504 34.8428 19.489 34.954 19.4542 34.9145C19.4194 34.8753 19.6748 32.651 20.0216 29.9717C20.4377 26.7555 20.6003 24.8711 20.4998 24.4261C20.3902 23.9402 19.9131 23.3365 18.7917 22.2641C16.4955 20.0687 15.6296 18.2389 15.6296 15.5811C15.6296 13.1219 16.5893 10.9406 18.442 9.18835C20.4817 7.25946 22.982 6.47758 25.9227 6.84937C26.8021 6.96054 27.7493 6.99434 28.0273 6.92459C28.3055 6.85484 29.1464 6.23474 29.896 5.54684C31.4967 4.07804 32.8502 3.38526 34.759 3.05782C37.4666 2.59362 40.1148 3.43136 42.2651 5.43255C43.9709 7.02013 44.0846 7.06311 46.0758 6.87536C48.2421 6.67119 49.4174 6.75735 50.7582 7.21862C52.159 7.7006 52.5912 7.68556 53.1068 7.13676C53.7097 6.49497 53.6679 5.57536 53.0122 5.05978C51.8941 4.18022 48.8633 3.63865 46.5175 3.89928L45.0718 4.05987L43.9111 2.98533C41.1288 0.409373 36.9774 -0.611438 33.2525 0.364438ZM26.4991 18.5439C26.1507 18.8178 25.9843 19.1351 25.9843 19.5252C25.9843 20.2682 28.9959 27.4846 29.4496 27.8288C29.9564 28.2135 30.8131 28.1582 31.2593 27.712C31.8333 27.138 31.8358 26.5478 31.2708 25.1722C28.982 19.6018 28.4936 18.5784 28.0206 18.363C27.3347 18.0504 27.0891 18.0797 26.4991 18.5439ZM35.2265 18.6101L34.6783 19.0813L34.612 22.3544C34.5362 26.1082 34.6513 27.1966 35.1808 27.7261C35.67 28.2153 36.624 28.2085 37.1204 27.712C37.4869 27.3455 37.5111 27.0608 37.5111 23.1351V18.9487L36.9963 18.5439C36.3262 18.0168 35.8982 18.0328 35.2265 18.6101ZM44.2139 18.3721C43.9785 18.486 43.7439 18.6779 43.6927 18.7986C41.7024 23.4881 40.7582 25.7718 40.6236 26.2211C40.2246 27.5524 41.746 28.6572 42.8375 27.8288C43.2912 27.4846 46.3028 20.2682 46.3028 19.5252C46.3028 19.1351 46.1364 18.8178 45.788 18.5439C45.2222 18.0986 44.8614 18.0593 44.2139 18.3721ZM16.2158 44.3185C16.2158 46.7843 16.0724 46.9494 14.9263 45.8033C14.3943 45.2713 14.262 44.9849 14.262 44.3644C14.262 43.3073 15.1279 42.2615 16.0692 42.1817C16.1497 42.1751 16.2158 43.1365 16.2158 44.3185ZM57.4454 42.4658C58.0768 42.7923 58.6116 43.6607 58.6104 44.3576C58.609 45.2444 57.5261 46.4676 56.7424 46.4676C56.6957 46.4676 56.6575 45.5005 56.6575 44.3185C56.6575 43.1365 56.7057 42.1694 56.7649 42.1694C56.8239 42.1694 57.1301 42.3029 57.4454 42.4658ZM26.78 43.4657C26.4321 43.9078 26.375 44.2537 26.375 45.9166C26.375 47.7119 26.41 47.8879 26.8547 48.3324C27.1184 48.5962 27.5619 48.812 27.8403 48.812C28.1187 48.812 28.5622 48.5962 28.8259 48.3324C29.2745 47.884 29.3056 47.7197 29.3056 45.7926C29.3056 43.9928 29.2562 43.683 28.9148 43.3417C28.333 42.7598 27.2874 42.8206 26.78 43.4657ZM43.9584 43.3417C43.6157 43.6843 43.5676 43.9928 43.5676 45.8475C43.5676 47.8057 43.6012 47.994 44.0197 48.3873C44.8653 49.1815 46.116 48.745 46.4157 47.5509C46.4833 47.2817 46.5076 46.3216 46.4695 45.4173C46.4159 44.1413 46.3171 43.681 46.0283 43.362C45.5426 42.8255 44.4849 42.8151 43.9584 43.3417ZM83.119 51.7862C83.3816 52.1609 83.4232 53.2536 83.4232 59.7747C83.4232 68.8764 83.6313 68.1826 80.8621 68.3116C78.716 68.4114 77.9349 68.7306 76.9109 69.9271C75.944 71.0565 75.8038 71.9595 75.8038 77.0583V81.4502L73.2151 81.3957L70.6264 81.3412L70.5288 76.2616C70.4225 70.7396 70.3904 70.5728 69.2274 69.4963C68.3201 68.6564 67.7934 68.4798 65.7717 68.3374C62.7655 68.1256 63.007 68.8742 63.007 59.7678C63.007 52.5747 63.0265 52.1527 63.3792 51.7631C63.7478 51.3558 63.841 51.3519 73.2831 51.3519H82.815L83.119 51.7862ZM32.7222 54.0896C32.2721 54.587 32.2641 55.532 32.706 56.0202C33.1767 56.5403 34.8115 57.2124 35.9277 57.3447C37.0243 57.4746 38.6785 57.0491 39.6725 56.3817C40.4579 55.8542 40.6593 54.9365 40.1576 54.1708C39.7653 53.5724 38.8758 53.5408 37.8042 54.087C36.8432 54.577 36.0855 54.5759 34.9989 54.0827C33.9128 53.59 33.1724 53.5922 32.7222 54.0896ZM66.3097 54.6937C65.9657 55.0739 65.9376 55.4564 65.9376 59.7528C65.9376 64.0492 65.9657 64.4317 66.3097 64.8119C66.5633 65.0921 66.9177 65.2232 67.422 65.2232C68.7198 65.2232 68.7704 65.0176 68.7704 59.7528C68.7704 54.4879 68.7198 54.2824 67.422 54.2824C66.9177 54.2824 66.5633 54.4135 66.3097 54.6937ZM72.1709 54.6937C71.8268 55.0739 71.7987 55.4564 71.7987 59.7528C71.7987 64.0492 71.8268 64.4317 72.1709 64.8119C72.4244 65.0921 72.7788 65.2232 73.2831 65.2232C74.5809 65.2232 74.6315 65.0176 74.6315 59.7528C74.6315 54.4879 74.5809 54.2824 73.2831 54.2824C72.7788 54.2824 72.4244 54.4135 72.1709 54.6937ZM78.032 54.6937C77.6879 55.0739 77.6598 55.4564 77.6598 59.7528C77.6598 64.0492 77.6879 64.4317 78.032 64.8119C78.2856 65.0921 78.64 65.2232 79.1442 65.2232C80.4421 65.2232 80.4927 65.0176 80.4927 59.7528C80.4927 54.4879 80.4421 54.2824 79.1442 54.2824C78.64 54.2824 78.2856 54.4135 78.032 54.6937ZM45.0118 69.4635L45.5409 70.0894L44.7985 70.4618C44.3901 70.6666 41.6583 71.9545 38.7275 73.3238C35.0702 75.0325 33.324 75.7552 33.1595 75.6278C33.0278 75.5258 31.5791 74.4099 29.9405 73.148C28.302 71.8861 26.9611 70.8092 26.9611 70.7547C26.9611 70.7002 27.3945 70.2661 27.9239 69.7899C28.5227 69.2515 29.0141 68.5906 29.2239 68.0412C29.4775 67.3775 29.6387 67.1882 29.8729 67.2789C31.0268 67.7255 33.6494 68.1889 35.5574 68.2834C37.9515 68.4018 40.2272 68.117 42.4931 67.4154L43.6653 67.0526L44.074 67.9451C44.2987 68.4358 44.7207 69.1192 45.0118 69.4635ZM34.3678 84.735C33.4025 85.5167 34.0226 87.3 35.2597 87.3C36.0064 87.3 36.7297 86.5791 36.7297 85.8348C36.7297 84.626 35.3156 83.9676 34.3678 84.735ZM43.1595 84.735C42.1942 85.5167 42.8143 87.3 44.0514 87.3C44.7981 87.3 45.5213 86.5791 45.5213 85.8348C45.5213 84.626 44.1072 83.9676 43.1595 84.735ZM77.8868 85.0072C78.3151 85.3041 78.8787 85.9195 79.1395 86.3748C79.5871 87.156 79.6135 87.3768 79.6135 90.3283C79.6135 94.0481 79.498 94.7038 78.6775 95.6381C77.5103 96.9676 77.0704 97.0594 71.8544 97.0643C67.4712 97.0684 67.2102 97.0482 67.0189 96.6907C66.7081 96.1097 66.7464 84.9087 67.0604 84.5947C67.245 84.4101 68.4875 84.3652 72.206 84.4091L77.1081 84.4672L77.8868 85.0072ZM15.0775 88.729C14.6643 89.1689 14.6528 89.3165 14.6528 94.1853V99.1893L15.1676 99.5941C16.0048 100.253 16.8335 100.101 17.2975 99.2036C17.7142 98.3979 17.7142 89.8781 17.2975 89.0724C16.8214 88.1518 15.7723 87.9895 15.0775 88.729ZM34.3678 93.5267C33.4025 94.3084 34.0226 96.0917 35.2597 96.0917C36.0064 96.0917 36.7297 95.3708 36.7297 94.6264C36.7297 93.4177 35.3156 92.7593 34.3678 93.5267ZM43.1595 93.5267C42.1942 94.3084 42.8143 96.0917 44.0514 96.0917C44.7981 96.0917 45.5213 95.3708 45.5213 94.6264C45.5213 93.4177 44.1072 92.7593 43.1595 93.5267Z" fill="#FFDE9F"/>
</svg>
