<svg width="100" height="100" viewBox="0 0 100 100" fill="none" xmlns="http://www.w3.org/2000/svg">
<mask id="mask0_502_2625" style="mask-type:alpha" maskUnits="userSpaceOnUse" x="0" y="0" width="100" height="100">
<rect width="100" height="100" fill="white"/>
</mask>
<g mask="url(#mask0_502_2625)">
<path fill-rule="evenodd" clip-rule="evenodd" d="M48.699 0.427177C48.1528 0.788745 47.6488 1.64549 45.8545 5.26176C44.6551 7.67905 43.6442 9.71602 43.6081 9.78829C43.572 9.86057 41.3658 10.2325 38.7057 10.6146C36.0455 10.9968 33.6071 11.4449 33.2869 11.6104C32.2975 12.122 31.7983 13.2164 32.0092 14.4107C32.1167 15.0178 32.6964 15.6738 35.8361 18.74L39.5363 22.3537L38.7468 26.8464C38.3123 29.3175 37.951 31.665 37.9433 32.0633C37.915 33.549 39.3019 34.8844 40.6624 34.6814C41.0121 34.6292 43.2096 33.5922 45.5458 32.3768C47.8819 31.1614 49.8831 30.1426 49.9929 30.1127C50.1029 30.0826 52.1246 31.0763 54.4856 32.3208C56.8469 33.5654 59.0098 34.6316 59.2921 34.6902C60.0564 34.849 61.5209 34.1313 61.8902 33.417C62.3354 32.5563 62.2827 31.835 61.4095 26.8464L60.6233 22.3537L64.3157 18.74C67.4798 15.6435 68.0271 15.0214 68.1394 14.3934C68.3174 13.3979 67.715 12.0394 66.9118 11.6239C66.5852 11.4551 64.1384 11 61.474 10.6124C58.8098 10.2251 56.6164 9.89534 56.5996 9.8801C56.5828 9.86467 55.5668 7.83063 54.342 5.35962C52.533 1.71054 51.9925 0.784643 51.4624 0.427372C50.617 -0.142425 49.5592 -0.142425 48.699 0.427177ZM52.2121 7.59681C54.2584 11.793 54.7909 12.5398 55.8928 12.7594C56.1909 12.8187 58.0609 13.0928 60.0484 13.3682C62.036 13.6436 63.9155 13.9197 64.2249 13.9816C64.7726 14.0912 64.6943 14.1879 61.3296 17.5564C58.2248 20.6648 57.8618 21.0969 57.7788 21.7839C57.7261 22.2191 58.0169 24.4442 58.4533 26.9441C58.8752 29.3614 59.1993 31.3634 59.1735 31.3931C59.1477 31.4228 57.2612 30.4658 54.981 29.2667C51.7921 27.5895 50.6623 27.0861 50.0863 27.0861C49.5102 27.0861 48.3804 27.5895 45.1915 29.2667C42.9113 30.4658 41.023 31.4228 40.9953 31.3931C40.9676 31.3634 41.3055 29.2251 41.7464 26.6413C42.45 22.5174 42.517 21.8689 42.2954 21.3341C42.1566 20.9989 40.5198 19.2232 38.6581 17.3883C36.7963 15.5533 35.3317 14.0494 35.4034 14.0462C35.4751 14.0431 37.5921 13.7417 40.1081 13.3762C43.4571 12.8898 44.8176 12.6148 45.1868 12.3495C45.5089 12.1181 46.4673 10.455 47.8399 7.74566C49.0217 5.41295 50.0398 3.50412 50.1023 3.50392C50.165 3.50392 51.1143 5.34556 52.2121 7.59681ZM16.0463 11.6256C15.6463 11.8426 15.1306 12.6691 14.0547 14.817C12.6832 17.5557 12.5674 17.7219 11.9575 17.826C11.6024 17.8866 10.3011 18.078 9.06557 18.2512C6.29609 18.64 5.71262 18.8808 5.26725 19.8192C4.6789 21.059 4.91389 21.5122 7.49174 24.1117L9.81605 26.4558L9.34549 29.1905C9.08647 30.6946 8.87375 32.2194 8.87258 32.5788C8.86926 33.4932 9.51309 34.3097 10.4611 34.5937C11.2424 34.8279 11.2834 34.8136 14.2211 33.3002L17.1914 31.7699L20.0656 33.2636C21.6464 34.0854 23.1189 34.7576 23.3374 34.7576C23.8998 34.7576 24.8099 34.2513 25.1689 33.7385C25.5817 33.1494 25.5506 32.2084 25.0138 29.0471L24.5585 26.3642L26.8631 24.1145C29.4015 21.6368 29.6587 21.1512 29.1188 19.8589C28.7207 18.9062 28.1201 18.6509 25.3762 18.2682C24.087 18.0883 22.7417 17.8907 22.3865 17.8285C21.7775 17.7221 21.6593 17.5527 20.2884 14.8155C19.1481 12.5382 18.7117 11.8509 18.2579 11.6161C17.5356 11.2426 16.7462 11.2459 16.0463 11.6256ZM82.0169 11.5032C81.418 11.746 81.2288 12.0411 79.7821 14.9917C78.5183 17.5687 78.413 17.7188 77.794 17.827C77.4345 17.8899 76.0855 18.0883 74.7963 18.2682C73.5071 18.4481 72.212 18.7171 71.9184 18.8662C70.9671 19.3492 70.5183 20.757 71.005 21.7318C71.1222 21.9664 72.1982 23.0905 73.3962 24.2297L75.5742 26.3011L75.0505 29.4895C74.4742 32.9994 74.534 33.6033 75.5228 34.2513C76.5964 34.9547 76.9683 34.8748 80.0564 33.2775L82.9721 31.7693L85.8772 33.2834C88.3527 34.5736 88.8783 34.7795 89.4323 34.6755C90.2265 34.5265 91.0452 33.8022 91.2237 33.0902C91.2993 32.7894 91.1368 31.2462 90.8467 29.5087L90.3369 26.4558L92.5563 24.2094C94.7679 21.971 95.209 21.4016 95.209 20.7846C95.209 20.1816 94.574 19.1154 94.0594 18.8543C93.7785 18.7117 92.1862 18.4005 90.5209 18.1628C88.8557 17.9252 87.4772 17.7147 87.4578 17.6953C87.4383 17.6758 86.7919 16.3621 86.0215 14.7762C84.9327 12.5347 84.4967 11.8284 84.0645 11.6049C83.4577 11.291 82.6403 11.2504 82.0169 11.5032ZM18.4267 17.6145C19.0502 18.8695 19.7296 19.9591 20.0156 20.1626C20.3248 20.3826 21.2913 20.6277 22.5549 20.8066C25.9319 21.2846 25.8139 21.0285 23.6556 23.196C22.3737 24.4835 21.7335 25.2783 21.6529 25.6822C21.5878 26.009 21.7234 27.3145 21.9541 28.5836C22.1846 29.8527 22.3332 30.9311 22.2842 30.9804C22.235 31.0294 21.1753 30.5369 19.929 29.8859C18.683 29.2348 17.4555 28.7021 17.2015 28.7021C16.9476 28.7021 15.7096 29.2376 14.4506 29.8919C13.1917 30.5463 12.1245 31.0448 12.0794 30.9997C12.0341 30.9546 12.1726 29.9627 12.3871 28.7955C13.0116 25.3963 13.0803 25.633 10.7968 23.3126C8.5282 21.0073 8.4069 21.286 11.8933 20.791C14.526 20.4173 14.6418 20.3232 16.0914 17.3853C16.6747 16.2033 17.1935 15.278 17.2445 15.329C17.2955 15.38 17.8274 16.4084 18.4267 17.6145ZM85.759 20.195C85.987 20.3546 87.2902 20.6558 88.6551 20.8647C90.0201 21.0733 91.1767 21.2838 91.2253 21.3327C91.2739 21.3813 90.5422 22.1488 89.5989 23.0384C88.6557 23.9277 87.777 24.8407 87.6465 25.0673C87.3164 25.6402 87.3526 26.7181 87.7776 28.9952C87.9784 30.0695 88.1128 30.9786 88.0767 31.0151C88.0405 31.0519 86.9808 30.5463 85.7219 29.8919C84.4629 29.2376 83.2108 28.7021 82.9397 28.7021C82.6686 28.7021 81.4413 29.2348 80.2122 29.8859C78.9834 30.5369 77.9328 31.0247 77.8778 30.9696C77.8229 30.9147 77.9723 29.7742 78.21 28.4353C78.4567 27.0463 78.5814 25.8049 78.5003 25.5445C78.4222 25.2937 77.5228 24.236 76.502 23.1942C74.3779 21.0266 74.2611 21.2817 77.5935 20.8102C78.7023 20.6533 79.8235 20.3847 80.0853 20.2132C80.3644 20.0304 81.0549 18.9164 81.7564 17.517L82.9516 15.1325L84.1481 17.5187C84.8062 18.831 85.5311 20.0355 85.759 20.195ZM48.5275 37.9318C47.1068 38.6577 46.7466 39.3367 45.0292 44.5244C44.1578 47.1568 43.4448 49.4983 43.4448 49.7282C43.4448 50.859 44.9874 51.4725 45.7904 50.6613C45.9943 50.4554 46.8788 48.1772 47.7563 45.5988C48.6337 43.0203 49.4397 40.8009 49.5475 40.6665C50.1138 39.961 52.0752 41.0169 53.1794 42.6218C54.5933 44.677 54.654 45.9388 53.6066 51.5059C52.9735 54.8712 52.9497 55.148 53.1778 56.487C53.689 59.487 55.5707 62.1094 58.0802 63.3189C58.7867 63.6594 59.3878 63.9514 59.4159 63.9678C59.444 63.9842 59.2731 64.4288 59.0362 64.9556C58.719 65.6606 58.6031 66.3009 58.5971 67.3788C58.5881 69.0345 58.9883 70.1461 60.015 71.3152L60.6239 72.0087L60.1215 72.4773C59.3501 73.1969 58.6486 74.7498 58.5365 75.9871C58.3972 77.5238 58.7733 78.8913 59.6857 80.1653L60.4592 81.2457L59.8718 81.9792C58.132 84.1525 58.0892 87.1582 59.7669 89.3559L60.4584 90.2621L59.7761 91.0173C59.0694 91.7996 58.4857 93.3466 58.4857 94.4374C58.4857 94.7767 58.6166 95.486 58.7766 96.0134C58.9366 96.5408 59.0684 96.9944 59.0696 97.0211C59.0708 97.0479 58.3207 97.07 57.4026 97.07C55.8907 97.07 55.6881 97.1151 55.2539 97.5495C54.9902 97.8132 54.7743 98.2566 54.7743 98.535C54.7743 98.8133 54.9902 99.2567 55.2539 99.5205L55.7332 100L65.2649 99.9988C71.3133 99.9982 75.0659 99.923 75.5341 99.7929C76.5223 99.5185 77.6096 98.5303 78.0708 97.4876C78.3964 96.7516 78.439 96.27 78.3825 93.9573L78.3173 91.2794L79.059 90.6283C80.4087 89.443 80.6551 88.7193 80.6558 85.9358C80.656 84.5928 80.5894 83.2546 80.5076 82.9622C80.3738 82.4846 80.4337 82.3914 81.0936 82.0521C81.9617 81.6055 82.7215 80.8271 83.2134 79.8803C83.674 78.9937 83.8422 75.3804 83.4827 74.0966C83.1597 72.942 82.3105 71.7967 81.3817 71.2621L80.6316 70.8304L80.718 68.1267C80.8162 65.0459 80.6324 64.0827 79.7389 62.9988C79.417 62.6083 78.7886 62.0936 78.3423 61.8549C77.5482 61.4302 77.3482 61.4189 68.9362 61.3234L60.3414 61.2257L59.2946 60.6459C57.5745 59.6931 56.524 58.2267 56.1036 56.1915C55.9184 55.2943 55.979 54.7032 56.6033 51.3249C57.3862 47.087 57.4612 45.7587 57.0143 44.0429C56.3698 41.569 54.4757 39.1312 52.3861 38.0871C50.9156 37.3522 49.7532 37.3056 48.5275 37.9318ZM41.956 54.9648C41.7341 55.1202 41.3951 55.6695 41.2029 56.1856C40.1372 59.0477 38.0844 62.174 36.1574 63.8704L35.2594 64.6609L34.9348 64.0176C34.4798 63.1164 33.7137 62.3364 32.799 61.8426C32.086 61.4579 31.7273 61.421 28.6969 61.421C25.6422 61.421 25.3113 61.4556 24.5669 61.8539C23.5435 62.4012 22.478 63.6367 22.1846 64.6163C22.0297 65.1334 21.9578 67.7361 21.9578 72.8308V80.2888L22.4373 80.7681C23.0483 81.3793 23.7973 81.3793 24.4083 80.7681L24.8878 80.2888V72.8679V65.4473L25.3592 64.8992L25.8307 64.3511H28.6746C31.3734 64.3511 31.5412 64.3737 31.9633 64.7959L32.4083 65.2408L32.4606 80.581L32.513 95.921L31.9385 96.4955L31.364 97.07H28.6969H26.0298L25.4588 96.499L24.8878 95.928V91.0206V86.1133L24.4083 85.634C24.1446 85.3703 23.7012 85.1544 23.4228 85.1544C23.1445 85.1544 22.701 85.3703 22.4373 85.634L21.9578 86.1133V91.0319C21.9578 94.3225 22.0363 96.2163 22.1953 96.7543C22.5123 97.8273 24.1305 99.4454 25.2035 99.7625C26.2568 100.074 31.137 100.074 32.1903 99.7625C32.7003 99.6119 33.3674 99.154 34.0143 98.511L35.0344 97.497L36.5537 98.2607C39.1603 99.5707 41.6635 99.9957 46.788 99.9984C49.5794 99.9998 49.8819 99.9656 50.3529 99.5951C51.0497 99.0471 51.0645 98.0345 50.3839 97.4991C49.9503 97.1582 49.4791 97.1084 45.8424 97.0196C42.5959 96.9403 41.4854 96.8402 40.2893 96.5197C37.7115 95.8286 36.1394 94.8042 35.6438 93.4924C35.505 93.1247 35.436 88.8101 35.436 80.4796V68.0168L36.2662 67.4727C39.3168 65.4741 42.0224 61.9764 43.6368 57.9442C44.3447 56.1766 44.3693 55.6658 43.7741 55.1066C43.2514 54.6157 42.5343 54.5596 41.956 54.9648ZM77.3445 64.733C77.7959 65.1844 77.824 65.3391 77.824 67.3788C77.824 69.4185 77.7959 69.5732 77.3445 70.0246L76.8651 70.5042H70.4038C63.2471 70.5042 63.0304 70.4723 62.1258 69.2863C60.9499 67.7447 61.4445 65.5612 63.1664 64.6929C64.0175 64.2638 64.1888 64.2534 70.4515 64.2534H76.8651L77.3445 64.733ZM79.7596 73.7181C80.5754 74.14 80.8039 74.9067 80.725 76.9579C80.6607 78.6314 80.6222 78.7718 80.1083 79.2137L79.5602 79.685H71.5912C63.6258 79.685 63.6219 79.6848 62.9632 79.2408C61.5482 78.2874 61.0655 76.7991 61.6881 75.3095C61.9715 74.6313 62.9873 73.7384 63.6621 73.5745C63.877 73.5223 67.4634 73.4694 71.6319 73.4569C77.9098 73.4381 79.3051 73.4829 79.7596 73.7181ZM76.8296 82.8989C77.6453 83.3208 77.8739 84.0875 77.7949 86.1387C77.7307 87.8122 77.6922 87.9526 77.1783 88.3945L76.6301 88.8658H70.2864C63.2578 88.8658 63.0285 88.8316 62.1258 87.6479C60.9499 86.1063 61.4445 83.9228 63.1664 83.0546C64.0149 82.6266 64.1997 82.615 70.1594 82.615C75.1302 82.615 76.3838 82.6684 76.8296 82.8989ZM75.0893 92.1865C75.4251 92.5223 75.48 92.8376 75.48 94.4329C75.48 97.2477 75.9125 97.07 69.0628 97.07C63.5342 97.07 63.4143 97.0616 62.7632 96.6279C61.4128 95.7286 61.0935 94.0694 62.0391 92.8671C62.8241 91.8691 63.2095 91.8117 69.1804 91.8035C74.4437 91.7963 74.7166 91.8138 75.0893 92.1865Z" fill="#FFDE9F"/>
</g>
</svg>
