<svg width="100" height="100" viewBox="0 0 100 100" fill="none" xmlns="http://www.w3.org/2000/svg">
<path fill-rule="evenodd" clip-rule="evenodd" d="M89.3103 0.238579C88.5218 0.675604 88.326 1.28677 88.3184 3.33411C88.3117 5.16156 88.334 5.26183 88.8779 5.87046C89.6881 6.77734 90.844 6.77734 91.6541 5.87046C92.1941 5.26613 92.2205 5.15101 92.2205 3.39216C92.2205 2.37777 92.1154 1.31707 91.9869 1.03523C91.5591 0.0959011 90.2633 -0.289721 89.3103 0.238579ZM81.4923 8.05656C80.5674 8.56903 80.2592 9.69521 80.7721 10.6871C81.1802 11.4763 81.8578 11.6927 83.92 11.6927C85.6788 11.6927 85.7939 11.6663 86.3983 11.1263C86.9228 10.6576 87.0323 10.4184 87.0323 9.73821C87.0323 9.05804 86.9228 8.81881 86.3983 8.35012C85.7896 7.80619 85.6894 7.78391 83.8619 7.79055C82.6605 7.79505 81.7872 7.89297 81.4923 8.05656ZM94.1338 8.35012C93.6092 8.81881 93.4997 9.05804 93.4997 9.73821C93.4997 10.4184 93.6092 10.6576 94.1338 11.1263C94.7381 11.6663 94.8532 11.6927 96.6121 11.6927C98.6742 11.6927 99.3519 11.4763 99.76 10.6871C100.283 9.67527 99.9204 8.45078 98.969 8.01727C98.6872 7.88886 97.6264 7.78371 96.6121 7.78371C94.8532 7.78371 94.7381 7.8101 94.1338 8.35012ZM46.0944 10.7383C35.8883 11.7605 26.2977 16.8369 19.7365 24.6901C6.82825 40.1398 7.6507 62.8993 21.6423 77.4347C27.404 83.4203 35.0199 87.4253 43.4791 88.9183C47.1209 89.5611 52.9371 89.5613 56.551 88.9187C61.0442 88.1199 65.2848 86.6415 69.1426 84.5291C71.6461 83.1582 72.2847 82.5396 72.2847 81.485C72.2847 80.8826 72.1609 80.5451 71.8128 80.1968C71.0379 79.4218 70.3896 79.3714 69.2626 79.9982C64.5533 82.6182 61.0758 84.0047 57.2351 84.7943C44.8477 87.3406 31.6064 82.951 23.3895 73.5742C18.4028 67.8834 15.4751 61.1604 14.6384 53.4776C13.7933 45.7193 15.8817 37.1715 20.2392 30.5536C26.2229 21.4662 35.5236 15.8343 46.5266 14.6358C49.112 14.3541 51.2148 14.376 54.109 14.7149C67.8298 16.3211 79.2597 25.5679 83.6084 38.5795C84.6207 41.6086 85.1255 44.0904 85.4138 47.4584C86.013 54.4545 84.1699 62.2762 80.5086 68.2753C79.5134 69.9062 79.3334 70.7032 79.7997 71.415C80.2127 72.0453 81.197 72.4755 81.9127 72.3387C82.6136 72.2048 83.1714 71.5217 84.4776 69.198C86.5943 65.4327 88.1092 61.1193 88.9205 56.5484C89.5661 52.9112 89.5675 47.0976 88.9241 43.4765C87.6562 36.3422 84.7579 30.0665 80.2262 24.6426C71.9203 14.7016 59.015 9.44425 46.0944 10.7383ZM89.56 13.0495C89.3331 13.1453 88.9592 13.4629 88.7294 13.7551C88.3703 14.2115 88.3115 14.5429 88.3115 16.1075C88.3115 18.147 88.5296 18.825 89.3171 19.2322C90.3289 19.7554 91.5534 19.3926 91.9869 18.4412C92.1154 18.1593 92.2205 17.0986 92.2205 16.0843C92.2205 14.3453 92.1898 14.206 91.683 13.6497C91.1061 13.0167 90.2271 12.7681 89.56 13.0495ZM36.0773 37.9545C34.0589 38.7075 32.7495 40.5262 32.7198 42.6171C32.7077 43.4687 32.7814 43.6497 33.3445 44.1531C34.2166 44.9328 35.1661 44.9324 35.9461 44.1524C36.33 43.7685 36.5174 43.3837 36.5174 42.9797C36.5174 42.2499 37.1174 41.5965 37.7878 41.5965C38.4582 41.5965 39.0583 42.2499 39.0583 42.9797C39.0583 43.8406 39.9831 44.7237 40.8849 44.7237C41.7799 44.7237 42.7165 43.9466 42.8814 43.067C43.0519 42.1588 42.5236 40.482 41.7869 39.5929C40.828 38.4359 39.6405 37.8411 38.1152 37.7547C37.3006 37.7084 36.5352 37.7834 36.0773 37.9545ZM61.6235 37.9466C59.4429 38.7869 58.2123 40.5139 58.2123 42.734C58.2123 45.171 61.5721 45.4187 62.0181 43.0147C62.0931 42.6109 62.2925 42.1267 62.4614 41.9385C63.1224 41.2019 64.4667 41.7489 64.4667 42.7543C64.4667 43.4145 65.0548 44.2861 65.6734 44.5423C66.4405 44.8601 67.4983 44.6136 67.9764 44.006C68.8217 42.9314 68.2248 40.4769 66.7871 39.1156C65.4359 37.836 63.2154 37.3333 61.6235 37.9466ZM40.4907 56.931C39.6708 57.2875 39.4492 57.7562 39.4492 59.133C39.4492 62.7353 41.8997 66.6662 45.2356 68.4151C51.9567 71.9388 59.9016 68.1846 61.456 60.7505C61.6245 59.9443 61.7185 58.9461 61.6647 58.5326C61.4763 57.0829 60.193 56.3371 58.9235 56.9395C58.1619 57.3008 57.957 57.7336 57.675 59.5778C57.2888 62.1015 55.7776 64.1734 53.5676 65.2091C52.5841 65.67 52.2065 65.7343 50.492 65.7331C48.1252 65.7316 47.2161 65.3833 45.6066 63.8611C44.2844 62.6106 43.6087 61.2741 43.3806 59.4586C43.1731 57.8057 42.9502 57.3348 42.1894 56.9412C41.499 56.5843 41.2905 56.583 40.4907 56.931ZM75.2014 75.1987C73.4519 76.9484 75.8373 79.6333 77.7279 78.0425C78.4804 77.4093 78.6622 76.6073 78.25 75.7386C77.6671 74.5104 76.1571 74.243 75.2014 75.1987ZM8.78509 80.7638C7.99664 81.2008 7.8008 81.812 7.79318 83.8593C7.78653 85.6867 7.80882 85.787 8.35275 86.3956C8.82144 86.9202 9.06067 87.0297 9.74083 87.0297C10.421 87.0297 10.6602 86.9202 11.1289 86.3956C11.6689 85.7913 11.6953 85.6762 11.6953 83.9173C11.6953 82.903 11.5902 81.8423 11.4618 81.5604C11.0339 80.6211 9.7381 80.2355 8.78509 80.7638ZM0.967107 88.5817C0.0422402 89.0942 -0.265984 90.2204 0.246876 91.2123C0.654974 92.0015 1.3326 92.2179 3.39478 92.2179C5.15363 92.2179 5.26875 92.1915 5.87308 91.6515C6.77997 90.8413 6.77997 89.6854 5.87308 88.8753C5.26445 88.3314 5.16419 88.3091 3.33674 88.3157C2.13531 88.3202 1.26204 88.4181 0.967107 88.5817ZM13.6086 88.8753C13.084 89.344 12.9745 89.5832 12.9745 90.2634C12.9745 90.9436 13.084 91.1828 13.6086 91.6515C14.2129 92.1915 14.328 92.2179 16.0869 92.2179C18.1491 92.2179 18.8267 92.0015 19.2348 91.2123C19.5874 90.5306 19.5874 89.9962 19.2348 89.3145C18.8267 88.5253 18.1491 88.3089 16.0869 88.3089C14.328 88.3089 14.2129 88.3353 13.6086 88.8753ZM9.03487 93.5747C8.80795 93.6705 8.43406 93.9881 8.20421 94.2803C7.84517 94.7366 7.78634 95.0681 7.78634 96.6327C7.78634 98.6722 8.00446 99.3502 8.79193 99.7573C9.80377 100.281 11.0283 99.9178 11.4618 98.9664C11.5902 98.6845 11.6953 97.6238 11.6953 96.6094C11.6953 94.8705 11.6646 94.7312 11.1578 94.1749C10.5809 93.5419 9.70194 93.2932 9.03487 93.5747Z" fill="#FFDE9F"/>
</svg>
