<svg width="80" height="80" viewBox="0 0 80 80" fill="none" xmlns="http://www.w3.org/2000/svg">
<mask id="mask0_502_2645" style="mask-type:alpha" maskUnits="userSpaceOnUse" x="0" y="0" width="80" height="80">
<rect width="80" height="80" fill="white"/>
</mask>
<g mask="url(#mask0_502_2645)">
<path fill-rule="evenodd" clip-rule="evenodd" d="M42.6461 0.71068C42.2213 1.10803 41.6792 1.74086 41.4419 2.11665L41.0101 2.79995L39.9945 2.80261C35.6269 2.8137 32.0187 6.09831 31.6162 10.4292L31.518 11.4842L30.1702 12.0099C27.0084 13.2432 25.106 14.4229 22.9939 16.4603C20.7912 18.5852 19.4667 20.5366 18.2894 23.3917C17.6316 24.9869 17.0336 25.7449 15.603 26.7972C14.832 27.3643 14.3215 27.8574 14.2628 28.0916C14.0318 29.0118 14.8576 29.839 15.6909 29.5223C16.3261 29.2807 18.4494 27.6045 19.011 26.901C19.5992 26.1643 19.9337 25.5388 20.6909 23.7601C22.4239 19.6896 25.8724 16.3226 30.0969 14.577C31.0051 14.2016 31.8066 13.8946 31.8782 13.8946C31.9499 13.8946 32.2643 14.3815 32.577 14.9765C34.0162 17.7153 36.806 19.3947 39.9164 19.3947C43.0267 19.3947 45.8165 17.7153 47.2558 14.9765C47.5684 14.3815 47.8825 13.8946 47.9537 13.8946C48.2044 13.8946 51.1207 15.1601 51.9543 15.6306C52.8376 16.129 53.2325 16.1331 53.7839 15.6489C54.1572 15.321 54.1376 14.4437 53.7483 14.0543C53.3596 13.6657 51.4235 12.6969 49.6625 12.01L48.3147 11.4842L48.2166 10.4292C48.0992 9.16698 47.5726 7.64616 46.8781 6.56379C46.279 5.63033 44.8877 4.31811 44.0365 3.88388C43.7041 3.71419 43.4321 3.50356 43.4321 3.41575C43.4321 3.32777 43.7625 2.90261 44.1665 2.47088C45.0362 1.54117 45.1648 0.786463 44.5397 0.280357C43.9597 -0.189341 43.4955 -0.0838701 42.6461 0.71068ZM39.9228 5.49595C39.7664 6.00471 39.6234 9.73324 39.7421 10.2065C39.8001 10.4375 40.0512 10.7155 40.3343 10.8617C40.784 11.0944 40.8701 11.095 41.3436 10.869C41.9653 10.5726 41.9956 10.4534 42.0658 8.03507C42.0958 7.0038 42.1891 6.03784 42.2734 5.88862C42.4127 5.64174 42.4981 5.66533 43.2178 6.15003C44.2383 6.83723 44.7743 7.48194 45.3695 8.73822C45.7935 9.63339 45.8495 9.91137 45.8409 11.082C45.8282 12.8 45.4163 13.8915 44.3333 15.0765C41.9219 17.7148 37.9108 17.7148 35.4994 15.0765C34.4159 13.8908 34.005 12.8011 33.9901 11.0739C33.9795 9.83199 34.0203 9.65355 34.5681 8.54493C35.5674 6.52316 37.4647 5.22235 39.5049 5.16032C39.9809 5.14594 40.0206 5.17782 39.9228 5.49595ZM56.2263 17.0208C56.0872 17.102 55.8875 17.3759 55.7825 17.6294C55.5528 18.1838 55.6625 18.4256 56.7555 19.7732C57.764 21.0163 58.6029 22.4545 59.2945 24.1248C60.3751 26.7355 60.7694 27.1635 64.8749 30.1822C67.0195 31.7588 68.5524 33.0033 68.915 33.4621C70.1793 35.0615 70.4451 37.3759 69.5764 39.2232C68.4899 41.5345 66.4954 42.6453 63.4322 42.6453C61.9416 42.6453 60.9501 42.9881 60.0189 43.8253C59.4578 44.3298 59.1389 44.7806 58.9099 45.3922C58.6059 46.2047 58.5887 46.578 58.5887 52.3439C58.5887 59.1207 58.5848 59.1502 57.5701 59.9241C56.3891 60.8249 54.6545 60.3748 54.0012 58.998C53.78 58.5319 53.7447 57.7639 53.7439 53.4032C53.7434 50.2941 53.6787 48.1167 53.5759 47.7462C53.4839 47.4149 53.1271 46.8385 52.7831 46.4654C51.9735 45.5871 51.0807 45.2421 49.8485 45.3311C49.0016 45.3924 48.7725 45.4943 47.4967 46.3769C44.8215 48.2276 42.99 48.8173 39.9164 48.8173C36.7866 48.8173 34.7973 48.1526 32.1037 46.2071C30.3632 44.95 29.2909 44.3402 27.9028 43.8181C25.9391 43.0794 24.8596 42.9395 19.4471 42.7226C16.6111 42.6089 14.0778 42.4489 13.8176 42.367C12.2662 41.8792 10.9719 40.734 10.2541 39.2138C9.84439 38.3464 9.77767 38.0275 9.78017 36.9481C9.78439 35.1909 10.1949 34.2035 11.4871 32.8429C12.5727 31.6997 12.6809 31.3625 12.1699 30.713C11.9302 30.4083 11.704 30.3012 11.299 30.3012C10.8468 30.3012 10.5897 30.4559 9.81798 31.192C7.91075 33.0111 7.02276 35.8037 7.54418 38.343C7.68481 39.0277 7.97403 39.9397 8.18701 40.3701L8.5742 41.1524L7.99481 41.6254C5.54288 43.6273 4.49317 46.5958 5.23287 49.4358C5.75179 51.4281 7.19042 53.2776 8.94499 54.2077C9.65845 54.586 9.69563 54.6418 10.1419 56.0047C10.3952 56.7783 11.9135 61.4543 13.5162 66.3958C15.1187 71.3374 16.643 75.7828 16.9033 76.2747C17.788 77.9458 19.7592 79.4058 21.6814 79.8141C22.8441 80.061 56.9794 80.0624 58.1513 79.8155C60.0772 79.4101 62.0369 77.9603 62.9236 76.2855C63.4844 75.2262 66.0889 67.321 66.0889 66.6782C66.0889 65.7707 64.9488 65.2832 64.2408 65.888C64.024 66.0733 63.463 67.5781 62.4999 70.5589C60.9844 75.2495 60.694 75.8447 59.5001 76.7095C58.5049 77.4305 57.5485 77.6461 55.3466 77.6461C53.5764 77.6461 53.4182 77.6228 53.4931 77.3727C53.5381 77.2222 54.1408 74.0406 54.8322 70.3022C55.5238 66.5638 56.1239 63.3548 56.1658 63.1712C56.2207 62.9308 56.4063 62.8072 56.8294 62.7292C58.3807 62.4436 59.6925 61.4748 60.4333 60.0676C60.805 59.3616 60.8503 59.0866 60.9039 57.2159L60.9631 55.1456H64.2458C67.1123 55.1456 67.517 55.1756 67.4378 55.382C67.388 55.512 66.8787 57.0739 66.3062 58.853C65.3467 61.8348 65.2826 62.1182 65.4867 62.4817C65.7698 62.9862 66.419 63.2223 66.9873 63.0275C67.3873 62.8903 67.51 62.5989 68.7594 58.8175L70.1016 54.7549L71.0251 54.2376C75.0095 52.0053 76.1825 46.9857 73.5851 43.2828C72.9959 42.4428 71.6998 41.239 71.3845 41.239C71.3174 41.239 71.4385 40.8548 71.6535 40.3851C72.3207 38.9277 72.5745 37.3091 72.3642 35.8525C72.1371 34.2791 71.3634 32.6124 70.3641 31.5442C69.9555 31.1073 68.2273 29.73 66.5239 28.4835C64.8205 27.2371 63.191 25.9744 62.9027 25.6775C62.3606 25.1194 62.3069 25.022 60.8778 22.0117C59.9937 20.1497 58.5621 18.0445 57.6683 17.2925C57.1438 16.8512 56.6694 16.7617 56.2263 17.0208ZM49.526 20.926C49.2692 21.1827 49.2135 21.4468 49.2135 22.4043C49.2135 23.4025 49.2627 23.6159 49.5555 23.8887C50.2261 24.5136 51.2548 24.1414 51.4943 23.1872C51.6573 22.5378 51.4719 21.2634 51.1652 20.9244C50.7929 20.513 49.9382 20.5138 49.526 20.926ZM39.0806 25.5922C38.8527 25.8382 38.4637 26.4436 38.216 26.9377C37.7805 27.8063 37.7738 27.8532 38.0162 28.3613C38.319 28.9965 38.926 29.2045 39.5138 28.8745C39.9867 28.6092 41.0883 26.7877 41.0883 26.2713C41.0883 25.7849 40.4176 25.1449 39.9081 25.1449C39.654 25.1449 39.3353 25.3172 39.0806 25.5922ZM27.9925 26.401C27.6078 26.7593 27.5308 27.5918 27.8458 27.9854C28.3187 28.5763 29.8774 29.6762 30.2418 29.6762C30.7449 29.6762 31.4005 29.0221 31.4005 28.5201C31.4005 28.0723 31.0182 27.6062 29.9189 26.7141C29.0452 26.005 28.5108 25.9182 27.9925 26.401ZM46.0313 27.0313C45.7312 27.2674 45.6196 27.4987 45.6196 27.8849C45.6196 28.3182 45.7942 28.6013 46.577 29.4381C47.8642 30.8142 48.6281 30.9697 49.1494 29.9615C49.4761 29.3298 49.2985 28.9307 48.1359 27.684C47.1286 26.6036 46.7315 26.4805 46.0313 27.0313ZM55.943 31.125C55.3952 31.4017 54.5395 32.9104 54.5322 33.6127C54.523 34.4884 55.4169 34.9632 56.2428 34.5212C56.6588 34.2985 57.4949 32.6783 57.4949 32.0946C57.4949 31.2914 56.6539 30.7659 55.943 31.125ZM22.3673 33.5887C21.9058 34.0187 21.9105 34.8302 22.3769 35.2529C22.9663 35.787 24.1382 36.3951 24.5782 36.3951C25.5296 36.3951 25.991 35.0679 25.2676 34.4123C24.6937 33.8921 23.5108 33.2701 23.0958 33.2701C22.8831 33.2701 22.5553 33.4135 22.3673 33.5887ZM34.873 33.7752C34.3369 34.0335 33.2479 35.7421 33.3631 36.1445C33.4934 36.6001 34.1631 37.1764 34.5625 37.1764C34.9501 37.1764 36.1167 35.9867 36.4003 35.302C36.6627 34.6685 36.4863 34.1037 35.9374 33.8198C35.4088 33.5465 35.3525 33.5441 34.873 33.7752ZM44.0843 36.1317C43.6036 36.6434 43.6355 37.3805 44.1563 37.79C44.5066 38.0656 44.7874 38.1139 46.0384 38.1139C47.3912 38.1139 47.5395 38.0833 47.8923 37.7303C48.1033 37.5194 48.2759 37.1647 48.2759 36.942C48.2759 36.7194 48.1033 36.3647 47.8923 36.1537C47.537 35.7982 47.3958 35.7701 45.9665 35.7701C44.5563 35.7701 44.3949 35.8011 44.0843 36.1317ZM70.4863 43.4701C73.6576 45.8889 73.2558 50.467 69.7193 52.2093L68.675 52.7236L64.8038 52.7725L60.9325 52.8216L60.9331 49.6475C60.9336 46.7751 60.9626 46.426 61.2387 45.9733C61.692 45.2296 62.2172 45.0424 64.1357 44.9406C65.081 44.8903 66.2412 44.7336 66.7139 44.592C67.6428 44.3141 69.0586 43.5676 69.371 43.1912C69.6397 42.8675 69.7238 42.8886 70.4863 43.4701ZM11.113 43.6653C12.7143 44.7236 13.3749 44.8374 19.2909 45.0746C22.2128 45.1916 24.7793 45.3324 24.9941 45.3872C27.2236 45.9569 28.9328 46.761 30.6193 48.0335C32.0995 49.1504 34.5464 50.3656 36.1663 50.7881C38.0499 51.2795 40.9136 51.3547 42.8078 50.9624C45.1143 50.4847 47.2353 49.5329 49.0406 48.1654C49.8724 47.5354 50.4819 47.4934 51.0174 48.029C51.3884 48.3998 51.401 48.4853 51.401 50.6094V52.8065L31.3582 52.7651L11.3152 52.7236L10.2705 52.2093C9.13218 51.6488 8.35388 50.8641 7.77981 49.6979C7.4948 49.1189 7.42246 48.7071 7.41949 47.6454C7.41605 46.5024 7.47652 46.193 7.85309 45.4261C8.28498 44.5469 9.66189 43.114 10.0752 43.114C10.1872 43.114 10.6543 43.362 11.113 43.6653ZM22.3247 55.9659C22.4155 56.417 23.3375 61.3567 24.3735 66.9427C25.4094 72.5288 26.294 77.2224 26.3393 77.3727C26.4145 77.6228 26.2565 77.6461 24.4861 77.6461C22.2425 77.6461 21.2725 77.4189 20.2784 76.6606C19.9115 76.3808 19.4146 75.872 19.1741 75.5298C18.869 75.0957 17.7947 72.0055 15.6178 65.3002C13.9023 60.0159 12.4577 55.5693 12.4076 55.419C12.3221 55.1625 12.6204 55.1456 17.238 55.1456H22.1594L22.3247 55.9659ZM32.5609 55.4971C32.6354 55.8587 34.0667 76.6639 34.0604 77.2945C34.0568 77.6452 34.0497 77.6461 31.4116 77.6461H28.7664L28.6022 76.8258C28.5117 76.3747 27.5922 71.435 26.5584 65.849C25.5248 60.2629 24.6512 55.5693 24.6168 55.419C24.5588 55.1642 24.824 55.1456 28.5216 55.1456H32.4884L32.5609 55.4971ZM44.4254 62.2942C44.1508 66.226 43.8018 71.2886 43.6496 73.5445L43.373 77.6461H39.9164H36.4597L36.1831 73.5445C36.031 71.2886 35.6819 66.226 35.4073 62.2942L34.9083 55.1456H39.9164H44.9244L44.4254 62.2942ZM51.4307 57.1378C51.5063 59.6047 51.7982 60.3884 53.0771 61.5573L53.9309 62.3375L52.5751 69.6403C51.8295 73.6568 51.1823 77.1011 51.1369 77.2945C51.0555 77.6421 51.0238 77.6461 48.4153 77.6461C45.7834 77.6461 45.7759 77.6452 45.7723 77.2945C45.766 76.6639 47.1973 55.8587 47.2718 55.4971C47.3425 55.1545 47.3954 55.1456 49.3571 55.1456H51.3696L51.4307 57.1378Z" fill="#99A9AD"/>
</g>
</svg>
