<svg width="80" height="80" viewBox="0 0 80 80" fill="none" xmlns="http://www.w3.org/2000/svg">
<mask id="mask0_502_2641" style="mask-type:alpha" maskUnits="userSpaceOnUse" x="0" y="0" width="80" height="80">
<rect width="80" height="80" fill="white"/>
</mask>
<g mask="url(#mask0_502_2641)">
<path fill-rule="evenodd" clip-rule="evenodd" d="M25.7419 4.28615C25.2647 4.8134 25.414 5.51368 26.1922 6.39983C27.7384 8.16024 28.1191 9.96102 27.3077 11.6762C27.0851 12.1468 26.3325 13.1644 25.6355 13.9374C22.9525 16.913 22.4012 19.4917 23.8285 22.3874C24.1265 22.9921 24.7472 23.9014 25.2078 24.4084C25.8956 25.1651 26.1345 25.3297 26.5444 25.3297C27.2256 25.3297 27.6733 24.8907 27.6733 24.2225C27.6733 23.8082 27.5109 23.5006 26.9638 22.8778C25.9048 21.6725 25.4439 20.6294 25.4439 19.4383C25.4439 18.0999 25.9794 17.0494 27.5502 15.3076C30.2008 12.368 30.7498 9.77014 29.3283 6.89438C29.0306 6.29204 28.4252 5.39447 27.9829 4.8996C27.2737 4.10608 27.1095 4 26.5899 4C26.2178 4 25.9054 4.10545 25.7419 4.28615ZM39.8227 4.28615C39.3455 4.8134 39.4948 5.51368 40.2729 6.39983C41.8192 8.16024 42.1998 9.96102 41.3885 11.6762C41.1658 12.1468 40.4133 13.1644 39.7163 13.9374C37.0333 16.913 36.4819 19.4917 37.9093 22.3874C38.2073 22.9921 38.828 23.9014 39.2886 24.4084C39.9763 25.1651 40.2152 25.3297 40.6251 25.3297C41.3063 25.3297 41.7541 24.8907 41.7541 24.2225C41.7541 23.8082 41.5917 23.5006 41.0446 22.8778C39.9855 21.6725 39.5246 20.6294 39.5246 19.4383C39.5246 18.0999 40.0602 17.0494 41.631 15.3076C44.2816 12.368 44.8306 9.77014 43.4091 6.89438C43.1113 6.29204 42.506 5.39447 42.0637 4.8996C41.3545 4.10608 41.1902 4 40.6707 4C40.2986 4 39.9862 4.10545 39.8227 4.28615ZM53.9034 4.28615C53.4263 4.8134 53.5755 5.51368 54.3537 6.39983C55.8999 8.16024 56.2806 9.96102 55.4692 11.6762C55.2466 12.1468 54.4941 13.1644 53.7971 13.9374C51.114 16.913 50.5627 19.4917 51.99 22.3874C52.2881 22.9921 52.9087 23.9014 53.3693 24.4084C54.0571 25.1651 54.296 25.3297 54.7059 25.3297C55.3871 25.3297 55.8349 24.8907 55.8349 24.2225C55.8349 23.8082 55.6725 23.5006 55.1253 22.8778C54.0663 21.6725 53.6054 20.6294 53.6054 19.4383C53.6054 18.0999 54.1409 17.0494 55.7117 15.3076C58.3624 12.368 58.9114 9.77014 57.4898 6.89438C57.1921 6.29204 56.5868 5.39447 56.1445 4.8996C55.4353 4.10608 55.271 4 54.7514 4C54.3794 4 54.0669 4.10545 53.9034 4.28615ZM33.0409 25.2826C32.3664 25.5475 32.1668 26.0976 32.2918 27.3478C32.5109 29.5388 33.1221 31.1418 34.1885 32.3221C34.5729 32.7476 34.681 32.9601 34.5349 33.0026C34.4182 33.0367 33.5833 33.2544 32.6798 33.4862C28.5665 34.5421 24.7071 36.6344 21.0838 39.7728C19.2998 41.3179 17.8819 42.8648 16.1732 45.1298C15.0667 46.5967 14.8043 46.849 13.9195 47.2984C12.9281 47.8018 12.896 47.8068 10.6752 47.8068H8.43227L7.73449 47.2743C5.27692 45.3982 2.87803 45.3147 1.3171 47.0509C0.478667 47.9835 0.150273 48.9198 0.0258924 50.7338C-0.187666 53.8473 0.928939 56.0417 3.03839 56.655C4.40251 57.0516 5.70216 56.7065 7.5214 55.4647C8.37391 54.8827 8.49282 54.8472 9.58407 54.8472H10.7421L10.2277 56.2162C9.94485 56.9692 9.48614 58.5004 9.20843 59.619C8.93073 60.7377 8.68776 61.6715 8.66851 61.6944C8.64927 61.7172 8.21793 61.8432 7.71008 61.9743C4.79286 62.7273 2.45091 64.853 1.81916 67.3212C1.67381 67.8896 1.4346 68.2901 0.973215 68.7379C0.199555 69.4887 -0.0889441 70.2689 0.0315247 71.2856C0.206126 72.7595 1.09603 74.0036 2.45248 74.6697L3.34489 75.1079L14.9224 75.1553C21.29 75.1814 26.7327 75.16 27.0172 75.1076C28.0023 74.9259 28.4633 73.9636 27.9207 73.2212C27.7052 72.9265 27.3498 72.9152 15.7565 72.8393C4.25497 72.7639 3.79563 72.7498 3.30828 72.4551C2.7707 72.1298 2.27334 71.2829 2.35892 70.8383C2.40742 70.5867 4.65815 70.5707 40.0331 70.5707C75.4081 70.5707 77.6588 70.5867 77.7073 70.8383C77.794 71.2887 77.2542 72.2123 76.7393 72.4942C76.2873 72.7417 74.6145 72.7641 53.6933 72.8022L31.1347 72.8434L30.8121 73.2536C30.3915 73.7882 30.405 74.1316 30.8672 74.6689L31.2447 75.1079H53.9831H76.7213L77.6137 74.6697C79.147 73.9168 79.9881 72.6059 79.9997 70.9511C80.0056 70.0931 79.938 69.8193 79.5905 69.2936C78.9772 68.366 78.3822 68.1457 76.4892 68.1457C75.6129 68.1457 74.9229 68.0928 74.9558 68.0284C75.9941 65.9859 75.94 66.2494 75.9275 63.2957C75.9212 61.7898 75.8305 59.8889 75.726 59.0715C73.9235 44.9725 65.9505 36.3995 51.9407 33.4961C50.1259 33.12 49.8643 33.1245 49.3812 33.5394C49.0168 33.8525 49.0168 34.8496 49.3812 35.1697C49.5317 35.3019 50.5702 35.6021 51.6889 35.8368C60.7569 37.7396 67.4075 42.5469 70.7042 49.5818C71.8871 52.106 72.9528 55.824 73.2898 58.6021L73.3942 59.4626L69.8088 55.9033C67.2404 53.3536 66.1223 52.344 65.8671 52.344C65.6712 52.344 65.2979 52.5569 65.0376 52.8172C64.6557 53.1991 64.5845 53.3728 64.669 53.7168C64.7359 53.9895 66.311 55.6943 69.0379 58.4456C73.5794 63.028 73.6705 63.1499 73.6705 64.6548C73.6705 65.5423 72.9499 66.8741 72.1842 67.4013C71.84 67.6383 71.169 67.9035 70.693 67.9907C70.1678 68.0867 67.0028 68.1329 62.6428 68.1082L55.4578 68.0675L55.2677 67.1288C54.8018 64.8278 53.8809 63.3299 52.2637 62.2429C51.113 61.4694 50.1681 61.1537 48.2952 60.9165C47.0918 60.7641 46.8887 60.7751 46.5281 61.0113C45.8599 61.4491 45.7569 61.8641 45.9484 63.3475C46.1501 64.9103 46.5705 66.1794 47.2235 67.197C47.4853 67.6047 47.6993 67.985 47.6993 68.0422C47.6993 68.0991 46.6598 68.1457 45.3894 68.1457H43.0796L41.0244 66.0727C39.894 64.9325 38.8566 63.7744 38.7189 63.4991C38.5812 63.2236 38.4686 62.6782 38.4686 62.287C38.4686 61.6891 38.559 61.4755 39.0354 60.9481C39.7249 60.1849 41.1076 59.5028 42.8648 59.0588C44.5335 58.6373 49.04 58.4768 51.6471 58.746C54.1408 59.0036 56.9998 59.6071 59.2768 60.3569L61.2325 61.0007L62.797 62.5292C63.6575 63.3698 64.5405 64.1254 64.7594 64.2081C65.2363 64.3883 66.0603 64.0959 66.2155 63.6913C66.5078 62.93 66.3375 62.6641 64.077 60.3489C61.6052 57.8173 61.12 57.181 60.2107 55.2789C59.4661 53.7217 58.9958 51.9525 58.8614 50.2049C58.7188 48.3485 58.9124 48.3324 60.6733 50.0554C61.8117 51.1693 62.1382 51.4053 62.5422 51.4053C63.1753 51.4053 63.6575 50.9226 63.6575 50.289C63.6575 49.8816 63.4156 49.5521 62.2282 48.3411C60.6583 46.7403 60.1101 46.3988 59.1105 46.3988C57.5565 46.3988 56.46 47.6656 56.4613 49.4599C56.4627 51.613 57.3019 54.9394 58.3162 56.8118C58.5698 57.2802 58.743 57.6634 58.7011 57.6634C58.6592 57.6634 58.0811 57.5244 57.4163 57.3549C54.2558 56.5479 52.3661 56.3409 48.1687 56.3421C45.1192 56.3431 43.9286 56.4006 43.116 56.587C42.1458 56.8095 42.062 56.809 42.1579 56.5821C42.8863 54.8586 43.0641 53.9446 43.0739 51.8746C43.0824 50.0798 43.0289 49.5863 42.7175 48.5891C41.4223 44.4406 38.3439 41.4993 34.0097 40.2681C32.9472 39.9665 32.3797 39.9122 30.2548 39.9094C27.3995 39.9055 26.1712 40.1539 23.7227 41.2303C22.9697 41.5614 22.3924 41.7696 22.4397 41.693C22.4871 41.6163 23.119 41.0905 23.844 40.5243C27.3406 37.794 31.3795 35.9709 35.6114 35.2127C36.3654 35.0775 38.2391 34.8992 39.7751 34.8161C41.3112 34.7332 42.9959 34.5543 43.5187 34.4188C46.8588 33.5533 48.6604 31.2222 49.029 27.2891C49.1329 26.18 49.1169 26.0885 48.745 25.6567C48.3683 25.2194 48.3007 25.2013 47.2038 25.241C45.8322 25.2909 44.4732 25.6123 43.3693 26.148C42.5551 26.543 41.1622 27.7458 40.8442 28.3284C40.6777 28.6337 40.6669 28.6318 40.405 28.2502C39.8832 27.49 38.809 26.5658 37.979 26.1628C36.5389 25.4638 33.8158 24.9785 33.0409 25.2826ZM36.8471 28.2582C38.1652 28.8945 39.037 30.1181 39.3385 31.7548L39.451 32.3649L38.7831 32.2582C37.8279 32.1054 36.4927 31.4084 35.932 30.7699C35.3506 30.1076 34.9223 29.1783 34.7755 28.2609L34.6668 27.5807L35.2769 27.6876C35.6125 27.7464 36.3191 28.0032 36.8471 28.2582ZM46.5389 28.2828C46.2061 30.3633 44.6363 31.9222 42.5351 32.2581L41.8669 32.3649L41.9716 31.7548C42.0291 31.4192 42.3036 30.687 42.5814 30.1276C43.144 28.9949 44.0248 28.2718 45.3322 27.8692C46.5658 27.4894 46.6605 27.5218 46.5389 28.2828ZM33.6968 42.6436C35.8597 43.3326 37.5985 44.4741 38.7407 45.9551C41.7223 49.8207 41.4623 54.7493 38.0829 58.4192C37.4596 59.0962 36.829 59.8542 36.6816 60.1039L36.4134 60.5578L33.7252 60.5682C31.2599 60.5778 30.9214 60.6139 29.6413 61.0055C27.04 61.8011 25.2999 62.836 23.414 64.7092L22.2054 65.9094L21.7424 64.9197C20.6203 62.522 18.485 61.2028 15.1934 60.8738C14.2634 60.7809 13.9843 60.8073 13.6609 61.0191C13.0977 61.3882 13.0009 61.7951 13.1315 63.2455C13.2754 64.8443 13.7578 66.3184 14.4601 67.3062C14.7577 67.7249 14.9351 68.0894 14.8543 68.1163C14.4732 68.2434 12.8252 67.7887 12.2627 67.4013C11.4175 66.8193 10.7764 65.5513 10.7764 64.4616C10.7764 63.383 11.16 61.1992 11.6541 59.4656C12.2863 57.2464 13.1614 55.0037 13.395 55.0037C13.905 55.0037 14.9138 55.736 16.9233 57.5653C19.1014 59.548 21.0674 60.9871 22.4082 61.5802C23.0423 61.8607 23.1947 61.8765 23.5621 61.7C23.7949 61.588 24.0862 61.3164 24.2096 61.0964C24.574 60.4464 24.1966 59.8919 22.9121 59.1897C21.4875 58.4109 20.5474 57.6892 18.2993 55.6478C14.9656 52.6206 14.6663 52.5004 10.4624 52.5004H7.54565L6.67123 53.1794C6.1903 53.5529 5.42931 54.0165 4.98029 54.2097C4.24011 54.5281 4.11072 54.541 3.59787 54.3491C2.69623 54.0114 2.40617 53.2569 2.40617 51.2488C2.40617 49.8745 2.45858 49.5169 2.7269 49.06C3.46535 47.8029 4.3296 47.8442 6.38774 49.2348L7.78471 50.1788L10.6495 50.1211C14.038 50.0527 14.408 49.9457 16.7257 48.3629C23.4985 43.7375 24.9737 42.9374 27.8406 42.3352C29.0891 42.0728 32.4628 42.2506 33.6968 42.6436ZM35.5351 62.9268C35.8579 62.9801 36.1218 63.0823 36.1218 63.1538C36.1218 63.2254 36.2728 63.6874 36.4574 64.1807C36.7187 64.8791 37.0991 65.394 38.1784 66.5095C38.9403 67.2973 39.5638 67.9877 39.5638 68.0437C39.5638 68.0999 35.9707 68.1457 31.5792 68.1457H23.5946L23.782 67.7953C24.11 67.1828 26.3338 65.1146 27.2504 64.57C28.4465 63.8592 29.8419 63.3119 31.0928 63.0627C32.2076 62.8407 34.5759 62.7681 35.5351 62.9268ZM17.4269 63.7496C18.8057 64.3594 19.8483 65.7675 20.1037 67.3647L20.2105 68.0329L19.6004 67.9222C18.6666 67.7526 17.4823 67.1613 16.8901 66.5691C16.2979 65.977 15.7067 64.7926 15.5371 63.8589L15.4263 63.2487L16.1064 63.3575C16.4805 63.4172 17.0747 63.5937 17.4269 63.7496ZM50.0614 63.672C51.1521 64.1302 51.8788 64.8086 52.3716 65.8285C52.6338 66.3715 52.8965 67.0895 52.955 67.424L53.0616 68.0321L52.4534 67.9256C51.3159 67.7264 49.9003 66.918 49.3657 66.1625C48.8369 65.4152 48.3569 64.2324 48.3373 63.6277C48.3261 63.2824 48.3685 63.2627 48.9271 63.352C49.2582 63.4049 49.7687 63.5488 50.0614 63.672ZM8.47044 65.1639C8.54132 65.9462 8.79618 66.6613 9.49114 68.0284C9.524 68.093 8.31289 68.1457 6.79984 68.1457C5 68.1457 4.04892 68.0896 4.04892 67.983C4.04892 67.6803 4.6738 66.5931 5.17758 66.0194C5.89397 65.2035 7.45021 64.2937 8.21229 64.2454C8.31289 64.2391 8.42163 64.6265 8.47044 65.1639Z" fill="#99A9AD"/>
</g>
</svg>
