<svg width="80" height="80" viewBox="0 0 80 80" fill="none" xmlns="http://www.w3.org/2000/svg">
<mask id="mask0_502_2629" style="mask-type:alpha" maskUnits="userSpaceOnUse" x="0" y="0" width="80" height="80">
<rect width="80" height="80" fill="white"/>
</mask>
<g mask="url(#mask0_502_2629)">
<path fill-rule="evenodd" clip-rule="evenodd" d="M33.4092 0.409167C33.1512 0.667 33 1.00867 33 1.33333C33 2.18433 33.6303 2.66667 34.7425 2.66667H35.6667V3.97533V5.28417L34.0417 5.397C28.866 5.75633 24.4063 7.252 20.1667 10.0503C12.457 15.1392 7.67717 24.027 7.668 33.2917L7.66667 34.6667H4.7425C1.85983 34.6667 1.81233 34.6725 1.40917 35.0758C1.0235 35.4613 1 35.592 1 37.3482C1 38.3728 1.09117 39.52 1.20267 39.8973C1.47317 40.8128 2.85383 42.1935 3.76933 42.464C4.2185 42.5967 5.7455 42.6667 8.19283 42.6667H11.9303L11.9275 43.875C11.9253 44.809 12.0095 45.2437 12.298 45.7895C12.815 46.7677 22.4148 55.5373 32.9622 64.6667C41.2143 71.8095 41.3302 71.9183 40.7982 72.0283C39.7395 72.2472 39.6667 72.5043 39.6667 76.026C39.6667 79.1543 39.6702 79.1853 40.0758 79.5908L40.4848 80H49H57.5152L57.9242 79.5908C58.33 79.1852 58.3333 79.156 58.3333 76C58.3333 72.844 58.33 72.8148 57.9242 72.4092C57.6992 72.1842 57.3992 72 57.2575 72C57.0533 72 57 71.7892 57 70.9828C57 70.0063 57.031 69.9313 57.7755 69.1078C58.202 68.636 58.7832 67.7625 59.0672 67.1667L59.5833 66.0833L59.6355 61.1667L59.6875 56.25L62.2822 50.5287L64.8768 44.8072L64.791 43.737L64.705 42.6667H69.8228C75.8038 42.6667 76.0612 42.6203 77.2165 41.3353C78.1438 40.304 78.3333 39.6272 78.3333 37.3482C78.3333 35.592 78.3098 35.4613 77.9242 35.0758C77.5213 34.6728 77.4718 34.6667 74.6165 34.6667H71.7178L71.6132 32.375C71.5557 31.1147 71.4283 29.5958 71.3303 29C69.6353 18.6995 62.4725 10.1768 52.7103 6.84517C50.5095 6.094 48.5823 5.7005 45.9583 5.46633L43.6667 5.262V3.96433V2.66667H44.5908C45.703 2.66667 46.3333 2.18433 46.3333 1.33333C46.3333 1.00867 46.1822 0.667 45.9242 0.409167L45.5152 0H39.6667H33.8182L33.4092 0.409167ZM41 4V5.33333H39.6667H38.3333V4V2.66667H39.6667H41V4ZM48.8333 8.53767C53.515 9.563 57.5467 11.6782 60.9397 14.8892C65.9637 19.644 68.6435 25.5202 68.9518 32.4583L69.05 34.6667H39.666H10.2822L10.3902 32.375C10.5132 29.7653 10.906 27.5815 11.6602 25.3163C14.5532 16.6262 22.1703 10.0323 31.1667 8.4305C33.379 8.03667 33.377 8.03667 40.3333 8.0785C46.6725 8.1165 46.9878 8.1335 48.8333 8.53767ZM75.6667 38.2575C75.6667 39.0167 75.5935 39.255 75.2575 39.5908L74.8485 40H39.6667H4.48483L4.07583 39.5908C3.73983 39.255 3.66667 39.0167 3.66667 38.2575V37.3333H39.6667H75.6667V38.2575ZM17.404 43.0417C17.6537 43.2633 18.475 44.8432 19.4132 46.907C20.286 48.8267 21 50.4248 21 50.4583C21 50.6298 14.8842 44.8927 14.6943 44.5432C14.4297 44.0555 14.5512 43.4488 15.0042 42.9958C15.487 42.513 16.8373 42.5387 17.404 43.0417ZM24.079 42.8928C24.2492 43.0173 25.5197 45.3607 26.9025 48.1003L29.4167 53.0817L36.4887 55.9035L43.5608 58.7253L46.4887 58.0063C48.0992 57.611 49.5402 57.2243 49.6912 57.147C49.8422 57.0698 51.6288 53.9488 53.6613 50.2117C55.6938 46.4743 57.5432 43.248 57.771 43.0417C58.1393 42.7082 58.3605 42.6667 59.7668 42.6667C61.2238 42.6667 61.3807 42.6988 61.7575 43.0758C61.9825 43.3008 62.1667 43.679 62.1667 43.9162C62.1667 44.1535 61.0042 46.9055 59.5833 50.032L57 55.7165L56.9963 60.4832C56.992 66.0312 56.9907 66.0372 55.3255 67.7712L54.3333 68.8045V70.4022V72H49.9165H45.4997L35.7883 63.5832L26.0772 55.1665L23.622 49.7535C22.2715 46.7765 21.1667 44.1482 21.1667 43.9128C21.1667 43.6773 21.3508 43.3008 21.5758 43.0758C21.9082 42.7433 22.152 42.6667 22.8772 42.6667C23.368 42.6667 23.9088 42.7685 24.079 42.8928ZM54.6667 42.7522C54.6667 42.863 48.319 54.5392 48.1587 54.7233C48.0917 54.8003 47.0728 55.1048 45.8948 55.4L43.753 55.9368L37.533 53.4468L31.313 50.9568L29.2392 46.8117L27.1653 42.6667H40.916C48.4788 42.6667 54.6667 42.7052 54.6667 42.7522ZM55.6667 76V77.3333H49H42.3333V76V74.6667H49H55.6667V76Z" fill="#99A9AD"/>
</g>
</svg>
