<svg width="80" height="80" viewBox="0 0 80 80" fill="none" xmlns="http://www.w3.org/2000/svg">
<mask id="mask0_502_2633" style="mask-type:alpha" maskUnits="userSpaceOnUse" x="0" y="0" width="80" height="80">
<rect width="80" height="80" fill="white"/>
</mask>
<g mask="url(#mask0_502_2633)">
<path fill-rule="evenodd" clip-rule="evenodd" d="M49.7801 11.3611C49.3234 11.8176 48.8124 13.17 48.6721 14.2927C48.5271 15.4533 48.7816 16.7078 49.472 18.2373C50.1968 19.8427 50.2535 21.0195 49.6816 22.6047L49.3033 23.6537L49.6278 24.0903C50.1194 24.7515 50.9259 24.7719 51.4604 24.1366C52.2367 23.2143 52.6763 20.9196 52.3597 19.4435C52.2605 18.9809 51.9235 18.0355 51.6107 17.3429C50.9057 15.7817 50.8293 14.3755 51.3816 13.1298C51.8018 12.182 51.8039 11.9304 51.3955 11.4115C50.9797 10.8827 50.28 10.861 49.7801 11.3611ZM40.0574 14.3487C39.4806 14.5999 38.9425 15.7255 38.6874 17.214C38.4637 18.5211 38.6949 19.8194 39.4492 21.4899C40.1812 23.1112 40.248 24.3735 39.6764 25.7818C39.2573 26.8146 39.3519 27.3469 40.0213 27.7227C40.9935 28.2685 41.8441 27.3053 42.2807 25.1639C42.5907 23.644 42.4091 22.4137 41.6162 20.6616C41.1056 19.5331 41.0301 19.2148 41.0309 18.1932C41.0315 17.329 41.1211 16.8195 41.3713 16.2576C41.8108 15.2708 41.8011 15.1314 41.2539 14.5842C40.7361 14.0664 40.7151 14.0622 40.0574 14.3487ZM60.321 14.2391C58.9973 14.7142 58.2596 18.0222 58.9861 20.2262C59.142 20.6993 59.4461 21.4382 59.6621 21.8682C60.209 22.9575 60.2239 24.4553 59.702 25.8758C59.3409 26.8581 59.3346 26.9325 59.5813 27.3088C59.8848 27.772 60.6331 27.9842 61.094 27.7376C61.5708 27.4824 62.1707 26.1753 62.3853 24.9243C62.631 23.4914 62.4239 22.2525 61.6537 20.5466C60.9456 18.9784 60.8627 17.6084 61.4019 16.3896C61.5814 15.9834 61.7285 15.4921 61.7285 15.2975C61.7285 14.6368 60.9157 14.0256 60.321 14.2391ZM35.1351 31.0711C33.6238 31.4836 32.5063 32.5949 32.1801 34.0093C32.0936 34.3848 32.021 35.7334 32.0188 37.0066L32.0151 39.3213L31.5068 38.9398C30.6931 38.3291 29.4184 37.746 28.1295 37.3947C26.4094 36.926 22.6084 36.9259 20.8891 37.3944C19.3662 37.8095 18.0798 38.4655 17.0477 39.3535C16.2897 40.0056 16.1544 40.0613 15.0928 40.1579C8.3274 40.773 4.17644 43.4287 3.16525 47.7889C3.03811 48.3374 2.68467 49.3258 2.38003 49.9852C-0.193145 55.5543 -0.713442 61.0686 0.983348 64.7839C2.7244 68.5961 6.8447 70.2218 10.361 68.4838C11.2698 68.0347 11.8914 67.5405 13.3424 66.1137C15.3071 64.1814 15.8879 63.7697 17.4729 63.185C18.4301 62.8317 18.5676 62.8203 19.8951 62.9825C20.9611 63.1128 21.5674 63.2873 22.394 63.7017C23.3083 64.1601 23.6515 64.2489 24.5085 64.2489C25.3649 64.2489 25.7094 64.1599 26.623 63.7025C27.4872 63.2699 28.0224 63.1223 29.1931 62.9941C30.6583 62.8335 30.6828 62.8364 31.8828 63.3203C33.3275 63.9028 33.8054 64.2525 35.6739 66.0935C37.4095 67.8036 38.3551 68.4621 39.6553 68.8662C42.2915 69.6854 45.3518 68.7006 46.9409 66.5218L47.401 65.891H52.365C56.114 65.891 57.5945 65.8351 58.4131 65.663C62.6186 64.7783 65.9252 62.1291 67.9143 58.0507L68.3441 57.1696L69.5756 57.0622C72.5388 56.8037 74.5829 55.8571 76.6824 53.771C77.9019 52.5594 78.2127 52.1387 78.8241 50.8729C79.7537 48.9489 80.1024 47.2636 79.9745 45.3152C79.6098 39.7623 75.2904 35.3709 69.7239 34.8935C69.2251 34.8508 69.1804 34.7965 68.9074 33.9045C68.5553 32.7532 67.8136 31.8501 66.7921 31.3284L66.0291 30.9386L50.9378 30.9078C39.3252 30.8841 35.6825 30.9218 35.1351 31.0711ZM65.9742 33.5658C66.202 33.7204 66.4693 34.0424 66.5683 34.2812C66.6992 34.5975 66.7338 37.4077 66.6953 44.6342C66.6366 55.6366 66.6665 55.2989 65.5623 57.48C64.0777 60.4124 61.5983 62.4162 58.4398 63.2365C57.4206 63.5011 56.715 63.5402 52.9148 63.5425L48.5581 63.5452L48.6461 63.1933C49.5683 59.5052 48.8774 54.9458 46.6376 49.9396C46.2722 49.1225 45.8943 48.0836 45.798 47.6308C45.4127 45.8179 44.1944 44.0881 42.4024 42.8095C40.7663 41.6419 37.8348 40.6175 35.2601 40.3137L34.3609 40.2077V37.4734C34.3609 34.1083 34.486 33.738 35.7683 33.3066C35.8974 33.2632 42.6532 33.2405 50.7814 33.2561C64.7242 33.2829 65.5834 33.3004 65.9742 33.5658ZM71.1833 37.5117C74.229 38.3051 76.7935 41.0141 77.4556 44.1378C77.7579 45.5639 77.7335 46.7083 77.3705 48.1278C76.934 49.834 76.379 50.7812 75.026 52.129C73.4404 53.7083 71.9682 54.4257 69.7199 54.7148L68.8755 54.8234L68.9754 54.2189C69.0303 53.8866 69.0759 53.3583 69.0769 53.0449L69.0786 52.4752L70.0416 52.3055C71.7855 51.9984 73.5699 50.7595 74.466 49.2338C75.8686 46.8461 75.5095 43.6477 73.6074 41.584C72.5751 40.4641 71.4966 39.9262 69.5087 39.5394C69.0886 39.4576 69.0786 39.4304 69.0786 38.364V37.2723H69.6713C69.9972 37.2723 70.6777 37.38 71.1833 37.5117ZM27.5682 39.7022C30.9363 40.5678 32.7992 43.1548 32.7957 46.962C32.7943 48.5807 32.6098 49.7826 32.0825 51.6079C30.6528 56.556 27.1224 61.5473 24.7839 61.9267C23.9687 62.059 22.9456 61.5126 21.6845 60.2717C19.9256 58.5405 18.5235 56.137 17.4152 52.9528C16.6947 50.883 16.4681 50.4657 16.0017 50.3487C15.5207 50.2278 14.8873 50.4575 14.7557 50.8005C14.5608 51.3083 14.6618 52.169 15.0551 53.3525C15.5793 54.9303 17.1127 58.1042 17.938 59.3191C18.2987 59.8505 18.5629 60.3161 18.525 60.3541C18.3002 60.5788 14.2863 59.379 12.8578 58.6601C9.40569 56.9225 6.52489 53.9593 5.72388 51.3219C5.31447 49.9741 5.37233 48.2198 5.86291 47.1084C6.81139 44.9591 10.0577 43.1544 13.8588 42.6628C14.6409 42.5617 14.6951 42.5752 14.5908 42.8451C14.312 43.5678 14.023 45.1765 13.9894 46.1941C13.9561 47.198 13.9886 47.3362 14.3217 47.6068C14.5247 47.7716 14.8942 47.9065 15.1427 47.9065C15.8292 47.9065 16.1799 47.4444 16.29 46.3946C16.5255 44.1503 17.3165 42.2782 18.4842 41.2018C19.5247 40.2427 20.6289 39.7953 22.9447 39.3944C23.6819 39.2667 26.6399 39.4637 27.5682 39.7022ZM70.7207 42.3082C72.0721 42.9783 72.8266 44.1075 72.9499 45.6449C73.0984 47.4945 72.0742 49.1464 70.3874 49.7774C68.9698 50.3079 69.0786 50.6256 69.0786 45.9556V41.8153L69.5869 41.9066C69.8665 41.957 70.3766 42.1376 70.7207 42.3082ZM37.487 43.1554C40.4688 44.0014 42.5793 45.5428 43.2719 47.3803C43.7834 48.7373 43.6771 50.5718 43.0035 52.0112C42.3223 53.467 41.6683 54.3747 40.3944 55.6327C38.5988 57.4059 36.1867 58.8218 33.5007 59.6795C31.9588 60.1718 30.6185 60.4805 30.5069 60.369C30.4609 60.3228 30.7089 59.8645 31.0581 59.3503C34.3795 54.4593 35.8852 47.6807 34.595 43.428C34.468 43.0098 34.3635 42.642 34.3626 42.6105C34.3585 42.4759 36.262 42.8077 37.487 43.1554ZM5.10225 55.158C6.84893 57.6952 10.3393 60.3002 13.6337 61.5254L14.5661 61.8722L14.0247 62.2764C13.7269 62.4986 12.7092 63.4282 11.7631 64.3418C9.771 66.2657 9.05303 66.6898 7.61287 66.7932C6.27108 66.8895 5.24784 66.4654 4.25119 65.4001C2.09275 63.0923 1.72931 58.941 3.26753 54.162C3.44737 53.6029 3.62909 53.0854 3.671 53.0122C3.71307 52.9389 3.93436 53.2204 4.16268 53.6378C4.39116 54.055 4.81387 54.7392 5.10225 55.158ZM45.8415 54.448C47.2967 59.1002 46.9023 63.1159 44.7659 65.4001C43.7795 66.4544 42.7604 66.8801 41.41 66.8019C39.9342 66.7164 39.1822 66.286 37.4725 64.5479C36.6643 63.7263 35.6584 62.7992 35.2374 62.4877L34.4717 61.9213L35.0028 61.689C38.5009 60.1585 39.9823 59.2492 41.9077 57.4511C43.0375 56.3963 44.8243 54.0081 45.075 53.2184C45.2292 52.7322 45.3808 52.975 45.8415 54.448Z" fill="#99A9AD"/>
</g>
</svg>
