<svg width="80" height="80" viewBox="0 0 80 80" fill="none" xmlns="http://www.w3.org/2000/svg">
<mask id="mask0_502_2649" style="mask-type:alpha" maskUnits="userSpaceOnUse" x="0" y="0" width="80" height="80">
<rect width="80" height="80" fill="white"/>
</mask>
<g mask="url(#mask0_502_2649)">
<path fill-rule="evenodd" clip-rule="evenodd" d="M10.4923 0.138897C10.3147 0.658881 9.95717 2.21336 10.0042 2.26058C10.0332 2.2895 12.5103 2.95254 15.5088 3.73392C18.5074 4.5153 21.0196 5.20773 21.0913 5.27245C21.2327 5.40003 23.3841 14.3712 23.3841 14.8335C23.3841 15.097 23.0875 15.1171 18.6621 15.1559L13.9404 15.1973L12.7186 26.6883C11.5632 37.5534 11.5006 38.3282 11.5656 40.9152C11.6208 43.11 11.7111 43.9758 12.0224 45.2927C13.0664 49.7093 15.0859 53.3823 18.1606 56.457C21.9143 60.2106 26.6212 62.4201 32.1813 63.0383L33.0835 63.1386L33.0411 66.269L32.9989 69.3994L30.3809 70.7646C28.941 71.5153 27.7168 72.1755 27.6607 72.2318C27.5849 72.3076 28.3575 73.9949 28.6263 74.3402C28.6463 74.366 29.8765 73.7503 31.36 72.9722C32.8437 72.1943 34.1239 71.5577 34.2049 71.5577C34.2861 71.5577 36.475 72.6631 39.0693 74.0141C43.4194 76.2794 44.6462 77.0435 44.6462 77.4865C44.6462 77.6052 41.5491 77.6549 34.1715 77.6549C28.4104 77.6549 23.6967 77.5983 23.6967 77.5292C23.6967 77.2753 24.7359 76.4256 25.5337 76.0271C25.9852 75.8017 26.3545 75.546 26.3545 75.4591C26.3545 75.2341 25.4315 73.4337 25.3163 73.4337C24.9795 73.4337 22.852 74.7945 22.3911 75.3047C21.4447 76.3523 21.1476 77.1005 21.0701 78.632L21.0007 80H34.2529H47.505L47.4198 78.7579C47.3179 77.2708 46.8504 76.1439 45.9554 75.2281C45.3613 74.62 42.9437 73.269 37.4943 70.4996L35.4234 69.4471L35.4228 66.2925L35.4222 63.1379L36.3211 63.0344C42.0305 62.3771 47.1556 59.8465 50.8483 55.8609C51.8647 54.7639 53.3368 52.8273 53.2247 52.7347C52.9686 52.5234 51.4302 51.5462 51.3535 51.5462C51.2997 51.5462 50.859 52.0644 50.374 52.6974C45.5602 58.9825 37.3156 61.9799 29.7003 60.2138C22.711 58.5929 17.17 53.5075 14.8864 46.6176C14.2632 44.7377 14.0125 43.2538 13.923 40.9152C13.8511 39.0333 13.9654 37.6528 14.9783 28.1735L16.1143 17.5424H20.0941H24.0737L25.1881 22.2717L26.3023 27.001H22.1249H17.9477L17.8542 27.6654C17.8029 28.0309 17.5057 30.6515 17.194 33.489C16.5348 39.4889 16.5139 42.3102 17.1119 44.5626C18.7175 50.6115 22.9713 55.2022 28.7054 57.0744C38.3342 60.2184 48.6543 54.6311 51.2048 44.8935C52.0053 41.8374 51.999 40.71 51.136 32.4728C50.8343 29.5923 50.5874 27.1826 50.5873 27.1182C50.5871 27.0538 47.4564 27.001 43.63 27.001H36.6729V28.2517V29.5024H42.5261H48.3791L48.467 30.1668C48.5153 30.5324 48.6618 31.9217 48.7928 33.2545C48.9237 34.5873 49.0675 35.9065 49.1125 36.1859L49.1943 36.694H34.2567C20.9439 36.694 19.3192 36.6679 19.3192 36.4545C19.3192 36.0682 19.9477 30.2395 20.0309 29.8542L20.1069 29.5024H27.1392H34.1715V28.2517V27.001H31.469H28.7664L27.6962 22.428C27.1077 19.9129 26.5925 17.7668 26.5515 17.6588C26.4918 17.5019 29.087 17.4705 39.4309 17.5024L52.385 17.5424L53.4308 27.8608C54.5439 38.8449 54.6751 41.3468 54.2587 43.6511C54.1344 44.339 54.0313 44.9822 54.0297 45.0804C54.0269 45.2447 56.1655 45.8724 56.281 45.7412C56.4106 45.5941 56.8393 42.7164 56.93 41.3842C57.0195 40.0684 56.6326 34.7629 56.2772 32.4338C56.1945 31.8909 56.2164 31.8475 56.5724 31.8475C56.7839 31.8475 57.625 31.678 58.4417 31.4709C66.8039 29.3496 71.863 20.8962 69.8186 12.4614C69.0855 9.43749 66.8999 6.02929 64.4331 4.06364C59.0022 -0.26399 51.5734 -0.557595 45.7406 3.32494C42.2314 5.6608 39.5746 9.94841 39.054 14.1163L38.9386 15.041H32.4513H25.964L24.5815 9.17828C23.821 5.95378 23.1879 3.30414 23.1743 3.29023C23.1607 3.27631 20.441 2.55293 17.1305 1.68275C13.82 0.812563 10.9879 0.0627595 10.837 0.0166394C10.6849 -0.0299497 10.5312 0.0246127 10.4923 0.138897ZM53.4012 8.19991V13.3188L49.8054 9.72547C47.8277 7.74918 46.2096 6.07745 46.2096 6.01053C46.2096 5.82762 48.2884 4.51953 49.2667 4.08693C50.3174 3.62214 52.2058 3.1034 52.8931 3.09058L53.4012 3.08105V8.19991ZM57.8625 3.39513C59.3218 3.76831 61.3129 4.70322 62.369 5.51103L63.129 6.0923L59.5561 9.66778C57.5911 11.6342 55.93 13.2431 55.8648 13.2431C55.7996 13.2431 55.7463 10.9566 55.7463 8.16208V3.08105H56.1903C56.4345 3.08105 57.187 3.22238 57.8625 3.39513ZM51.5251 15.0007C51.5251 15.0659 49.2321 15.1192 46.4294 15.1192H41.3337L41.4452 14.2984C41.6922 12.4803 42.6981 10.0086 43.8079 8.49273L44.3671 7.72917L47.9461 11.3056C49.9145 13.2727 51.5251 14.9355 51.5251 15.0007ZM66.4487 10.3508C67.1398 11.7472 67.7844 13.8358 67.7844 14.6795V15.1192H62.7034C59.9088 15.1192 57.6224 15.067 57.6224 15.0032C57.6224 14.9394 59.223 13.2834 61.1791 11.3233L64.7358 7.7595L65.2439 8.35156C65.5235 8.67737 66.0655 9.57695 66.4487 10.3508ZM67.7844 17.8681C67.7844 18.4783 67.1972 20.6522 66.7739 21.6094C66.345 22.5792 65.0369 24.6559 64.8549 24.6559C64.788 24.6559 63.1163 23.0378 61.14 21.0601L57.5467 17.4643H62.6656H67.7844V17.8681ZM62.7064 26.7998C61.4458 27.8962 58.2568 29.2602 56.6887 29.3736L55.9896 29.4242L55.4871 24.4995C55.2108 21.791 54.9802 19.2939 54.9746 18.9506L54.9646 18.3263L59.0343 22.39L63.1041 26.4538L62.7064 26.7998ZM49.3986 39.556C49.5493 40.3594 49.2093 43.1244 48.7759 44.6198C46.5084 52.4447 38.5329 57.0555 30.5826 55.1377C29.0107 54.7584 26.6966 53.695 25.3614 52.7382C24.2452 51.9383 22.4174 50.0806 21.6781 48.9945C20.8786 47.82 19.8445 45.5033 19.4679 44.042C19.2567 43.2226 19.0943 42.0088 19.0444 40.8761L18.9636 39.0391H34.1325H49.3015L49.3986 39.556ZM23.027 42.552C22.5295 42.6609 22.0833 42.7892 22.0352 42.8372C21.939 42.9335 22.5914 45.1112 22.7449 45.2061C22.8503 45.2711 24.7855 44.4802 24.8279 44.3546C24.9074 44.1189 24.2764 42.3247 24.1185 42.3382C24.0155 42.3471 23.5243 42.4432 23.027 42.552ZM25.0647 46.8928C24.5704 47.2427 24.1665 47.6062 24.1675 47.7006C24.1684 47.795 24.5144 48.2592 24.9364 48.7321L25.7035 49.592L26.498 48.8162C26.935 48.3894 27.2894 47.9673 27.2855 47.8782C27.2818 47.7889 26.9827 47.3876 26.6211 46.9865L25.9637 46.2568L25.0647 46.8928ZM52.963 48.1618C52.7907 48.6044 52.6018 49.0858 52.5432 49.2313C52.4594 49.4394 52.6391 49.5981 53.3834 49.9739C53.9043 50.2367 54.3915 50.4519 54.466 50.4519C54.6092 50.4519 54.8112 50.0602 55.2865 48.8611L55.576 48.1304L54.426 47.7438L53.276 47.357L52.963 48.1618ZM28.7896 49.7093C28.6302 49.9888 28.3668 50.44 28.2043 50.712L27.909 51.2067L28.93 51.6891C29.4916 51.9544 30.0537 52.1716 30.1789 52.1716C30.3233 52.1716 30.5236 51.7933 30.7258 51.139C30.9012 50.571 31.0447 50.0837 31.0447 50.056C31.0447 49.9921 29.3225 49.2011 29.1835 49.2011C29.1264 49.2011 28.9491 49.4297 28.7896 49.7093Z" fill="#99A9AD"/>
</g>
</svg>
