<svg width="80" height="80" viewBox="0 0 80 80" fill="none" xmlns="http://www.w3.org/2000/svg">
<mask id="mask0_502_2637" style="mask-type:alpha" maskUnits="userSpaceOnUse" x="0" y="0" width="80" height="80">
<rect width="80" height="80" fill="white"/>
</mask>
<g mask="url(#mask0_502_2637)">
<path fill-rule="evenodd" clip-rule="evenodd" d="M38.438 0.198658C37.6186 0.61318 37.626 0.678336 39.4464 9.1791C40.3801 13.5393 41.1756 17.265 41.2142 17.4583L41.2842 17.8099L37.3989 17.8149C33.2162 17.8202 33.127 17.8364 32.8165 18.6531C32.5648 19.3153 32.608 23.9591 32.8717 24.5905C33.1501 25.2567 33.7346 25.466 35.3171 25.466H36.5272L36.6222 26.8331C36.828 29.7966 37.3668 42.5239 37.2894 42.6011C37.2443 42.6462 36.7272 42.574 36.1405 42.4405C34.5337 42.075 31.9503 41.8722 28.9043 41.8722C23.0963 41.8722 20.0185 42.4906 16.4245 44.3798C9.95123 47.7825 5.55257 54.2547 4.8893 61.3529L4.79914 62.3185L3.81838 62.8013C0.703445 64.3348 0.0312712 68.4698 2.50356 70.891C2.87434 71.2542 3.54307 71.7028 3.98963 71.8878C4.77602 72.2138 4.80758 72.2511 4.99117 73.0712C5.27257 74.3289 6.28396 76.2145 7.17753 77.1476C8.18298 78.1975 9.61639 79.1238 10.9246 79.5688L11.9515 79.918L42.2295 79.9589L72.5075 80L72.8781 79.6292C73.162 79.3455 73.2703 79.0247 73.3406 78.2602C73.4231 77.3616 75.784 26.6306 75.7799 25.8392C75.7785 25.5486 75.8924 25.4991 76.7377 25.4224C78.3145 25.2794 78.3469 25.2117 78.4058 21.9202C78.4598 18.9109 78.4209 18.5775 77.9619 18.1184C77.6584 17.815 77.3725 17.8099 60.7891 17.8099C44.8629 17.8099 43.9205 17.7947 43.8448 17.5364C43.8005 17.386 42.9895 13.6346 42.0421 9.19988C41.0948 4.76528 40.2486 0.94958 40.1615 0.720678C40.0166 0.33928 39.4659 -0.00555701 39.0111 6.78724e-05C38.9092 0.00131785 38.6513 0.090691 38.438 0.198658ZM75.9346 21.5598V22.8098H55.6225H35.3104V21.5598V20.3098H55.6225H75.9346V21.5598ZM73.186 27.4581C73.1288 28.5537 72.5814 40.243 71.9693 53.4341L70.8566 77.418L60.6614 77.4582C55.0542 77.4804 50.4663 77.449 50.4663 77.3886C50.4663 77.3283 50.6374 77.0993 50.8465 76.8797C51.7126 75.9702 52.5176 74.286 52.871 72.6442C52.9363 72.3405 53.156 72.1627 53.7908 71.8995C55.807 71.0638 57.0804 68.7185 56.7201 66.5043C56.5639 65.5448 56.2618 64.8775 55.6059 64.0425L55.1634 63.4792L56.6039 63.3896C61.8683 63.0618 66.3968 59.2615 67.8322 53.9669C68.3043 52.226 68.3038 49.328 67.831 47.5839C66.6473 43.2168 63.1183 39.6818 58.7474 38.4849C57.309 38.091 53.7553 38.0985 52.3413 38.4985C48.9359 39.4618 45.9855 41.7866 44.4415 44.7234C44.1365 45.3034 43.8569 45.778 43.8204 45.778C43.7838 45.778 43.376 45.5363 42.9142 45.241C42.4524 44.9456 41.6115 44.4756 41.0456 44.1964L40.0166 43.689L39.9316 42.7414C39.8848 42.2201 39.7052 38.4891 39.5322 34.4501C39.3592 30.4112 39.1817 26.7373 39.1377 26.2862L39.0577 25.466H56.1737H73.2899L73.186 27.4581ZM58.6693 41.1522C60.2215 41.6448 62.0453 42.82 63.1236 44.0221C64.0182 45.0198 65.1703 47.2518 65.4712 48.5706C65.7418 49.7572 65.7017 52.0709 65.3893 53.2779C64.1826 57.9422 59.7655 61.1929 55.0756 60.868C52.9336 60.7196 52.8325 60.683 52.7299 60.0181C52.551 58.8601 51.6926 56.0089 51.153 54.78C50.1624 52.5245 48.5778 50.1973 46.8045 48.3942L45.9202 47.4949L46.3977 46.4941C47.8864 43.375 50.7345 41.2936 54.2944 40.7233C55.3416 40.5555 57.436 40.7608 58.6693 41.1522ZM34.7412 44.7571C40.5297 45.7907 45.61 49.5205 48.2626 54.6841C49.4495 56.9945 49.9953 58.7582 50.3781 61.5199L50.4701 62.184H28.9047H7.33956L7.43971 61.2855C7.49471 60.7913 7.69924 59.7484 7.89424 58.9676C9.8881 50.9811 16.5525 45.2743 24.7637 44.5223C26.9415 44.3228 33.1237 44.4682 34.7412 44.7571ZM30.1543 49.528V50.7779H31.4042H32.6542V49.528V48.278H31.4042H30.1543V49.528ZM16.2483 50.7779V52.0279H17.4983H18.7482V50.7779V49.528H17.4983H16.2483V50.7779ZM14.9983 55.8494V57.1841H16.2545H17.5109L17.4654 55.895L17.4201 54.606L16.2092 54.5604L14.9983 54.5147V55.8494ZM37.8103 55.856V57.1841H39.0603H40.3103V55.856V54.5279H39.0603H37.8103V55.856ZM26.4043 57.1841V58.434H27.6543H28.9043V57.1841V55.9341H27.6543H26.4043V57.1841ZM53.0849 65.1519C54.6206 66.0882 54.6141 68.2924 53.0721 69.4351L52.631 69.7619L29.2444 69.808C13.6951 69.8386 5.67319 69.8008 5.30663 69.6949C4.58696 69.4872 3.75745 68.6193 3.59667 67.906C3.35511 66.8351 3.82198 65.7015 4.73352 65.1458C5.22273 64.8475 5.71631 64.8412 28.9043 64.8412C52.2496 64.8412 52.5827 64.8456 53.0849 65.1519ZM50.3101 72.4903C50.3101 73.0536 49.5664 74.4492 48.8364 75.2559C47.7386 76.469 46.492 77.1404 44.9707 77.3379C43.4079 77.5408 13.9627 77.5413 12.7127 77.3383C11.3543 77.1179 10.4504 76.6713 9.40702 75.7052C8.47266 74.8404 7.7694 73.7397 7.58096 72.8478L7.47362 72.34H28.8919C42.5099 72.34 50.3101 72.3948 50.3101 72.4903Z" fill="#99A9AD"/>
</g>
</svg>
