<svg width="24" height="24" viewBox="0 0 24 24" fill="none" xmlns="http://www.w3.org/2000/svg">
<mask id="mask0_569_5755" style="mask-type:alpha" maskUnits="userSpaceOnUse" x="0" y="0" width="24" height="24">
<path d="M0 0H24V24H0V0Z" fill="white"/>
</mask>
<g mask="url(#mask0_569_5755)">
<path d="M13.3701 2.09432C10.9774 1.76518 8.54634 2.31287 6.52592 3.63628C4.5055 4.95969 3.03214 6.96942 2.3779 9.29439C1.72365 11.6194 1.9327 14.1025 2.96646 16.2854C4.00021 18.4682 5.78885 20.2033 8.0021 21.1703C7.94224 20.4021 7.99718 19.6293 8.1651 18.8773C8.3501 18.0383 9.4611 13.4143 9.4611 13.4143C9.23986 12.9184 9.1293 12.3803 9.1371 11.8373C9.1371 10.3523 9.9941 9.24432 11.0601 9.24432C11.2516 9.24153 11.4415 9.28002 11.6168 9.35715C11.7921 9.43429 11.9487 9.54827 12.076 9.69134C12.2034 9.83442 12.2984 10.0032 12.3547 10.1863C12.4109 10.3694 12.4271 10.5624 12.4021 10.7523C12.4021 11.6523 11.8241 13.0143 11.5221 14.2923C11.4624 14.5267 11.4586 14.7718 11.511 15.0079C11.5635 15.2441 11.6706 15.4645 11.8239 15.6517C11.9771 15.8388 12.1722 15.9873 12.3933 16.0852C12.6145 16.1831 12.8556 16.2277 13.0971 16.2153C14.9951 16.2153 16.2671 13.7843 16.2671 10.9143C16.2671 8.71432 14.8101 7.06632 12.1241 7.06632C11.4815 7.04135 10.8405 7.14724 10.24 7.37757C9.63958 7.60791 9.09221 7.95787 8.63115 8.40621C8.17008 8.85455 7.80495 9.39192 7.55792 9.9857C7.31089 10.5795 7.18711 11.2172 7.1941 11.8603C7.16546 12.5736 7.3956 13.2733 7.8421 13.8303C7.92553 13.8926 7.98645 13.9803 8.01567 14.0803C8.04489 14.1802 8.04083 14.2869 8.0041 14.3843C7.9581 14.5683 7.8421 15.0073 7.7961 15.1683C7.78653 15.2229 7.76427 15.2745 7.73112 15.3189C7.69797 15.3634 7.65484 15.3994 7.60523 15.4241C7.55561 15.4488 7.50088 15.4615 7.44545 15.4612C7.39002 15.4609 7.33544 15.4476 7.2861 15.4223C5.9021 14.8683 5.2501 13.3453 5.2501 11.6063C5.2501 8.75932 7.6341 5.35132 12.4041 5.35132C16.2001 5.35132 18.7241 8.12832 18.7241 11.0983C18.7241 15.0073 16.5471 17.9463 13.3301 17.9463C12.8493 17.9617 12.3724 17.8556 11.9434 17.6378C11.5145 17.42 11.1474 17.0976 10.8761 16.7003C10.8761 16.7003 10.2981 19.0163 10.1841 19.4543C9.95139 20.211 9.608 20.9291 9.1651 21.5853C10.0881 21.8653 11.0471 22.0053 12.0111 22.0013C13.3247 22.0024 14.6256 21.7443 15.8393 21.2419C17.053 20.7395 18.1556 20.0026 19.0842 19.0734C20.0127 18.1443 20.7488 17.0411 21.2504 15.827C21.7519 14.613 22.0091 13.3119 22.0071 11.9983C22.0059 9.58332 21.1309 7.25032 19.5437 5.4301C17.9566 3.60988 15.7644 2.42539 13.3721 2.09532L13.3701 2.09432Z" fill="#99A9AD"/>
</g>
</svg>
