<svg width="120" height="120" viewBox="0 0 120 120" fill="none" xmlns="http://www.w3.org/2000/svg">
<mask id="mask0_502_4034" style="mask-type:alpha" maskUnits="userSpaceOnUse" x="0" y="0" width="120" height="120">
<rect width="120" height="120" fill="white"/>
</mask>
<g mask="url(#mask0_502_4034)">
<path fill-rule="evenodd" clip-rule="evenodd" d="M33.411 0.357955C28.7004 1.38323 24.6117 5.33909 23.3456 10.0967C23.0909 11.0545 23.0049 12.883 23.0028 17.3908L23 23.4071L23.6174 23.8925C24.421 24.5247 24.9343 24.5055 25.7399 23.8131L26.3973 23.248L26.5144 17.0635L26.6316 10.879L27.5067 9.10985C28.8405 6.41311 31.0422 4.6198 33.9259 3.88083C35.182 3.55914 38.3858 3.5233 60.8644 3.57929L86.3771 3.64302L87.7463 4.19526C90.3688 5.25311 92.4737 7.45244 93.5075 10.215C93.9913 11.5083 93.9918 11.5578 93.9918 59.9913C93.9918 108.425 93.9913 108.474 93.5075 109.767C92.4737 112.53 90.3688 114.729 87.7463 115.787L86.3771 116.34L60.8644 116.403C38.3858 116.459 35.182 116.423 33.9259 116.102C31.041 115.362 28.8401 113.569 27.5067 110.871L26.6316 109.101L26.5144 69.7267C26.424 39.312 26.3322 30.2392 26.111 29.8533C25.5885 28.9419 24.2249 28.7764 23.4686 29.5328C23.0037 29.9976 23 30.3118 23.0028 69.3045C23.0052 102.909 23.0548 108.793 23.3456 109.886C24.6211 114.678 28.7342 118.621 33.5164 119.634C35.8305 120.125 84.697 120.12 87.0137 119.629C91.7908 118.617 95.8825 114.688 97.1606 109.886C97.6723 107.962 97.6723 12.02 97.1606 10.0967C96.5189 7.68533 95.4385 5.86345 93.5426 3.99447C91.5188 1.99967 89.5183 0.88395 87.0137 0.353034C84.7778 -0.120712 35.5899 -0.116261 33.411 0.357955ZM34.5977 6.43091C33.0255 6.92809 32.2556 7.43112 31.0589 8.74295C28.893 11.1168 29.0894 6.0066 29.0894 59.9913C29.0894 104.855 29.1137 107.739 29.5005 108.83C30.0565 110.398 32.0155 112.489 33.5996 113.205L34.832 113.762H60.2531H85.6742L86.9066 113.205C88.4907 112.489 90.4497 110.398 91.0056 108.83C91.3925 107.739 91.4168 104.855 91.4168 59.9913C91.4168 15.128 91.3925 12.2436 91.0056 11.1522C90.4497 9.58407 88.4907 7.49321 86.9066 6.77744C85.7213 6.2416 85.4303 6.21747 79.3 6.14812C75.1597 6.10102 72.7645 6.16194 72.466 6.32173C72.2135 6.45692 71.4033 7.70197 70.6659 9.0883C69.9284 10.4746 69.1653 11.7937 68.9701 12.0191C68.6444 12.3954 67.9256 12.4291 60.2531 12.4291C52.5806 12.4291 51.8618 12.3954 51.5361 12.0191C51.3409 11.7937 50.5778 10.4746 49.8403 9.0883C49.1029 7.70197 48.3045 6.46301 48.0657 6.33532C47.4031 5.98059 35.76 6.0633 34.5977 6.43091ZM55.4395 6.67833C55.1232 6.99463 54.8643 7.52648 54.8643 7.86035C54.8643 8.19423 55.1232 8.72608 55.4395 9.04238C56.0076 9.61078 56.0653 9.61757 60.2531 9.61757C64.4409 9.61757 64.4985 9.61078 65.0667 9.04238C65.7998 8.3095 65.7998 7.41121 65.0667 6.67833C64.4985 6.10993 64.4409 6.10313 60.2531 6.10313C56.0653 6.10313 56.0076 6.10993 55.4395 6.67833ZM47.4242 12.0191C48.4078 13.8811 48.9169 14.5786 49.6901 15.1235L50.6873 15.8264H60.2531H69.8189L70.8161 15.1235C71.5893 14.5786 72.0984 13.8811 73.082 12.0191L74.3505 9.61757H79.3757C84.7394 9.61757 85.4976 9.7462 86.689 10.8589C87.9802 12.0643 87.9 8.813 87.9 59.9913C87.9 111.17 87.9802 107.918 86.689 109.124C85.3033 110.417 86.4214 110.365 60.2531 110.365C34.0848 110.365 35.2029 110.417 33.8172 109.124C32.526 107.918 32.6061 111.174 32.6071 59.9444C32.6078 13.6941 32.6188 12.5285 33.0558 11.812C33.5555 10.9924 34.8191 9.95965 35.5348 9.7858C35.7926 9.72324 38.2876 9.65975 41.0795 9.64475L46.1557 9.61757L47.4242 12.0191ZM60.5835 19.4929C59.9663 19.7924 55.1328 26.9602 54.9578 27.8357C54.8666 28.2912 54.9786 28.6776 55.3315 29.1265C55.8202 29.7476 55.9064 29.767 58.1615 29.767C59.4408 29.767 60.4874 29.8193 60.4874 29.883C60.4874 29.9468 59.5385 31.4589 58.3787 33.2435C57.219 35.0282 56.2701 36.7203 56.2701 37.0042C56.2701 37.742 57.2855 38.6703 58.0929 38.6703C58.4902 38.6703 58.9647 38.4545 59.2519 38.1431C60.0001 37.332 65.6419 28.5742 65.6419 28.2242C65.6419 27.604 65.1079 26.7667 64.5508 26.5127C64.2366 26.3698 63.0869 26.2526 61.9958 26.2526H60.0118L61.5382 23.9701C63.3964 21.1913 63.5133 20.2919 62.1106 19.5665C61.3512 19.1738 61.2514 19.1689 60.5835 19.4929ZM51.3501 42.6822C51.0279 42.8108 50.5172 43.1468 50.2147 43.4289C49.136 44.4361 48.9225 45.1826 48.8178 48.3132L48.7185 51.279L46.5365 51.3591C44.1255 51.4479 43.5 51.7326 42.5052 53.1943L41.978 53.9689V78.5007V103.032L42.5108 103.823C42.8037 104.258 43.3992 104.853 43.8341 105.146L44.6246 105.679H60.2531H75.8816L76.6721 105.146C77.107 104.853 77.7025 104.258 77.9954 103.823C78.5191 103.046 78.5282 102.916 78.5282 96.2725C78.5282 89.8249 78.5066 89.491 78.0596 89.044C77.4284 88.4128 76.1597 88.425 75.5772 89.0681C75.1656 89.5227 75.1255 90.0501 75.0616 95.8627L74.9922 102.165H60.2423H45.4924V78.5007V54.8367H48.2724C50.7219 54.8367 51.1252 54.7796 51.664 54.3555C52.2746 53.8752 52.276 53.867 52.34 49.9624L52.4042 46.0506L60.12 45.9888C66.1372 45.9405 67.8773 45.9921 68.024 46.2231C68.1273 46.3859 68.2135 48.1722 68.2156 50.1923L68.2192 53.8656L68.8365 54.351C69.3822 54.7803 69.7763 54.8367 72.2284 54.8367H75.003L75.0669 68.753C75.1281 82.0599 75.1504 82.6906 75.5772 83.1622C76.1597 83.8056 77.4282 83.818 78.0596 83.1866C78.5181 82.7281 78.5282 82.4057 78.5282 68.3435V53.9689L78.001 53.1943C77.0062 51.7326 76.3806 51.4479 73.9697 51.3591L71.7877 51.279L71.6884 48.3132C71.5837 45.1821 71.3697 44.4342 70.2915 43.4305C69.9893 43.1491 69.4452 42.8063 69.0825 42.669C68.2215 42.3427 52.1713 42.3548 51.3501 42.6822ZM48.5383 58.3512C48.077 58.8125 48.0697 59.1321 48.0697 78.735C48.0697 98.3378 48.077 98.6574 48.5383 99.1187C48.9938 99.5742 49.3192 99.5873 60.2531 99.5873C71.187 99.5873 71.5124 99.5742 71.9679 99.1187C72.4292 98.6574 72.4365 98.3378 72.4365 78.735C72.4365 59.1321 72.4292 58.8125 71.9679 58.3512C71.5124 57.8957 71.187 57.8826 60.2531 57.8826C49.3192 57.8826 48.9938 57.8957 48.5383 58.3512ZM68.9221 63.1543V64.9115H60.2531H51.5841V63.1543V61.397H60.2531H68.9221V63.1543ZM68.9221 71.0032V73.5804H60.2531H51.5841V71.0032V68.4259H60.2531H68.9221V71.0032ZM68.9221 80.7265V84.3581H60.2531H51.5841V80.7265V77.0949H60.2531H68.9221V80.7265ZM68.9221 91.9727V96.0729H60.2531H51.5841V91.9727V87.8725H60.2531H68.9221V91.9727Z" fill="#FFDE9F"/>
</g>
</svg>
