<svg width="120" height="120" viewBox="0 0 122 122" fill="none" xmlns="http://www.w3.org/2000/svg">
<mask id="mask0_502_4030" style="mask-type:alpha" maskUnits="userSpaceOnUse" x="0" y="0" width="122" height="122">
<rect x="0.61084" y="1.39185" width="120" height="120" transform="rotate(-0.373067 0.61084 1.39185)" fill="white"/>
</mask>
<g mask="url(#mask0_502_4030)">
<path fill-rule="evenodd" clip-rule="evenodd" d="M19.0249 15.7824C17.9757 16.3102 17.3092 17.0883 16.7606 18.4261C16.5051 19.0489 16.3396 22.4834 16.0405 33.3704C15.6915 46.0679 15.6886 47.5618 16.0132 48.0499C16.4219 48.6649 17.2712 48.9475 17.9998 48.7109C19.1599 48.3345 19.1564 48.3681 19.5636 33.562C19.9819 18.3516 19.9278 18.7989 21.3527 18.7896C22.2844 18.7836 22.6919 19.3099 22.8427 20.7142C22.9153 21.3909 23.4261 33.9704 23.9781 48.6687C24.5298 63.367 25.046 76.2628 25.1249 77.3264L25.2683 79.2599L21.8563 79.2821L18.4443 79.3043L18.4325 77.9561C18.426 77.2145 18.5607 71.391 18.7318 65.0147L19.0432 53.4211L18.4085 52.8824C17.5891 52.1869 16.7515 52.2039 16.0345 52.9305C15.5732 53.3975 15.4632 53.7497 15.4655 54.7514C15.4669 55.4342 15.3426 60.3199 15.1889 65.6084C15.0353 70.897 14.9136 76.1473 14.9183 77.2756L14.9272 79.3272L10.7157 79.3546C5.62982 79.3877 4.59245 79.6703 2.9251 81.4763C1.12876 83.422 1.08934 83.7059 1.23396 93.6371L1.35962 102.277L2.0592 103.521C2.44398 104.205 3.1526 105.072 3.63386 105.449C5.45471 106.872 4.86869 106.827 20.3739 106.726C34.2543 106.635 34.5771 106.623 35.0327 106.161C35.6605 105.525 35.6398 104.256 34.9922 103.677C34.5188 103.255 33.8431 103.233 20.4556 103.208L6.4155 103.182L5.64403 102.421L4.8728 101.66L4.75213 93.4629C4.61842 84.3803 4.63229 84.2775 6.1134 83.3614C6.84554 82.908 7.55029 82.8941 40.5343 82.6786L74.2077 82.4584L74.8223 81.9683C75.6257 81.3279 75.6528 80.1624 74.8812 79.4466L74.3351 78.9404L51.5481 79.0888C39.015 79.1704 28.7545 79.2107 28.7467 79.1786C28.7388 79.1465 28.1907 65.6176 27.5284 49.1145C26.2305 16.7603 26.3354 18.1063 25.0011 16.6945C23.609 15.2214 20.9472 14.8153 19.0249 15.7824ZM97.8669 15.1513C96.7319 15.7796 96.0838 16.4764 95.5863 17.6028C95.1438 18.6051 95.0762 20.2502 94.3103 48.6797C93.8656 65.1899 93.4956 78.7249 93.488 78.7571C93.4807 78.7892 90.491 78.8352 86.8445 78.8589C79.6582 78.9057 79.3884 78.9523 79.0849 80.1956C78.9179 80.8797 79.4511 82.0589 80.0251 82.2749C80.2343 82.3535 88.2838 82.3672 97.913 82.305C114.864 82.1953 115.444 82.2063 116.174 82.6447C117.667 83.5415 117.682 83.6441 117.667 92.7277L117.653 100.925L116.891 101.697L116.13 102.468L78.1755 102.832C41.2691 103.187 40.2077 103.209 39.7306 103.647C39.0987 104.226 39.0717 105.666 39.6826 106.212C40.0802 106.567 43.0804 106.577 78.1967 106.339C109.013 106.13 116.443 106.021 117.139 105.768C118.454 105.288 119.735 104.135 120.49 102.75L121.174 101.497L121.187 92.856C121.202 82.9239 121.159 82.6404 119.337 80.7183C117.647 78.9341 116.606 78.6651 111.52 78.6983L107.308 78.7257L107.298 77.0865C107.292 76.1847 106.78 62.6558 106.16 47.0219L105.033 18.5965L104.42 17.3575C103.54 15.5812 102.395 14.8868 100.231 14.8168C99.0352 14.7781 98.3708 14.8723 97.8669 15.1513ZM101.133 18.6948C101.475 19.068 101.649 22.3749 102.645 47.3953C103.265 62.9486 103.776 76.3657 103.781 77.2112L103.791 78.7486L100.379 78.7708L96.9672 78.793L97.0864 76.8578C97.1519 75.7935 97.4998 62.8918 97.8595 48.1876C98.2193 33.4834 98.566 20.8983 98.6301 20.2207C98.6939 19.5433 98.9035 18.8296 99.0955 18.6349C99.5737 18.1506 100.663 18.1827 101.133 18.6948ZM57.6434 31.5883C52.4983 32.3578 48.9066 33.446 45.2861 35.3323C41.37 37.3724 36.6914 41.117 36.3595 42.4768C36.1298 43.4179 36.8948 44.3431 37.9733 44.4284C38.7132 44.4869 38.9989 44.32 40.4944 42.9554C44.6545 39.1591 50.1285 36.4419 55.6753 35.4201C57.9386 35.003 63.7281 34.966 65.992 35.3538C71.5927 36.3139 77.0752 38.9405 81.2441 42.661C82.7838 44.0351 83.0688 44.1984 83.8098 44.13C84.887 44.0306 85.6399 43.0955 85.3979 42.1575C85.2 41.3893 83.0743 39.3981 80.5347 37.6014C76.7612 34.932 71.5322 32.7547 67.0251 31.9762C64.9699 31.6212 59.0571 31.3767 57.6434 31.5883ZM59.1113 40.9584C52.3558 41.9086 48.2567 43.7593 43.9583 47.7995C43.1908 48.5211 43.0803 48.7535 43.1487 49.5038C43.205 50.1199 43.4106 50.5064 43.8554 50.8327C44.7045 51.4553 45.4007 51.2393 46.9038 49.8867C50.8208 46.362 55.6098 44.5162 60.8929 44.4949C66.2905 44.4734 70.9557 46.2021 74.9511 49.704C76.4717 51.037 77.1706 51.244 78.0115 50.6103C78.4542 50.2768 78.6526 49.8896 78.7013 49.2639C78.7617 48.4883 78.6505 48.2761 77.7515 47.4484C74.4099 44.3717 70.0019 42.1483 65.6793 41.3593C63.8628 41.0276 60.206 40.8045 59.1113 40.9584ZM58.3518 50.3493C55.6807 50.879 52.5342 52.4569 50.6821 54.1962C49.793 55.0309 49.6856 55.2424 49.7561 56.0178C49.8129 56.6428 50.0164 57.0274 50.4633 57.3551C51.2837 57.9568 51.939 57.7767 53.3806 56.5534C57.8115 52.7931 64.0821 52.7522 68.5616 56.4546C70.019 57.659 70.6767 57.8306 71.4891 57.2182C71.9322 56.8845 72.1302 56.4975 72.1789 55.8704C72.2399 55.0854 72.1317 54.8863 71.1717 54.0161C68.4773 51.5747 65.3887 50.3837 61.5169 50.2935C60.0981 50.2603 58.6738 50.2855 58.3518 50.3493ZM57.779 59.1177C56.1314 59.9545 55.662 60.422 55.4694 61.4184C55.3558 62.007 55.4468 62.2678 55.9336 62.7484C56.72 63.5246 57.5905 63.5051 58.6445 62.6876C59.3608 62.1321 59.7051 62.0359 61.0071 62.0274C62.3091 62.0189 62.6546 62.1107 63.378 62.6568C64.4869 63.4937 65.5076 63.4971 66.1527 62.6657C67.123 61.4157 66.463 60.1899 64.2287 59.0914C62.9928 58.4839 62.5241 58.3831 60.9834 58.3931C59.4514 58.4031 58.9731 58.5113 57.779 59.1177ZM13.7748 95.5309C12.9807 96.1638 12.9383 97.3963 13.6868 98.0845C14.1581 98.518 14.5049 98.5573 17.6865 98.5366C21.0724 98.5145 21.1861 98.4976 21.7416 97.9345C22.3759 97.2921 22.4357 96.9264 22.0449 96.083C21.6245 95.1759 20.8683 94.9987 17.5121 95.0205C14.7078 95.0388 14.3267 95.0907 13.7748 95.5309ZM27.0823 95.5073C26.259 96.2248 26.2176 97.4228 26.9944 98.0436C27.4626 98.4176 27.979 98.4696 31.0224 98.4497C34.2009 98.429 34.5551 98.3848 34.9793 97.955C35.673 97.2522 35.5919 95.9978 34.8137 95.3939C34.2535 94.9591 33.8755 94.914 30.9549 94.933C27.8975 94.9529 27.6817 94.985 27.0823 95.5073ZM40.6621 95.1059C39.6128 95.5367 39.3732 96.7934 40.1538 97.7724L40.6436 98.3871L44.22 98.3638C47.6552 98.3414 47.8164 98.319 48.3028 97.7946C48.9743 97.0702 48.9415 96.1071 48.2213 95.3962C47.6606 94.8427 47.5388 94.8255 44.4075 94.8602C42.6286 94.8799 40.9432 94.9906 40.6621 95.1059ZM53.6346 95.2714C52.8312 95.9118 52.8041 97.0774 53.5758 97.7931C54.0855 98.2656 54.3524 98.2978 57.5759 98.2768C60.9304 98.255 61.0464 98.2376 61.6015 97.675C62.2358 97.0326 62.2955 96.6669 61.9048 95.8234C61.4843 94.9164 60.7281 94.7391 57.3719 94.761C54.5677 94.7792 54.1865 94.8312 53.6346 95.2714ZM87.8672 95.0485C87.0969 95.6624 87.0322 96.9178 87.735 97.6115C88.1638 98.0348 88.5195 98.0754 91.6223 98.0551C93.581 98.0424 95.235 97.9256 95.5006 97.7811C96.6212 97.1719 96.5034 95.313 95.3102 94.7789C94.9701 94.6266 93.4259 94.5262 91.6045 94.5381C88.8003 94.5563 88.4191 94.6083 87.8672 95.0485ZM100.997 94.963C100.227 95.5769 100.162 96.8323 100.865 97.526C101.295 97.9504 101.65 97.9899 104.854 97.969C108.059 97.9481 108.413 97.9041 108.837 97.4741C109.594 96.7071 109.532 95.711 108.679 94.9545C108.126 94.4647 107.877 94.4321 104.85 94.4518C101.929 94.4708 101.552 94.5209 100.997 94.963Z" fill="#FFDE9F"/>
</g>
</svg>
