<svg width="120" height="120" viewBox="0 0 120 120" fill="none" xmlns="http://www.w3.org/2000/svg">
<mask id="mask0_502_4032" style="mask-type:alpha" maskUnits="userSpaceOnUse" x="0" y="0" width="120" height="120">
<rect width="120" height="120" fill="white"/>
</mask>
<g mask="url(#mask0_502_4032)">
<path fill-rule="evenodd" clip-rule="evenodd" d="M12.8084 0.251565C10.6684 1.04962 9.28573 2.55144 8.73462 4.6759C8.31508 6.29358 8.26161 70.6196 8.67904 71.5361C8.93326 72.0935 9.77141 72.6282 10.3915 72.6282C10.5615 72.6282 10.9787 72.4094 11.3185 72.142L11.9364 71.6561V38.8336C11.9364 3.60675 11.886 5.11656 13.1013 4.03287C13.472 3.70244 13.9589 3.56384 14.7506 3.56384C15.5423 3.56384 16.0292 3.70244 16.3999 4.03287C17.6288 5.12852 17.5648 2.26158 17.5648 56.2047V106.398H14.7506H11.9364V92.2272V78.056L11.3185 77.5701C10.3136 76.7795 9.3188 76.9618 8.76183 78.0389C8.4722 78.5991 8.41873 80.8512 8.41873 92.5166V106.331L6.75298 106.486C4.49109 106.696 3.00451 107.381 1.72688 108.802C0.250612 110.444 -0.0823975 111.734 0.0158639 115.431L0.093488 118.351L0.860114 119.117L1.62674 119.883H14.7506H27.8745L28.6411 119.116L29.4077 118.349V114.894C29.4077 111.599 29.3789 111.385 28.7778 110.247C27.5816 107.98 25.6175 106.752 22.7602 106.487L21.0825 106.331V74.705V43.0794H24.2484H27.4144L27.4153 43.9589C27.4165 45.1087 28.094 46.1865 29.1223 46.6745C29.8723 47.0305 31.6898 47.0662 49.0251 47.0657C66.7243 47.0655 68.1607 47.0359 68.9067 46.6553C69.349 46.4299 69.9294 45.9475 70.1965 45.5833C70.6772 44.9281 70.6829 44.7236 70.7448 25.5763C70.8142 4.12316 70.8796 5.09029 69.2939 4.12339C68.6023 3.70173 67.7334 3.68274 48.9275 3.68203L29.2837 3.6811L28.4218 4.47094C27.7197 5.11445 27.5358 5.47255 27.4287 6.40568L27.2971 7.55058L24.2243 7.61577L21.1514 7.68097L21.0103 6.16765C20.9324 5.33512 20.7007 4.2505 20.4953 3.75731C20.0239 2.62578 18.6635 1.2051 17.4543 0.581292C16.2693 -0.0298517 13.9955 -0.191197 12.8084 0.251565ZM67.2817 25.3736V43.5485H49.1069H30.9321V25.3736V7.19881H49.1069H67.2817V25.3736ZM41.7411 10.7376C40.5296 11.2221 40.5626 10.8145 40.5546 25.3256L40.5471 38.8795L41.1229 39.455C41.4395 39.7716 41.9718 40.0308 42.306 40.0308C42.6402 40.0308 43.1725 39.7716 43.4891 39.455C44.0648 38.8795 44.0648 38.8788 44.0648 33.8267V28.7741H47.102C48.7725 28.7741 50.6983 28.6554 51.3819 28.5105C57.2783 27.2594 60.3673 21.018 57.744 15.6563C56.442 12.9951 53.8511 11.1687 50.7485 10.7257C48.6752 10.4297 42.4908 10.4379 41.7411 10.7376ZM27.3639 13.5893L27.2971 15.9931L24.1898 16.0585L21.0825 16.1239V13.6547V11.1855H24.2566H27.4308L27.3639 13.5893ZM51.6866 14.5602C53.7589 15.4469 55.1635 17.4972 55.1581 19.628C55.1538 21.2084 54.6907 22.3538 53.6248 23.4197C52.145 24.8997 51.3845 25.1234 47.5239 25.2163L44.0648 25.2993V19.6201V13.9406L47.4067 14.0497C49.8423 14.1292 51.0029 14.2678 51.6866 14.5602ZM27.3599 25.315L27.2971 31.002L24.1898 31.0674L21.0825 31.1328V25.3804V19.628H24.2526H27.4228L27.3599 25.315ZM27.3639 37.0407L27.2971 39.4445L24.1898 39.5099L21.0825 39.5753V37.1061V34.6369H24.2566H27.4308L27.3639 37.0407ZM57.1946 55.3537C55.5905 55.704 54.3844 56.4338 53.4417 57.624C52.8235 58.4047 49.5604 64.6824 48.9765 66.2147C48.7915 66.7004 48.6285 66.7224 44.607 66.8033C40.6998 66.8821 40.3466 66.9267 39.1401 67.4926C37.3097 68.3509 36.4572 69.1553 35.6359 70.799C35.0229 72.0257 34.9188 72.4955 34.9188 74.0353C34.9188 75.5751 35.0229 76.0448 35.6359 77.2716C36.0304 78.0609 36.6899 78.9912 37.1017 79.3388C37.9846 80.0843 39.9977 81.0637 40.6644 81.0721C41.8062 81.0864 41.7751 81.3561 40.2584 84.605L38.7883 87.7543L38.7165 97.8384C38.6687 104.544 38.729 108.211 38.8966 108.785C39.0352 109.259 39.4548 109.904 39.8291 110.219C40.5096 110.792 40.5096 110.793 40.587 113.949C40.6597 116.916 40.7022 117.162 41.2938 118.055C41.6723 118.626 42.333 119.203 42.9509 119.503C43.8997 119.962 44.3622 120 48.9896 120C53.6171 120 54.0795 119.962 55.0284 119.503C55.6463 119.203 56.3069 118.626 56.6854 118.055C57.2724 117.169 57.32 116.903 57.392 114.097L57.4694 111.088H65.3892C70.3147 111.088 73.5761 110.995 74.0153 110.842C74.6797 110.611 75.2552 109.809 75.2552 109.116C75.2552 108.946 75.0364 108.529 74.7691 108.189L74.2831 107.571H58.2358H42.1887L42.1958 98.1316L42.2026 88.6924L43.9241 85.0574L45.6457 81.4225L77.3987 81.3629L109.152 81.3036L110.906 84.9979L112.66 88.6924V98.0729V107.454L96.6703 107.514L80.6804 107.574L80.1957 108.19C79.3529 109.262 79.6605 110.392 80.9135 110.829C81.399 110.998 84.3726 111.088 89.4782 111.088H97.2995L97.3009 113.492C97.3023 116.284 97.5455 117.354 98.4127 118.384C99.6266 119.827 100.371 119.989 105.808 119.995C111.011 120 111.784 119.867 112.972 118.758C114.071 117.732 114.271 117.013 114.375 113.72C114.462 110.976 114.526 110.579 114.913 110.372C115.154 110.242 115.538 109.797 115.765 109.381C116.142 108.693 116.178 107.715 116.178 98.3075V87.9888L114.618 84.6616L113.059 81.334L114.261 81.0761C117.708 80.3369 119.92 77.5849 119.92 74.0353C119.92 71.1217 118.485 68.8218 115.864 67.5345C114.589 66.9084 114.369 66.8791 110.315 66.7956L106.094 66.7084L104.1 62.5957C101.848 57.9493 100.817 56.5874 98.8893 55.7164L97.6513 55.1569L78.0694 55.114C63.5318 55.0823 58.1544 55.144 57.1946 55.3537ZM97.8384 59.0909C98.1878 59.32 98.7551 59.9532 99.0994 60.498C99.6264 61.3328 107.384 77.4402 107.384 77.7C107.384 77.7481 93.9284 77.7875 77.4831 77.7875C59.6251 77.7875 47.5826 77.7014 47.5826 77.5736C47.5826 77.1937 55.0915 61.5254 55.8128 60.3997C56.458 59.3934 57.0478 58.9853 58.2529 58.7117C58.5109 58.653 67.3802 58.6207 77.9627 58.6399C95.9623 58.6723 97.2442 58.7013 97.8384 59.0909ZM46.8816 70.4589C46.883 70.5558 46.1178 72.256 45.1814 74.2374L43.4786 77.8403L42.1482 77.7204C39.69 77.4993 38.4365 76.2303 38.4365 73.9628C38.4365 72.7602 38.5198 72.5374 39.285 71.6904C39.7517 71.1737 40.4641 70.6552 40.868 70.5382C41.7603 70.2795 46.8781 70.2122 46.8816 70.4589ZM114.325 70.7298C115.732 71.3691 116.412 72.4457 116.412 74.0353C116.412 75.0214 116.28 75.5111 115.849 76.1147C115.162 77.0788 113.705 77.7755 112.362 77.7823L111.36 77.7875L109.606 74.1185C108.642 72.1005 107.853 70.412 107.853 70.3663C107.853 70.3206 109.093 70.2854 110.608 70.2882C112.787 70.2922 113.565 70.3848 114.325 70.7298ZM53.7144 86.9511C51.6148 87.3639 49.4068 89.2156 48.4566 91.3607C47.7385 92.9809 47.7793 95.3495 48.5541 97.0284C49.8447 99.8245 51.8946 101.256 54.8436 101.421C57.2098 101.553 58.8845 100.937 60.4696 99.3515C62.0551 97.7662 62.6716 96.0899 62.5361 93.7344C62.3396 90.3246 60.3544 87.9133 57.0309 87.0477C55.5602 86.6648 55.2214 86.6549 53.7144 86.9511ZM97.9407 86.9415C95.7358 87.4926 93.8754 89.0385 92.8702 91.1548C92.0717 92.836 92.0288 95.3967 92.7717 97.0462C93.9361 99.6318 96.251 101.236 99.0867 101.422C101.294 101.566 102.777 101.071 104.341 99.6646C107.351 96.9578 107.75 92.6751 105.282 89.5531C103.668 87.5107 100.365 86.3355 97.9407 86.9415ZM68.046 90.1436C66.8847 90.376 66.4121 92.1613 67.2817 93.0309C67.7357 93.4849 68.0634 93.4999 77.466 93.4999H87.1814L87.6673 92.882C88.3003 92.0776 88.2808 91.5635 87.5876 90.7575L87.0219 90.0995L77.7966 90.069C72.7229 90.0521 68.3349 90.0856 68.046 90.1436ZM57.2298 90.8197C58.9246 91.696 59.634 94.4954 58.5613 96.074C57.3564 97.8471 55.3628 98.4423 53.5348 97.5751C51.9928 96.8434 51.1214 94.9286 51.5707 93.2598C52.2358 90.7906 54.9282 89.6295 57.2298 90.8197ZM101.636 90.9191C102.034 91.1649 102.605 91.8037 102.906 92.3384C104.32 94.8542 102.467 97.9569 99.5513 97.9548C96.0946 97.9522 94.3953 93.8229 96.883 91.47C98.2725 90.1558 100.065 89.948 101.636 90.9191ZM67.8246 98.1918C66.7787 98.6133 66.4731 100.196 67.2817 101.004C67.7357 101.458 68.0634 101.473 77.466 101.473H87.1814L87.6673 100.855C88.3291 100.014 88.2785 99.4517 87.468 98.6412L86.7825 97.9557L77.5598 97.9705C72.4872 97.9787 68.1065 98.0783 67.8246 98.1918ZM24.3657 110.51C25.5866 111.22 26.0066 112.253 26.0068 114.548L26.0073 116.482H14.7506H3.49394V114.599C3.49394 113.523 3.63348 112.381 3.81921 111.937C4.17778 111.078 5.17447 110.26 6.07664 110.083C6.39746 110.02 10.459 109.983 15.1024 110.001C23.1349 110.032 23.5847 110.056 24.3657 110.51ZM53.9144 113.504C53.9144 115.07 53.8155 116.018 53.633 116.201C53.2362 116.598 44.7431 116.598 44.3463 116.201C44.1638 116.018 44.0648 115.07 44.0648 113.504V111.088H48.9896H53.9144V113.504ZM110.901 113.332C110.901 116.696 111.243 116.482 105.859 116.482C100.475 116.482 100.817 116.696 100.817 113.332V111.088H105.859H110.901V113.332Z" fill="#FFDE9F"/>
</g>
</svg>
