<svg width="40" height="40" viewBox="0 0 40 40" fill="none" xmlns="http://www.w3.org/2000/svg">
<mask id="mask0_502_4158" style="mask-type:alpha" maskUnits="userSpaceOnUse" x="0" y="0" width="40" height="40">
<path d="M0 0H40V40H0V0Z" fill="white"/>
</mask>
<g mask="url(#mask0_502_4158)">
<path d="M20.0002 14.9997C18.6741 14.9997 17.4023 15.5265 16.4646 16.4641C15.5269 17.4018 15.0002 18.6736 15.0002 19.9997C15.0002 21.3258 15.5269 22.5975 16.4646 23.5352C17.4023 24.4729 18.6741 24.9997 20.0002 24.9997C21.3262 24.9997 22.598 24.4729 23.5357 23.5352C24.4734 22.5975 25.0002 21.3258 25.0002 19.9997C25.0002 18.6736 24.4734 17.4018 23.5357 16.4641C22.598 15.5265 21.3262 14.9997 20.0002 14.9997ZM20.0002 11.6663C22.2103 11.6663 24.3299 12.5443 25.8927 14.1071C27.4555 15.6699 28.3335 17.7895 28.3335 19.9997C28.3335 22.2098 27.4555 24.3294 25.8927 25.8922C24.3299 27.455 22.2103 28.333 20.0002 28.333C17.79 28.333 15.6704 27.455 14.1076 25.8922C12.5448 24.3294 11.6668 22.2098 11.6668 19.9997C11.6668 17.7895 12.5448 15.6699 14.1076 14.1071C15.6704 12.5443 17.79 11.6663 20.0002 11.6663V11.6663ZM30.8335 11.2497C30.8335 11.8022 30.614 12.3321 30.2233 12.7228C29.8326 13.1135 29.3027 13.333 28.7502 13.333C28.1976 13.333 27.6677 13.1135 27.277 12.7228C26.8863 12.3321 26.6668 11.8022 26.6668 11.2497C26.6668 10.6971 26.8863 10.1672 27.277 9.77654C27.6677 9.38583 28.1976 9.16634 28.7502 9.16634C29.3027 9.16634 29.8326 9.38583 30.2233 9.77654C30.614 10.1672 30.8335 10.6971 30.8335 11.2497V11.2497ZM20.0002 6.66634C15.8768 6.66634 15.2035 6.67801 13.2852 6.76301C11.9785 6.82467 11.1018 6.99967 10.2885 7.31634C9.56516 7.59634 9.0435 7.93134 8.4885 8.48801C7.96684 8.99201 7.56575 9.60731 7.31516 10.288C6.9985 11.1047 6.8235 11.9797 6.7635 13.2847C6.67683 15.1247 6.66683 15.768 6.66683 19.9997C6.66683 24.123 6.6785 24.7963 6.7635 26.7147C6.82516 28.0197 7.00016 28.898 7.31516 29.7097C7.5985 30.4347 7.93183 30.9563 8.48516 31.5097C9.04683 32.0697 9.5685 32.4047 10.2852 32.6813C11.1085 32.9997 11.9852 33.1763 13.2852 33.2363C15.1252 33.323 15.7685 33.333 20.0002 33.333C24.1235 33.333 24.7968 33.3213 26.7152 33.2363C28.0185 33.1747 28.8968 32.9997 29.7102 32.6847C30.4318 32.403 30.9568 32.068 31.5102 31.5147C32.0718 30.953 32.4068 30.4313 32.6835 29.7147C33.0002 28.893 33.1768 28.0147 33.2368 26.7147C33.3235 24.8747 33.3335 24.2313 33.3335 19.9997C33.3335 15.8763 33.3218 15.203 33.2368 13.2847C33.1752 11.9813 33.0002 11.1013 32.6835 10.288C32.4323 9.60801 32.032 8.99294 31.5118 8.48801C31.0081 7.96608 30.3927 7.56495 29.7118 7.31467C28.8952 6.99801 28.0185 6.82301 26.7152 6.76301C24.8752 6.67634 24.2318 6.66634 20.0002 6.66634ZM20.0002 3.33301C24.5285 3.33301 25.0935 3.34967 26.8702 3.43301C28.6452 3.51634 29.8535 3.79467 30.9168 4.20801C32.0168 4.63134 32.9435 5.20467 33.8702 6.12967C34.7177 6.96283 35.3734 7.97066 35.7918 9.08301C36.2035 10.1447 36.4835 11.3547 36.5668 13.1297C36.6452 14.9063 36.6668 15.4713 36.6668 19.9997C36.6668 24.528 36.6502 25.093 36.5668 26.8697C36.4835 28.6447 36.2035 29.853 35.7918 30.9163C35.3746 32.0293 34.7187 33.0374 33.8702 33.8697C33.0368 34.7169 32.029 35.3726 30.9168 35.7913C29.8552 36.203 28.6452 36.483 26.8702 36.5663C25.0935 36.6447 24.5285 36.6663 20.0002 36.6663C15.4718 36.6663 14.9068 36.6497 13.1302 36.5663C11.3552 36.483 10.1468 36.203 9.0835 35.7913C7.97071 35.3738 6.96271 34.7179 6.13016 33.8697C5.28251 33.0367 4.62671 32.0288 4.2085 30.9163C3.79516 29.8547 3.51683 28.6447 3.4335 26.8697C3.35516 25.093 3.3335 24.528 3.3335 19.9997C3.3335 15.4713 3.35016 14.9063 3.4335 13.1297C3.51683 11.353 3.79516 10.1463 4.2085 9.08301C4.62556 7.96997 5.2815 6.96188 6.13016 6.12967C6.96295 5.28173 7.97088 4.62589 9.0835 4.20801C10.1468 3.79467 11.3535 3.51634 13.1302 3.43301C14.9068 3.35467 15.4718 3.33301 20.0002 3.33301Z" fill="#0B1315"/>
</g>
</svg>
