<svg width="60" height="60" viewBox="0 0 60 60" fill="none" xmlns="http://www.w3.org/2000/svg">
<path fill-rule="evenodd" clip-rule="evenodd" d="M14.1044 0.101289C13.0232 0.385342 12.0737 1.16517 11.587 2.16832C11.3559 2.64498 11.3021 2.94052 11.299 3.75095C11.2955 4.66465 11.3283 4.80885 11.6935 5.48609C12.1371 6.30883 12.505 6.66404 13.3884 7.12312C13.899 7.38841 14.1338 7.43425 14.9836 7.43425C15.8334 7.43425 16.0682 7.38841 16.5788 7.12312C17.4622 6.66404 17.8301 6.30883 18.2737 5.48609C18.6384 4.80967 18.6718 4.66348 18.6695 3.75095C18.6672 2.90418 18.6201 2.66456 18.3558 2.15578C17.8989 1.27665 17.5409 0.903741 16.7482 0.481237C15.9925 0.0784293 14.828 -0.0889776 14.1044 0.101289ZM51.5768 0.183C51.425 0.292377 51.2264 0.559665 51.1356 0.776896C50.9025 1.33492 51.1097 1.75789 52.0616 2.66655C52.7163 3.29152 52.8921 3.39925 53.2573 3.39925C53.8143 3.39925 54.0935 3.24111 54.324 2.79539C54.6327 2.19845 54.4702 1.78907 53.5698 0.895652C52.9167 0.247595 52.682 0.0883939 52.3101 0.0416185C51.9931 0.00164249 51.7683 0.0450182 51.5768 0.183ZM58.1835 0.215004C57.99 0.333057 57.5548 0.732817 57.2163 1.10327C56.6769 1.69365 56.6009 1.83819 56.6009 2.27301C56.6009 2.95424 57.0523 3.39925 57.7436 3.39925C58.1707 3.39925 58.3144 3.31989 58.9456 2.7356C59.9652 1.79154 60.1706 1.32144 59.8605 0.641024C59.7039 0.297184 59.2134 -0.000702147 58.8048 1.24315e-06C58.6565 0.000235707 58.3769 0.0969519 58.1835 0.215004ZM40.8332 1.21804C40.3319 1.43515 40.1652 1.68345 40.0557 2.3757C39.882 3.47498 39.2876 3.95458 37.9073 4.10932C35.8483 4.34027 34.3648 5.83732 34.2352 7.81525C34.1839 8.59578 34.2013 8.67702 34.4778 8.95346C34.8909 9.3667 35.3194 9.45134 35.8111 9.21688C36.2283 9.01782 36.5539 8.46155 36.5547 7.94573C36.5553 7.58958 36.939 6.9767 37.3162 6.72957C37.4835 6.61996 38.0689 6.45841 38.6169 6.37072C39.8821 6.16815 40.5825 5.81106 41.3395 4.98282C42.1843 4.05845 42.6152 2.64956 42.3039 1.83034C42.095 1.28099 41.3775 0.982286 40.8332 1.21804ZM15.9692 2.80665C16.277 3.11461 16.3318 3.25705 16.3318 3.75095C16.3318 4.25153 16.2784 4.38599 15.9485 4.71588C15.6186 5.04577 15.4842 5.09911 14.9836 5.09911C14.483 5.09911 14.3486 5.04577 14.0187 4.71588C13.6901 4.38728 13.6354 4.25059 13.6354 3.7581C13.6354 3.15553 13.9343 2.67921 14.4561 2.45003C14.8944 2.25753 15.5821 2.41955 15.9692 2.80665ZM25.5473 4.85246C25.222 5.03264 24.9584 5.4603 24.9524 5.81716C24.9502 5.9542 25.1322 6.46978 25.357 6.96298C27.3692 11.3787 27.1474 16.1182 24.7377 20.1923L24.2006 21.1005L21.5417 18.4642C19.7066 16.6449 18.7235 15.7557 18.3692 15.595C17.1762 15.0537 15.5436 15.4615 14.8432 16.4756C14.4491 17.0462 0.112283 56.0975 0.0181463 56.8569C-0.115849 57.937 0.503368 59.1069 1.50746 59.6705C1.93254 59.909 2.18189 59.9619 2.85011 59.9549C3.60016 59.9469 3.99828 59.8245 7.48077 58.531C10.8233 57.2894 20.938 53.5781 37.961 47.3472C40.7796 46.3156 43.2681 45.3366 43.5245 45.1586C44.5396 44.454 44.9463 42.8236 44.4047 41.6298C44.2423 41.2719 43.3292 40.2666 41.405 38.3271L38.6388 35.539L39.3488 35.0164C40.3527 34.2774 42.1873 33.3625 43.6069 32.893C45.2458 32.3509 46.7226 32.1209 48.5618 32.1215C51.0731 32.1223 52.8914 32.516 55.4073 33.6038C56.5096 34.0803 56.6528 34.115 57.0189 33.9941C57.5226 33.8279 57.7732 33.4783 57.7732 32.9416C57.7732 32.3659 57.5197 32.0568 56.7141 31.6501C53.9534 30.2565 51.2763 29.7001 47.8671 29.8113C45.805 29.8785 44.4411 30.1138 42.6503 30.7111C41.4091 31.125 38.9101 32.4179 37.9024 33.1673L36.9645 33.8647L36.028 32.9347L35.0914 32.0046L36.5685 30.5094C37.3811 29.6872 38.1322 28.8839 38.2378 28.7245C38.5233 28.2939 38.4794 27.743 38.1264 27.3235C37.8689 27.0173 37.7417 26.9628 37.2856 26.9628C36.7513 26.9628 36.7388 26.9723 35.0661 28.6307L33.3839 30.2984L29.625 26.5395L25.8662 22.7807L26.4159 21.9308C27.4697 20.3018 28.3318 18.1961 28.7734 16.1728C29.1119 14.6222 29.084 11.251 28.7194 9.62203C28.221 7.39603 27.2274 5.09126 26.6532 4.82971C26.2575 4.64941 25.9003 4.6568 25.5473 4.85246ZM52.5527 5.83345C51.9061 6.30367 51.0939 7.24773 51.0775 7.5482C51.0531 7.99403 51.1075 8.26038 51.277 8.52497C51.4609 8.81219 52.0525 9.01172 52.4786 8.93024C52.8194 8.86518 54.0899 7.70295 54.332 7.23472C54.695 6.53274 54.2361 5.68386 53.4231 5.55362C53.1071 5.50309 52.9281 5.56065 52.5527 5.83345ZM57.1606 5.68633C56.7544 5.91422 56.6009 6.2039 56.6009 6.74282C56.6009 7.10799 56.7086 7.28384 57.3336 7.93846C58.2454 8.89367 58.6647 9.09789 59.2294 8.8619C59.7866 8.62908 60.0485 8.19508 59.9602 7.65101C59.9063 7.31901 59.7036 7.03156 59.091 6.41902C58.2062 5.53416 57.7444 5.3589 57.1606 5.68633ZM50.6037 12.1206C48.9035 12.7278 47.8982 14.0119 47.6894 15.8427C47.5214 17.3154 47.0714 17.8584 45.8548 18.0564C45.13 18.1743 44.9424 18.2915 44.6867 18.7859C44.449 19.2456 44.5745 19.733 45.0291 20.1156C45.3652 20.3984 45.4635 20.4206 46.1405 20.3662C47.5738 20.2512 48.9314 19.3074 49.5745 17.9791C49.7135 17.6919 49.8974 16.9872 49.9831 16.4135C50.0689 15.8396 50.2267 15.2363 50.334 15.0725C50.6083 14.654 51.1719 14.3429 51.8259 14.2495C52.6493 14.1317 53.0253 13.7623 53.0253 13.0709C53.0253 12.616 52.9695 12.475 52.6963 12.24C52.4297 12.0107 52.2411 11.9581 51.6999 11.9623C51.3327 11.9651 50.8395 12.0363 50.6037 12.1206ZM35.7336 12.6008C34.8437 12.8915 34.0866 13.5622 33.6234 14.4703C33.2599 15.183 33.2134 15.3761 33.2156 16.1657C33.2185 17.2665 33.5164 17.9897 34.2922 18.7795C35.0375 19.5382 35.7968 19.8528 36.9059 19.8626C37.9601 19.8717 38.8417 19.5172 39.5659 18.7929C40.319 18.0399 40.5926 17.3441 40.5947 16.1775C40.5967 15.0237 40.3691 14.3978 39.6636 13.6168C38.7665 12.6239 37.0338 12.1759 35.7336 12.6008ZM37.6132 14.9486C38.3913 15.3509 38.5248 16.4884 37.8709 17.1424C37.1856 17.8275 36.0864 17.6172 35.658 16.7189C35.0946 15.5374 36.424 14.3336 37.6132 14.9486ZM29.8425 30.1572C38.9207 39.2351 42.2986 42.6837 42.2986 42.8741C42.2986 43.0183 42.1803 43.209 42.0348 43.2995C41.8897 43.3898 40.1999 44.0343 38.2795 44.7319L34.788 46.0001L31.2998 42.5189C27.8473 39.0734 27.8064 39.0377 27.3242 39.0377C26.595 39.0377 26.1792 39.4382 26.1792 40.1404V40.6773L29.2793 43.779C32.2215 46.7228 32.3647 46.8862 32.0929 46.9893C31.9353 47.049 31.1831 47.3251 30.4215 47.603L29.0366 48.1081L20.4643 39.5358L11.892 30.9635L12.3971 29.5786C12.675 28.817 12.9511 28.0648 13.0108 27.9072C13.1139 27.6354 13.2773 27.7786 16.2211 30.7208L19.3228 33.8209H19.8597C20.5619 33.8209 20.9624 33.4051 20.9624 32.6759C20.9624 32.1937 20.9265 32.1528 17.4817 28.7009L14.0011 25.213L15.2694 21.721C15.9671 19.8004 16.6114 18.1104 16.7013 17.9653C16.7914 17.8197 16.9816 17.7015 17.1255 17.7015C17.3154 17.7015 20.7764 21.0913 29.8425 30.1572ZM54.853 19.1993C54.1146 19.488 53.269 20.2949 52.8846 21.0774C52.6074 21.642 52.5566 21.8919 52.5581 22.6839C52.5601 23.7819 52.8016 24.4217 53.5103 25.2078C54.923 26.7744 57.5753 26.7744 58.988 25.2078C59.698 24.4203 59.9384 23.7819 59.9384 22.6839C59.9384 21.5745 59.6903 20.9263 58.9638 20.1382C58.2356 19.3483 57.5582 19.0579 56.3664 19.0248C55.6472 19.0048 55.2261 19.0533 54.853 19.1993ZM57.0443 21.5187C57.3736 21.7493 57.6559 22.2872 57.6559 22.6839C57.6559 23.0806 57.3736 23.6184 57.0443 23.849C56.9005 23.9499 56.5433 24.032 56.2492 24.032C55.6433 24.032 55.2721 23.8197 55.0175 23.3274C54.6957 22.705 54.886 21.9165 55.454 21.5187C55.5978 21.4179 55.955 21.3357 56.2492 21.3357C56.5433 21.3357 56.9005 21.4179 57.0443 21.5187ZM40.4076 23.2957C39.531 24.1156 39.3273 24.6129 39.6122 25.2381C39.7668 25.5774 40.2971 25.9077 40.6871 25.9077C41.381 25.9077 42.6503 24.564 42.6503 23.8296C42.6503 23.2353 42.1205 22.7425 41.4819 22.7425C41.068 22.7425 40.9145 22.8215 40.4076 23.2957ZM26.4988 49.012C26.4256 49.0761 24.8416 49.6639 19.7217 51.5272L18.6571 51.9148L13.3688 46.6192L8.08076 41.3237L9.48097 37.5137C10.2512 35.4182 10.9099 33.6271 10.9448 33.5335C10.9874 33.4196 13.5848 35.9395 18.7962 41.1504C23.0795 45.4334 26.5457 48.9711 26.4988 49.012ZM22.9355 35.4656C22.3344 35.792 22.2378 36.777 22.7602 37.2546C23.5635 37.9893 24.7138 37.4498 24.7138 36.3382C24.7138 35.5241 23.723 35.038 22.9355 35.4656ZM51.6771 40.9454C51.3071 41.1293 50.97 41.8136 51.0508 42.2164C51.0853 42.3886 51.4866 42.895 51.9661 43.3712C52.7129 44.1129 52.8736 44.2193 53.2477 44.2193C53.7826 44.2193 54.1765 43.968 54.3688 43.5039C54.5875 42.9757 54.4388 42.6056 53.6934 41.8242C52.7384 40.8229 52.3041 40.6336 51.6771 40.9454ZM58.0475 41.1324C57.7922 41.3174 57.3626 41.7263 57.0929 42.0409C56.4799 42.7562 56.4143 43.3912 56.903 43.8798C57.4912 44.4681 58.1425 44.3414 59.0375 43.4644C60.1231 42.4007 60.2595 41.8523 59.602 41.1948C59.1005 40.6932 58.6773 40.6762 58.0475 41.1324ZM11.7552 48.2944C14.2021 50.742 16.1781 52.7707 16.1461 52.8027C16.1142 52.8346 15.378 53.1225 14.5101 53.4423L12.932 54.0239L9.45565 50.5581L5.97938 47.0921L6.39121 45.9664C6.61771 45.3472 6.88136 44.6164 6.97702 44.3424C7.0728 44.0685 7.18593 43.8442 7.2286 43.8442C7.27115 43.8442 9.30817 45.8467 11.7552 48.2944ZM52.7599 46.4953C52.2571 46.7493 51.1373 47.9652 51.0668 48.3336C50.9015 49.1989 51.7287 49.9789 52.5309 49.7142C52.9311 49.5821 54.123 48.4485 54.3709 47.9643C54.5596 47.5953 54.433 46.989 54.1023 46.6783C53.7325 46.331 53.2226 46.2615 52.7599 46.4953ZM57.2256 46.477C56.7749 46.673 56.6009 46.9703 56.6009 47.544C56.6009 47.9242 56.7068 48.0853 57.472 48.8679C58.2817 49.6963 58.3775 49.7591 58.8321 49.7591C59.2394 49.7591 59.3802 49.693 59.6741 49.364C59.9775 49.0245 60.0182 48.9033 59.964 48.4999C59.9141 48.1275 59.7602 47.8873 59.2182 47.3354C58.5437 46.6486 58.0466 46.3017 57.7497 46.3106C57.6659 46.3132 57.43 46.388 57.2256 46.477ZM7.82812 52.2218C9.27535 53.6702 10.4339 54.8806 10.4029 54.9118C10.3717 54.9429 8.67219 55.5813 6.62626 56.3304C4.30168 57.1815 2.82104 57.6655 2.67895 57.6204C2.55399 57.5808 2.41952 57.4468 2.38025 57.3228C2.3105 57.1031 4.98056 49.5885 5.12828 49.5885C5.16591 49.5885 6.38078 50.7735 7.82812 52.2218Z" fill="#FFDE9F"/>
</svg>
