<svg width="60" height="60" viewBox="0 0 60 60" fill="none" xmlns="http://www.w3.org/2000/svg">
<mask id="mask0_502_3436" style="mask-type:alpha" maskUnits="userSpaceOnUse" x="0" y="0" width="60" height="60">
<rect width="60" height="60" fill="white"/>
</mask>
<g mask="url(#mask0_502_3436)">
<path fill-rule="evenodd" clip-rule="evenodd" d="M40.6645 1.17139C39.5407 1.4721 38.5708 2.17054 37.7932 3.23895C37.571 3.54423 37.5348 3.55407 37.0902 3.42985C36.2777 3.20297 34.8119 3.36434 33.9281 3.7779C32.9121 4.25345 31.9808 5.18792 31.4896 6.22492C31.1407 6.96157 31.1136 7.10735 31.1136 8.24923C31.1136 9.39053 31.1408 9.53714 31.4887 10.2718C31.6951 10.7074 32.1302 11.3452 32.4555 11.6893L33.0472 12.3149V14.0321V15.7493L32.7249 15.75C31.782 15.7519 30.8421 16.3574 30.4532 17.2131C30.2853 17.583 30.2392 17.9833 30.2372 19.0936C30.235 20.3287 30.2675 20.5687 30.4983 21.0204C30.8996 21.8057 31.4582 22.1862 32.4574 22.3546L33.3028 22.497L33.5083 23.0783C33.9592 24.3533 34.875 25.7068 35.7994 26.4643C36.3203 26.8912 36.3285 26.9088 36.3285 27.6045C36.3285 28.8183 36.4037 28.7635 32.3347 30.5173C27.5635 32.5737 27.5263 32.6103 27.4442 35.343L27.3959 36.9483L26.7938 36.4956C25.6007 35.5985 23.7156 34.8181 22.3244 34.6453L21.6213 34.558L21.559 33.6205C21.4869 32.5388 21.2502 32.039 20.6252 31.6496C20.2321 31.4046 20.0926 31.394 17.2853 31.394C14.541 31.394 14.3297 31.4092 13.9458 31.6347C13.2355 32.052 13.0079 32.5233 13.0079 33.5771C13.0079 34.4361 12.9911 34.4982 12.7443 34.545C10.5321 34.9636 9.4481 35.3446 8.22945 36.1324C7.30683 36.7286 6.06545 37.9073 5.44681 38.7742C4.95708 39.4605 4.08578 41.1307 3.95336 41.6367C3.89195 41.8715 3.8159 41.8824 2.23221 41.8824C0.629303 41.8824 0.565904 41.8917 0.287698 42.1701C0.129493 42.3283 0 42.5943 0 42.7613C0 43.1498 0.487387 43.6402 0.873641 43.6402C1.16568 43.6402 1.17189 43.6578 1.17235 44.4898C1.17271 45.1257 1.23036 45.4339 1.40158 45.7146C1.64627 46.116 2.18041 46.4527 2.57229 46.4527C2.80268 46.4527 2.81253 46.518 2.81253 48.0464C2.81253 49.8095 2.92093 50.2117 3.535 50.7284C3.72355 50.887 4.08637 51.0731 4.34125 51.1417L4.80473 51.2665V52.1995V53.1325H2.98245C0.94747 53.1325 0.627311 53.2184 0.22969 53.8706C0.0324613 54.1941 0.00082032 54.4656 0.000468755 55.8398C0 57.3054 0.0215627 57.4658 0.26719 57.8303C0.414145 58.0483 0.664694 58.2926 0.823836 58.3733C1.05259 58.4891 6.27815 58.5201 25.7522 58.5214C50.2361 58.5232 50.3926 58.5216 50.6255 58.2888C50.9745 57.9398 50.938 57.3126 50.5511 57.0083L50.2423 56.7653H26.0001H1.75783V55.8278V54.8903H30.0003H58.2427V55.8278V56.7653H56.1492C54.2085 56.7653 54.033 56.783 53.7468 57.0083C53.3598 57.3126 53.3234 57.9398 53.6724 58.2888C53.8922 58.5086 54.0618 58.523 56.397 58.5214C59.1349 58.5195 59.2906 58.4873 59.7334 57.8303C59.9791 57.4656 60.0006 57.3056 60 55.8398C59.9994 54.5089 59.9644 54.1881 59.7872 53.8963C59.5823 53.559 59.5823 53.5275 59.7878 52.9869C60.0561 52.2808 60.0559 51.878 59.7872 51.4354C59.5823 51.0981 59.5823 51.0666 59.7878 50.526C60.0619 49.8047 60.0571 49.3686 59.771 49.005C59.5431 48.7153 59.5431 48.709 59.771 48.1091C60.064 47.3381 60.0613 46.913 59.761 46.5314C59.5301 46.2377 59.5287 46.213 59.7237 45.8417C59.8352 45.6292 59.9294 45.1822 59.9339 44.8443C59.9407 44.3258 59.8923 44.1821 59.6174 43.9068C59.3041 43.593 59.2435 43.5802 57.8888 43.5425L56.4849 43.5034V42.1602C56.4849 40.8904 56.4692 40.8013 56.1972 40.5294C55.8307 40.1627 55.3814 40.1627 55.0148 40.5294C54.7426 40.8015 54.7271 40.8898 54.7271 42.1701V43.523H49.6763H44.6254L44.227 43.9215C43.7692 44.3792 43.7146 44.8114 44.0093 45.6462C44.1743 46.1142 44.173 46.196 43.9932 46.5945C43.7741 47.0805 43.8126 47.7437 44.0926 48.3049C44.2473 48.6151 44.2432 48.6743 44.0486 48.9272C43.7714 49.2878 43.7718 50.0079 44.0497 50.6197C44.2598 51.0824 44.2598 51.1024 44.0471 51.365C43.8074 51.6611 43.7586 52.3473 43.9428 52.8319L44.0571 53.1325H41.1276H38.198L38.23 43.9625L38.2621 34.7925L38.5177 34.3237C38.6583 34.0659 40.0294 32.6089 41.5646 31.0859C44.093 28.5777 44.4069 28.3048 44.8974 28.1876C45.1953 28.1165 45.5177 28.0281 45.6139 27.9912C45.7453 27.9408 45.8081 28.0447 45.8665 28.41C45.9092 28.6773 46.0436 29.0889 46.1652 29.3247C46.62 30.2069 47.0176 30.4449 50.6895 32.0324C53.0849 33.0683 54.2835 33.6472 54.4634 33.8557C54.7087 34.1397 54.7271 34.2711 54.7271 35.7418C54.7271 37.264 54.7378 37.3333 55.0148 37.6103C55.3814 37.9769 55.8307 37.9769 56.1972 37.6103C56.4751 37.3325 56.4849 37.2671 56.4849 35.6914C56.4849 33.9249 56.3702 33.3881 55.8454 32.7001C55.4524 32.1848 54.9916 31.9495 51.3286 30.3937C49.6206 29.6681 48.0948 28.9528 47.938 28.8039C47.7144 28.5917 47.642 28.3822 47.6023 27.8326L47.5515 27.1321L48.4849 26.2161C49.4687 25.2507 50.2369 24.0874 50.5645 23.067L50.7547 22.4746L51.5319 22.3415C52.3789 22.1964 52.7086 22.0021 53.2554 21.3265L53.6138 20.8838V19.0976C53.6138 17.3377 53.609 17.3044 53.2899 16.844C52.8986 16.2793 52.2448 15.8912 51.5168 15.7914L50.9771 15.7174V14.0237V12.3301L51.5093 11.7252C51.8021 11.3926 52.2107 10.7786 52.4175 10.3611C52.775 9.63921 52.7935 9.53538 52.7935 8.25169C52.7935 6.95219 52.7787 6.87203 52.3982 6.11382C51.6046 4.5326 49.9892 3.44755 48.2907 3.35497C47.8023 3.32837 47.1655 3.36282 46.8755 3.43161C46.3889 3.54692 46.3345 3.53638 46.1727 3.29544C44.933 1.4503 42.7574 0.611465 40.6645 1.17139ZM42.9628 2.91446C43.7735 3.15528 44.4547 3.77696 44.8767 4.66115C45.3604 5.67472 45.6045 5.77362 46.6203 5.36733C48.3206 4.68705 50.0885 5.33288 50.8187 6.90074C51.0067 7.30446 51.0924 7.70267 51.0931 8.17705C51.0948 9.25377 50.8923 9.74444 50.1198 10.5344C49.7416 10.9211 49.3843 11.3597 49.3257 11.5088C49.2672 11.658 49.2192 12.4359 49.2192 13.2374V14.6946H42.0121H34.805V13.1042V11.5139L34.0578 10.7898C33.1517 9.91167 32.9169 9.47632 32.8413 8.53424C32.7588 7.5072 33.0357 6.7484 33.756 6.02827C34.7352 5.04893 36.1747 4.81865 37.5195 5.42616C38.2974 5.77761 38.5378 5.6514 39.1029 4.59541C39.9354 3.03985 41.334 2.43082 42.9628 2.91446ZM20.9014 8.94322C20.6026 9.07354 20.2736 9.51346 20.2736 9.783C20.2736 9.88882 20.3777 10.1077 20.5048 10.2693C20.7221 10.5457 20.8154 10.5663 22.0595 10.614C23.5875 10.6725 23.9657 10.8268 24.378 11.5606C24.8003 12.3118 24.562 13.2409 23.8227 13.7262C23.5472 13.907 23.1034 13.9403 20.2794 13.9915L17.0509 14.0501L16.4352 14.3912C15.3691 14.982 14.883 15.8438 14.883 17.1433C14.883 17.8848 14.911 17.9809 15.1917 18.2017C15.589 18.5143 15.8503 18.5085 16.2337 18.1787C16.4807 17.9663 16.5602 17.7651 16.6295 17.1769C16.6972 16.6033 16.7861 16.371 17.0325 16.1243L17.3487 15.8079L20.5984 15.7481C24.3674 15.6788 24.4808 15.6522 25.429 14.6148C26.4502 13.4973 26.6322 12.0875 25.9319 10.7182C25.5558 9.98292 24.7489 9.30088 23.9831 9.07096C23.3682 8.88627 21.2348 8.79791 20.9014 8.94322ZM8.49618 15.2873C7.83359 15.4813 6.86362 16.1596 6.43354 16.7297C4.87798 18.792 5.63771 21.7714 7.99332 22.8464C8.6811 23.1602 8.85032 23.1859 10.5143 23.2285L12.2979 23.2742L12.6649 22.9073C12.9607 22.6114 13.0172 22.4785 12.9563 22.221C12.8059 21.5854 12.5436 21.4917 10.9148 21.4908C9.25075 21.4901 8.72352 21.3841 8.20168 20.945C6.96675 19.9059 7.17476 17.852 8.58407 17.1697C9.03759 16.9503 9.30349 16.9212 10.8612 16.9212C12.4679 16.9212 12.6523 16.8996 12.9335 16.6783C13.3205 16.3739 13.3569 15.7467 13.0079 15.3977C12.7913 15.1811 12.6252 15.1642 10.8107 15.1739C9.73099 15.1798 8.68954 15.2307 8.49618 15.2873ZM49.2192 18.8888C49.2192 20.6984 49.173 21.5023 49.0398 22.014C48.4799 24.1638 46.7168 25.9094 44.538 26.4714C43.3792 26.7702 39.9344 26.6803 38.983 26.3265C37.2347 25.6761 35.8825 24.341 35.1856 22.5767C34.8849 21.8156 34.871 21.6799 34.8293 19.1185L34.7858 16.4524H42.0025H49.2192V18.8888ZM37.5373 17.508C37.1702 17.6558 37.0316 17.9874 37.0316 18.7169C37.0316 19.4679 37.2568 19.8145 37.8149 19.9223C38.1158 19.9804 38.2461 19.9361 38.4887 19.6935C38.7457 19.4365 38.7894 19.2891 38.7894 18.679C38.7894 18.0774 38.7442 17.92 38.5017 17.6776C38.2009 17.3767 37.9657 17.3353 37.5373 17.508ZM45.629 17.5271C44.8432 17.9076 44.9829 19.7255 45.8118 19.9075C46.518 20.0627 46.8755 19.6309 46.8755 18.6228C46.8755 18.0809 46.8248 17.9146 46.5878 17.6776C46.2812 17.371 46.032 17.3318 45.629 17.5271ZM33.0472 19.1038V20.7005L32.6663 20.6258C32.083 20.5111 31.9925 20.2948 31.9925 19.0149C31.9925 17.9667 32.0141 17.8568 32.253 17.6896C32.3962 17.5893 32.6335 17.5071 32.7804 17.5071C33.045 17.5071 33.0472 17.5204 33.0472 19.1038ZM51.6541 17.6896C51.8949 17.8582 51.9146 17.9641 51.9146 19.0932C51.9146 20.2653 51.9028 20.3219 51.6225 20.5056C51.0565 20.8764 50.9771 20.7049 50.9771 19.1124C50.9771 17.4051 51.0448 17.2628 51.6541 17.6896ZM40.9415 17.7589C40.5443 17.9553 40.4301 18.3727 40.4301 19.6279C40.4301 21.447 40.7363 21.8431 42.1424 21.8431C43.159 21.8431 43.516 21.6298 43.516 21.0226C43.516 20.5417 43.0373 20.0853 42.5329 20.0853H42.1879V19.1608C42.1879 18.4507 42.1403 18.18 41.9828 17.9938C41.731 17.6963 41.2758 17.5935 40.9415 17.7589ZM14.7658 21.7259C14.4499 22.0417 14.4562 22.6762 14.778 22.9675C14.9868 23.1567 15.2687 23.1999 16.6237 23.2509C18.3856 23.3171 18.6642 23.4144 19.0871 24.1111C19.574 24.9136 19.4981 25.7845 18.8825 26.4572C18.3844 27.0015 17.9622 27.1166 16.4635 27.1166C15.1792 27.1166 15.0913 27.132 14.8191 27.4043C14.4478 27.7756 14.4525 28.2203 14.8319 28.5996C15.1314 28.899 15.138 28.9 16.7948 28.8519C18.3186 28.8079 18.5079 28.7776 19.0651 28.4893C19.8594 28.0784 20.4692 27.4463 20.8416 26.6478C21.7072 24.7928 20.7297 22.4547 18.7844 21.7269C18.269 21.5341 17.8706 21.4915 16.5777 21.4915C15.1564 21.4915 14.9769 21.5148 14.7658 21.7259ZM38.5551 22.7806C38.4127 22.923 38.3207 23.1712 38.3207 23.413C38.3207 23.9151 38.8594 24.417 39.9558 24.9365C40.6693 25.2747 40.8133 25.3002 42.0121 25.3002C43.209 25.3002 43.3557 25.2744 44.0629 24.9391C45.5361 24.2409 46.0728 23.4028 45.4324 22.801C45.0508 22.4426 44.621 22.4835 43.9753 22.9396C43.2752 23.4343 42.7824 23.6011 42.024 23.6002C41.197 23.5994 40.6861 23.4361 40.0121 22.9568C39.358 22.4918 38.8994 22.4363 38.5551 22.7806ZM38.9002 28.1296C39.4428 28.2805 39.7146 28.4455 40.1521 28.8897L40.7109 29.457L38.8889 31.3043C37.3298 32.8853 37.0263 33.2533 36.7856 33.8549L36.5043 34.5581L36.4716 43.8453L36.4389 53.1325H33.0438H29.6487V52.1966V51.2609L30.1712 51.1293C30.8174 50.9666 31.4697 50.3577 31.6348 49.763C31.702 49.5214 31.7571 48.6838 31.7574 47.9013L31.7581 46.4789L32.154 46.4046C32.969 46.2516 33.3968 45.5128 33.3981 44.2554C33.3986 43.7273 33.4306 43.6402 33.6235 43.6402C34.0046 43.6402 34.2207 43.5082 34.3967 43.1678C34.5976 42.7794 34.445 42.1832 34.0973 41.9971C33.9794 41.934 33.1541 41.8824 32.2633 41.8824H30.6437L30.3638 41.1499C30.2098 40.7472 29.8805 40.0655 29.632 39.6354L29.18 38.8532L29.1804 36.5885C29.1808 34.5807 29.2057 34.2828 29.4006 33.9633C29.5885 33.6553 30.0346 33.4258 32.4764 32.3813C36.6375 30.6013 37.1292 30.3391 37.5854 29.6564C37.8196 29.306 37.9926 28.8714 38.04 28.5138C38.0821 28.1965 38.1368 27.9369 38.1618 27.9369C38.1866 27.9369 38.519 28.0236 38.9002 28.1296ZM19.7814 33.8256L19.8166 34.4995H17.2912H14.7658V33.794V33.0885L17.256 33.1202L19.7463 33.1518L19.7814 33.8256ZM39.3649 36.2422C38.7859 36.7111 39.1579 37.7808 39.8999 37.7808C40.3478 37.7808 40.7816 37.3483 40.7816 36.9019C40.7816 36.1768 39.9334 35.7819 39.3649 36.2422ZM43.903 36.2659C43.4759 36.6017 43.4759 37.202 43.903 37.5378C44.5298 38.031 45.2817 37.6841 45.2817 36.9019C45.2817 36.1196 44.5298 35.7727 43.903 36.2659ZM22.9104 36.5286C24.6052 37.0101 26.2858 38.1015 27.3653 39.4214C27.8775 40.0477 28.7112 41.4919 28.7112 41.753C28.7112 41.8465 25.5243 41.8824 17.2252 41.8824H5.73908L5.92142 41.4429C6.64377 39.7018 8.15586 38.0967 9.90244 37.217C11.6706 36.3265 12.1191 36.273 17.5783 36.3033C21.5341 36.3251 22.3095 36.3579 22.9104 36.5286ZM39.3115 41.3497C38.9924 41.6687 38.9613 41.8513 39.1539 42.2741C39.2843 42.5602 39.7015 42.8199 40.0308 42.8199C40.339 42.8199 40.7816 42.2704 40.7816 41.8876C40.7816 41.1191 39.8741 40.787 39.3115 41.3497ZM43.8285 41.2964C43.4046 41.7204 43.5809 42.4971 44.1502 42.7136C44.552 42.8663 45.043 42.6668 45.2196 42.2791C45.4146 41.8512 45.3842 41.6696 45.0643 41.3497C44.7092 40.9945 44.1543 40.9706 43.8285 41.2964ZM31.6409 44.1675V44.6949H17.2853H2.92972V44.1675V43.6402H17.2853H31.6409V44.1675ZM57.7154 45.6324L57.3786 45.984H51.9085C46.5519 45.984 46.4319 45.9789 46.1295 45.741C45.9597 45.6076 45.8208 45.4494 45.8208 45.3895C45.8208 45.3241 48.2565 45.2808 51.9365 45.2808H58.0522L57.7154 45.6324ZM39.6409 46.1125C39.3566 46.2178 39.0238 46.6596 39.0238 46.9318C39.0238 47.0376 39.1331 47.2632 39.2667 47.433C39.7442 48.04 40.7816 47.7076 40.7816 46.9476C40.7816 46.3059 40.2232 45.8971 39.6409 46.1125ZM30.0003 47.8355C30.0003 48.7548 29.9532 49.2655 29.8597 49.359C29.7533 49.4654 27.9071 49.4996 22.2685 49.4996C13.9123 49.4996 14.297 49.4606 14.297 50.3085C14.297 50.6108 14.3756 50.8235 14.5436 50.9756C14.7773 51.1871 15.0685 51.2006 20.11 51.2316L25.4299 51.2644V52.1984V53.1325H17.2267H9.02352V52.206V51.2794L10.1833 51.2392C11.557 51.1915 11.8361 51.0343 11.8361 50.3085C11.8361 49.5169 11.7569 49.4996 8.12809 49.4996C6.3753 49.4996 4.8577 49.4676 4.75575 49.4285C4.60047 49.369 4.57036 49.1212 4.57036 47.905V46.4527H17.2853H30.0003V47.8355ZM57.6842 48.0968L57.3015 48.4449H51.9086C47.22 48.4449 46.4792 48.421 46.2367 48.2621C46.0831 48.1616 45.9284 48.0034 45.8928 47.9106C45.837 47.765 46.6685 47.7423 51.9475 47.7452L58.067 47.7487L57.6842 48.0968ZM57.6842 50.5577L57.3015 50.9059H51.9146H46.5276L46.1449 50.5577L45.7622 50.2097H51.9146H58.067L57.6842 50.5577ZM39.5302 51.1624C38.9666 51.4349 38.935 52.3652 39.4792 52.6566C40.3986 53.1485 41.2864 51.9059 40.4728 51.266C40.1338 50.9993 39.9169 50.9754 39.5302 51.1624ZM7.26569 52.195V53.1325H6.91413H6.56256V52.195V51.2575H6.91413H7.26569V52.195ZM27.8909 52.2027V53.1481L27.5686 53.1109C27.2514 53.0745 27.2458 53.0597 27.2121 52.1657L27.1779 51.2575H27.5344H27.8909V52.2027ZM57.8326 52.8981C57.626 53.1264 57.4716 53.1325 51.9146 53.1325C46.3575 53.1325 46.2031 53.1264 45.9965 52.8981C45.7847 52.664 45.7918 52.6637 51.9146 52.6637C58.0373 52.6637 58.0445 52.664 57.8326 52.8981Z" fill="#FFDE9F"/>
</g>
</svg>
