<svg width="60" height="60" viewBox="0 0 60 60" fill="none" xmlns="http://www.w3.org/2000/svg">
<mask id="mask0_502_3442" style="mask-type:alpha" maskUnits="userSpaceOnUse" x="0" y="0" width="60" height="60">
<rect width="60" height="60" fill="white"/>
</mask>
<g mask="url(#mask0_502_3442)">
<path fill-rule="evenodd" clip-rule="evenodd" d="M29.6248 3.23678C28.7537 3.6967 28.7799 3.49165 28.7129 10.3812C28.6393 17.9721 28.8406 17.1568 26.4249 19.65C25.0522 21.0668 24.6791 21.5282 24.3323 22.2378C23.9425 23.0353 23.5375 24.3821 23.3823 25.3969L23.3181 25.8167L22.6728 25.7633C21.689 25.6817 21.0261 25.9202 20.3161 26.6115C19.8361 27.079 19.6656 27.3485 19.5111 27.8849C19.1243 29.2269 19.5078 30.3909 20.7438 31.6269C21.1942 32.0774 21.5627 32.4667 21.5627 32.4922C21.5627 32.5179 21.3386 32.539 21.0645 32.5394C20.2864 32.5404 17.4011 32.9905 16.1699 33.3029C14.2243 33.7966 12.7188 34.3694 12.3783 34.7456C12.07 35.0863 12.1618 35.6796 12.5698 35.9829C12.8907 36.2214 12.9083 36.2221 13.4491 36.0185C17.2014 34.6058 20.7517 34.0699 25.3729 34.2189C35.4312 34.5431 40.8466 38.2716 42.3157 45.8843C42.4458 46.5587 42.5857 47.6566 42.6264 48.3242L42.7008 49.538H33.2676C23.9364 49.538 23.8316 49.5405 23.5779 49.777C23.233 50.0984 23.233 50.7361 23.5779 51.0575C23.8318 51.294 23.9337 51.2965 33.6954 51.2965H43.5565L43.8042 51.8827L44.0518 52.4689H24.0732H4.09459V52.0767C4.09459 51.2532 3.63209 51.2965 12.4347 51.2965C20.2344 51.2965 20.3498 51.2931 20.6027 51.0575C20.9476 50.7361 20.9476 50.0984 20.6027 49.777C20.3501 49.5417 20.2311 49.538 12.9645 49.538H5.58301L5.65734 48.3242C5.90447 44.2844 7.29747 40.9033 9.6831 38.5525C10.2703 37.9741 10.4253 37.7471 10.4253 37.4661C10.4253 36.9888 10.0593 36.642 9.55554 36.642C8.537 36.642 6.14305 39.7208 5.134 42.328C4.42566 44.1583 3.86012 47.0656 3.86012 48.8766C3.86012 49.608 3.85871 49.6111 3.35436 49.9666C2.75681 50.3877 2.43125 51.0049 2.35926 51.8534L2.30698 52.4689H1.84788C1.16088 52.4689 0.508347 52.853 0.213382 53.431C0.00610962 53.8375 -0.0274198 54.0647 0.0174815 54.7632C0.0816094 55.7637 0.372237 56.3157 1.08163 56.7851L1.5569 57.0997H30.0037H58.4505L58.9257 56.7851C59.6351 56.3157 59.9257 55.7637 59.9899 54.7632C60.0586 53.6924 59.78 53.0614 59.0812 52.7049C58.6746 52.4975 58.3914 52.4689 56.7446 52.4689H54.8705L55.1424 51.8534C55.5833 50.8555 55.7159 50.0346 55.6517 48.7003C55.5877 47.3672 55.4471 46.934 55.0151 46.7372C54.6172 46.556 54.4565 46.5732 54.1379 46.8313C53.8703 47.0481 53.8611 47.1114 53.8611 48.7364C53.8611 50.3203 53.8427 50.4565 53.5425 51.0972C53.3673 51.4712 53.1126 51.9337 52.9764 52.1249L52.7289 52.4725L49.4389 52.4413C45.7596 52.4066 46.013 52.4737 45.8877 51.5011C45.8384 51.1172 45.6864 50.774 45.3998 50.3984L44.9835 49.8531L45.0381 48.787C45.0841 47.8885 45.197 47.41 45.7561 45.7437C46.8856 42.3771 47.348 40.1427 47.3525 38.0292C47.3536 37.4702 47.3866 36.9295 47.4257 36.8275C47.4867 36.6685 47.7784 36.642 49.4636 36.642C51.749 36.642 51.5692 36.5173 51.5756 38.1075C51.5826 39.8407 52.2536 43.4371 52.6963 44.1139C53.043 44.6438 53.9036 44.5661 54.1703 43.9808C54.2742 43.7529 54.2385 43.4526 53.9926 42.4842C53.6065 40.9641 53.369 39.3005 53.3004 37.6381L53.2473 36.3479L53.8895 36.0644C55.1577 35.5047 56.1102 34.2372 56.3868 32.741C56.4531 32.3823 56.5186 31.4209 56.5325 30.6048C56.5571 29.1501 56.5518 29.1161 56.2645 28.8812C55.9907 28.6572 55.8592 28.6454 54.2715 28.7015C52.4512 28.766 51.4627 28.9863 50.7652 29.483L50.4027 29.7411V28.8035V27.866L51.0237 27.6855C52.2793 27.3205 53.5356 26.2702 54.1308 25.088C55.1392 23.0848 54.2871 20.1247 52.0205 17.7579C51.2779 16.9824 50.617 16.712 49.4648 16.712C48.3233 16.712 47.6889 16.9718 46.9259 17.7517C44.6593 20.069 43.7868 23.0779 44.7988 25.088C45.394 26.2702 46.6503 27.3205 47.9059 27.6855L48.5269 27.866V31.3748V34.8835H47.8897C47.1544 34.8835 46.7061 35.0278 46.3176 35.3896C45.7963 35.875 45.6981 36.2406 45.592 38.0912C45.47 40.2225 45.1665 41.8666 44.5248 43.874L44.0465 45.3698L43.7785 44.3178C43.4281 42.9425 43.0095 41.8535 42.3668 40.6455L41.8445 39.6637L41.842 33.9617C41.8384 25.7126 41.6965 24.2335 40.7177 22.2378C40.3706 21.53 39.9929 21.0633 38.6236 19.65C36.2079 17.1568 36.4092 17.9721 36.3356 10.3812C36.2684 3.46879 36.2974 3.68943 35.3988 3.23104C34.9788 3.01685 34.7155 2.99586 32.4996 3.00055C30.3067 3.00524 30.0185 3.02892 29.6248 3.23678ZM34.5759 6.45385V8.15376H32.5242H30.4726V6.45385V4.75393H32.5242H34.5759V6.45385ZM34.5759 12.9067C34.5759 17.652 34.8232 18.3845 37.2263 20.7566C38.8295 22.3391 39.1336 22.7677 39.575 24.0663C39.8396 24.8448 39.893 25.2366 39.9423 26.7649L40.0001 28.5528H39.6273C39.1667 28.5528 38.6791 29.0048 38.6791 29.432C38.6791 29.8513 39.1669 30.3113 39.6117 30.3113H39.9687V33.8311V37.3508L38.9871 36.5568C36.2336 34.3296 32.2737 32.9243 27.7994 32.5865C27.2063 32.5418 26.7211 32.4812 26.7211 32.4519C26.7211 32.4227 26.9871 32.1597 27.3121 31.8674C27.6372 31.5751 28.0617 31.1055 28.2556 30.8236L28.6081 30.3113H32.1834H35.7589L36.0466 30.0235C36.2049 29.8652 36.3344 29.5991 36.3344 29.432C36.3344 29.265 36.2049 28.9989 36.0466 28.8406L35.7589 28.5528H32.362H28.9652L28.7709 27.8787C28.6185 27.3498 28.4462 27.0777 27.9713 26.6159C27.2931 25.9565 26.7443 25.7391 25.758 25.7391H25.1153L25.2164 25.0944C25.3382 24.3174 25.7161 23.2714 26.1058 22.6324C26.2632 22.3745 27.0337 21.5304 27.8184 20.7566C30.2258 18.3825 30.4726 17.6526 30.4726 12.9067V9.9123H32.5242H34.5759V12.9067ZM50.3365 18.6263C50.5984 18.8179 50.4945 19.0499 49.884 19.6372L49.4634 20.0419L48.9365 19.5249C48.3636 18.9625 48.3003 18.7804 48.6148 18.5971C48.9127 18.4236 50.0865 18.4435 50.3365 18.6263ZM51.1523 24.4746C51.5962 25.2343 51.5323 25.4974 50.8181 25.8512C49.0649 26.7197 46.589 25.5921 46.1929 23.7448C46.0293 22.9822 46.1877 22.1721 46.7198 21.0497L47.1367 20.1704L48.983 22.0462C49.9985 23.0779 50.9747 24.1707 51.1523 24.4746ZM52.3441 21.3252C52.6624 22.0205 52.9189 23.2011 52.8121 23.4794C52.7615 23.6113 52.6476 23.5234 52.3799 23.1454C52.1799 22.8632 51.7211 22.3293 51.3603 21.9589L50.7043 21.2855L51.2191 20.7608C51.8107 20.1581 51.8095 20.1576 52.3441 21.3252ZM23.3494 27.9666C23.6631 28.268 23.9462 28.4355 24.1419 28.4355C24.3376 28.4355 24.6207 28.268 24.9344 27.9666C25.3337 27.5829 25.5057 27.4977 25.8801 27.4977C26.7421 27.4977 27.3302 28.3192 27.0903 29.1883C26.9126 29.8316 26.5595 30.2407 25.3051 31.2566L24.1419 32.1986L22.9787 31.2566C21.7243 30.2407 21.3711 29.8316 21.1935 29.1883C20.9536 28.3192 21.5417 27.4977 22.4036 27.4977C22.7781 27.4977 22.9501 27.5829 23.3494 27.9666ZM54.8007 30.9268C54.7718 31.2008 54.7191 31.7323 54.6837 32.1078C54.5701 33.3091 53.8786 34.2558 52.8748 34.5844C52.5791 34.6813 51.9019 34.7958 51.3699 34.8388L50.4027 34.9173V34.1053C50.4027 31.5792 51.5246 30.4733 54.1227 30.4384L54.8532 30.4285L54.8007 30.9268ZM58.2575 54.5991C58.2575 54.8036 58.1701 55.0674 58.0635 55.1853C57.8766 55.3919 56.8514 55.3998 30.0241 55.3998C4.27818 55.3998 2.16254 55.3851 1.9643 55.2057C1.83792 55.0914 1.74987 54.8506 1.74987 54.6195V54.2274H30.0037H58.2575V54.5991Z" fill="#FFDE9F"/>
</g>
</svg>
