<svg width="60" height="60" viewBox="0 0 60 60" fill="none" xmlns="http://www.w3.org/2000/svg">
<path fill-rule="evenodd" clip-rule="evenodd" d="M19.2827 0.672702L18.708 1.34528L20.0879 2.72915C20.8469 3.49016 21.5252 4.1129 21.5953 4.1129C21.7552 4.1129 22.8629 2.99758 22.8629 2.83657C22.8629 2.66867 20.1671 0 19.9974 0C19.9204 0 19.5988 0.302661 19.2827 0.672702ZM38.4674 1.39149L37.0799 2.78286L37.7735 3.47649L38.4671 4.17012L39.8585 2.78262C40.6239 2.01944 41.25 1.33766 41.25 1.26762C41.25 1.1077 40.1347 0 39.9737 0C39.9083 0 39.2306 0.626129 38.4674 1.39149ZM26.2103 3.67548C25.0787 3.99109 24.0802 5.01181 23.5343 6.41129C23.2537 7.13069 23.16 8.59827 23.3395 9.46198C23.6474 10.9431 24.0276 11.4659 26.905 14.3654C29.3573 16.8364 29.6107 17.0573 29.993 17.0569C30.3714 17.0565 30.6232 16.8445 32.7595 14.7278C34.0521 13.447 35.3447 12.0848 35.632 11.7006C38.0177 8.50935 36.3627 3.57024 32.9116 3.58186C31.9658 3.58512 31.2305 3.87617 30.4994 4.53677L30 4.98786L29.5006 4.53677C28.5658 3.69206 27.3203 3.36605 26.2103 3.67548ZM17.4194 6.41129V7.37903H19.3548H21.2903V6.41129V5.44355H19.3548H17.4194V6.41129ZM28.6667 6.46173C29.9274 7.68859 30.0525 7.68931 31.3246 6.47746C32.6286 5.23536 33.1529 5.15177 34.0071 6.04972C34.6071 6.68032 34.887 7.55347 34.8074 8.5454C34.7037 9.83685 34.3652 10.3413 32.0606 12.6398L30 14.6949L27.9394 12.6398C25.6348 10.3413 25.2963 9.83685 25.1926 8.5454C25.1175 7.60887 25.3593 6.78738 25.9054 6.12496C26.3672 5.56464 26.6533 5.43169 27.2592 5.49556C27.6451 5.53621 27.8845 5.70061 28.6667 6.46173ZM38.7097 6.41129V7.37903H40.6452H42.5806V6.41129V5.44355H40.6452H38.7097V6.41129ZM12.8776 22.1921C12.5829 22.4867 12.5806 22.5071 12.5806 24.8092C12.5806 26.2375 12.6353 27.3117 12.7229 27.604C12.8966 28.1838 13.6507 29.066 14.1491 29.2725L14.5161 29.4246V30.4985V31.5726H12.3937C9.50214 31.5726 9.67742 31.3852 9.67742 34.4758C9.67742 36.7665 9.67984 36.7876 9.9744 37.0821L10.2712 37.379L14.7829 37.3795L19.2944 37.3801L23.1653 39.5295L27.0363 41.6788L27.0676 47.8152C27.0939 52.9561 27.072 53.9516 26.9327 53.9516C26.5354 53.9516 25.035 54.8376 24.5604 55.3525C23.8681 56.1035 23.359 57.2309 23.2669 58.2167C23.1977 58.958 23.2136 59.0309 23.5062 59.3237L23.8196 59.6371H30H36.1804L36.4938 59.3237C36.7864 59.0309 36.8023 58.958 36.7331 58.2167C36.641 57.2309 36.1319 56.1035 35.4396 55.3525C34.965 54.8376 33.4646 53.9516 33.0673 53.9516C32.928 53.9516 32.9061 52.9561 32.9324 47.8152L32.9637 41.6788L36.8347 39.5295L40.7056 37.3801L45.2171 37.3795L49.7287 37.379L50.0256 37.0821C50.3202 36.7876 50.3226 36.7665 50.3226 34.4758C50.3226 31.3852 50.4979 31.5726 47.6063 31.5726H45.4839V30.492C45.4839 29.5062 45.5058 29.4045 45.7338 29.3321C46.1819 29.1899 46.8468 28.5027 47.135 27.8839C47.4004 27.314 47.4171 27.1367 47.4181 24.8837C47.4197 21.6749 47.6336 21.8952 44.5161 21.8952C41.4057 21.8952 41.6129 21.6872 41.6129 24.8092C41.6129 26.2375 41.6676 27.3117 41.7552 27.604C41.9289 28.1838 42.683 29.066 43.1814 29.2725L43.5484 29.4246V30.4985V31.5726H41.129H38.7097V29.9341C38.7097 28.3556 38.6988 28.2846 38.4127 27.9986C38.1656 27.7513 37.9979 27.7016 37.4127 27.7016H36.7095L36.4969 26.8915C35.9187 24.6866 34.2515 22.9661 31.9355 22.1839C31.0124 21.8722 28.9876 21.8722 28.0645 22.1839C25.7162 22.977 23.9624 24.828 23.4382 27.0665L23.2896 27.7016H22.5869C22.0021 27.7016 21.8343 27.7515 21.5873 27.9986C21.3012 28.2846 21.2903 28.3556 21.2903 29.9341V31.5726H18.871H16.4516V30.492C16.4516 29.5062 16.4735 29.4045 16.7015 29.3321C17.1496 29.1899 17.8146 28.5027 18.1027 27.8839C18.3681 27.314 18.3848 27.1367 18.3859 24.8837C18.3875 21.6749 18.6013 21.8952 15.4839 21.8952C13.1932 21.8952 13.1721 21.8976 12.8776 22.1921ZM16.4516 25.4692C16.4516 27.0477 16.4407 27.1187 16.1546 27.4046C15.9675 27.5919 15.7195 27.7016 15.4839 27.7016C15.2482 27.7016 15.0002 27.5919 14.8131 27.4046C14.527 27.1187 14.5161 27.0477 14.5161 25.4692V23.8306H15.4839H16.4516V25.4692ZM31.9874 24.2927C33.0486 24.7893 33.7799 25.4965 34.2931 26.5224C34.5266 26.9892 34.7177 27.4455 34.7177 27.5364C34.7177 27.6732 33.9067 27.7016 30 27.7016C26.0933 27.7016 25.2823 27.6732 25.2823 27.5364C25.2823 27.1489 26.168 25.6401 26.6637 25.1832C27.2462 24.6462 28.1711 24.1335 28.8806 23.9543C29.7334 23.7387 31.1283 23.8908 31.9874 24.2927ZM45.4839 25.4692C45.4839 27.0477 45.473 27.1187 45.1869 27.4046C44.9998 27.5919 44.7518 27.7016 44.5161 27.7016C44.2805 27.7016 44.0325 27.5919 43.8454 27.4046C43.5593 27.1187 43.5484 27.0477 43.5484 25.4692V23.8306H44.5161H45.4839V25.4692ZM0.296976 29.9341L0 30.2309V44.6371V59.0433L0.296976 59.3401C0.591411 59.6347 0.612581 59.6371 2.90323 59.6371C5.19387 59.6371 5.21504 59.6347 5.50948 59.3401L5.80645 59.0433V55.953V52.8629H7.74194H9.67742V55.953V59.0433L9.9744 59.3401C10.2688 59.6347 10.29 59.6371 12.5806 59.6371C14.8821 59.6371 14.8911 59.636 15.1921 59.335L15.4943 59.0329L15.4588 52.8935L15.4234 46.754L15.0394 45.9434C14.5508 44.9122 13.7572 44.1185 12.7259 43.6299L11.9153 43.246L8.86089 43.2065L5.80645 43.1671V36.6991V30.2309L5.50948 29.9341C5.21504 29.6395 5.19387 29.6371 2.90323 29.6371C0.612581 29.6371 0.591411 29.6395 0.296976 29.9341ZM36.7742 30.6048V31.5726H30H23.2258V30.6048V29.6371H30H36.7742V30.6048ZM54.4905 29.9341L54.1935 30.2309V36.6991V43.1671L51.1391 43.2065L48.0847 43.246L47.2741 43.6299C46.2428 44.1185 45.4492 44.9122 44.9606 45.9434L44.5766 46.754L44.5412 52.8935L44.5057 59.0329L44.8079 59.335C45.1089 59.636 45.1179 59.6371 47.4194 59.6371C49.71 59.6371 49.7312 59.6347 50.0256 59.3401L50.3226 59.0433V55.953V52.8629H52.2581H54.1935V55.953V59.0433L54.4905 59.3401C54.785 59.6347 54.8061 59.6371 57.0968 59.6371C59.3874 59.6371 59.4086 59.6347 59.703 59.3401L60 59.0433V44.6371V30.2309L59.703 29.9341C59.4086 29.6395 59.3874 29.6371 57.0968 29.6371C54.8061 29.6371 54.785 29.6395 54.4905 29.9341ZM3.87097 39.9853V48.3981L4.16794 48.695L4.4648 48.9919H9.00665H13.5484V53.3468V57.7016H12.5806H11.6129V54.6115V51.5213L11.3159 51.2244L11.0191 50.9274H7.74194H4.4648L4.16794 51.2244L3.87097 51.5213V54.6115V57.7016H2.90323H1.93548V44.6371V31.5726H2.90323H3.87097V39.9853ZM58.0645 44.6371V57.7016H57.0968H56.129V54.6115V51.5213L55.8321 51.2244L55.5352 50.9274H52.2581H48.9809L48.6841 51.2244L48.3871 51.5213V54.6115V57.7016H47.4194H46.4516V53.3468V48.9919H50.9933H55.5352L55.8321 48.695L56.129 48.3981V39.9853V31.5726H57.0968H58.0645V44.6371ZM14.0015 34.4333C14.9167 34.9423 15.6879 35.3777 15.7158 35.4011C15.7435 35.4244 14.8316 35.4435 13.6896 35.4435H11.6129V34.4758V33.5081H11.9753C12.2014 33.5081 12.964 33.8563 14.0015 34.4333ZM43.5313 33.5654C43.4999 33.597 40.4424 35.3072 36.7371 37.3661L30 41.1094L23.2629 37.3661C19.5576 35.3072 16.5001 33.597 16.4687 33.5654C16.4371 33.5338 22.5262 33.5081 30 33.5081C37.4737 33.5081 43.5629 33.5338 43.5313 33.5654ZM48.3871 34.4758V35.4435L46.3004 35.4414L44.2137 35.4392L45.5444 34.7003C46.2762 34.294 47.0383 33.8603 47.2379 33.7368C47.4375 33.6132 47.7777 33.5112 47.994 33.5101L48.3871 33.5081V34.4758ZM30 43.1855C30.1397 43.1855 30.4146 43.1024 30.6109 43.0009L30.9677 42.8164V48.9944V55.1723L31.2647 55.4692C31.4554 55.6599 31.6991 55.7661 31.9462 55.7661C32.7034 55.7661 33.3116 56.0453 33.9617 56.6917C35.0327 57.7563 35.2473 57.7016 30 57.7016C24.7527 57.7016 24.9673 57.7563 26.0383 56.6917C26.6884 56.0453 27.2966 55.7661 28.0537 55.7661C28.3009 55.7661 28.5446 55.6599 28.7353 55.4692L29.0323 55.1723V48.9944V42.8164L29.3891 43.0009C29.5854 43.1024 29.8603 43.1855 30 43.1855ZM11.8548 45.3731C12.5298 45.6791 12.8993 46.0169 13.1998 46.6028L13.4324 47.0565H9.61935H5.80645V46.0887V45.121L8.55847 45.1236C11.0666 45.1261 11.3587 45.1482 11.8548 45.3731ZM54.1935 46.0887V47.0565H50.3806H46.5676L46.8002 46.6028C47.1007 46.0169 47.4702 45.6791 48.1452 45.3731C48.6412 45.1482 48.9334 45.1261 51.4415 45.1236L54.1935 45.121V46.0887Z" fill="#FFDE9F"/>
</svg>
