<svg width="24" height="24" viewBox="0 0 24 24" fill="none" xmlns="http://www.w3.org/2000/svg">
<mask id="mask0_502_14643" style="mask-type:alpha" maskUnits="userSpaceOnUse" x="0" y="0" width="24" height="24">
<path d="M0 0H24V24H0V0Z" fill="white"/>
</mask>
<g mask="url(#mask0_502_14643)">
<path d="M13.3662 2.09432C10.9735 1.76518 8.54244 2.31287 6.52202 3.63628C4.5016 4.95969 3.02824 6.96942 2.37399 9.29439C1.71974 11.6194 1.9288 14.1025 2.96255 16.2854C3.99631 18.4682 5.78494 20.2033 7.99819 21.1703C7.93834 20.4021 7.99327 19.6293 8.16119 18.8773C8.34619 18.0383 9.45719 13.4143 9.45719 13.4143C9.23596 12.9184 9.12539 12.3803 9.13319 11.8373C9.13319 10.3523 9.99019 9.24432 11.0562 9.24432C11.2477 9.24153 11.4376 9.28002 11.6129 9.35715C11.7882 9.43429 11.9448 9.54827 12.0721 9.69134C12.1995 9.83442 12.2945 10.0032 12.3507 10.1863C12.407 10.3694 12.4232 10.5624 12.3982 10.7523C12.3982 11.6523 11.8202 13.0143 11.5182 14.2923C11.4585 14.5267 11.4547 14.7718 11.5071 15.0079C11.5595 15.2441 11.6667 15.4645 11.8199 15.6517C11.9732 15.8388 12.1683 15.9873 12.3894 16.0852C12.6106 16.1831 12.8516 16.2277 13.0932 16.2153C14.9912 16.2153 16.2632 13.7843 16.2632 10.9143C16.2632 8.71432 14.8062 7.06632 12.1202 7.06632C11.4776 7.04135 10.8366 7.14724 10.2361 7.37757C9.63567 7.60791 9.0883 7.95787 8.62724 8.40621C8.16618 8.85455 7.80105 9.39192 7.55401 9.9857C7.30698 10.5795 7.1832 11.2172 7.19019 11.8603C7.16156 12.5736 7.39169 13.2733 7.83819 13.8303C7.92162 13.8926 7.98254 13.9803 8.01176 14.0803C8.04098 14.1802 8.03692 14.2869 8.00019 14.3843C7.95419 14.5683 7.83819 15.0073 7.79219 15.1683C7.78262 15.2229 7.76036 15.2745 7.72721 15.3189C7.69406 15.3634 7.65094 15.3994 7.60132 15.4241C7.5517 15.4488 7.49697 15.4615 7.44154 15.4612C7.38611 15.4609 7.33153 15.4476 7.28219 15.4223C5.89819 14.8683 5.24619 13.3453 5.24619 11.6063C5.24619 8.75932 7.63019 5.35132 12.4002 5.35132C16.1962 5.35132 18.7202 8.12832 18.7202 11.0983C18.7202 15.0073 16.5432 17.9463 13.3262 17.9463C12.8454 17.9617 12.3685 17.8556 11.9395 17.6378C11.5106 17.42 11.1435 17.0976 10.8722 16.7003C10.8722 16.7003 10.2942 19.0163 10.1802 19.4543C9.94748 20.211 9.6041 20.9291 9.16119 21.5853C10.0842 21.8653 11.0432 22.0053 12.0072 22.0013C13.3208 22.0024 14.6217 21.7443 15.8354 21.2419C17.0491 20.7395 18.1517 20.0026 19.0803 19.0734C20.0088 18.1443 20.7449 17.0411 21.2464 15.827C21.748 14.613 22.0052 13.3119 22.0032 11.9983C22.0019 9.58332 21.127 7.25032 19.5398 5.4301C17.9527 3.60988 15.7605 2.42539 13.3682 2.09532L13.3662 2.09432Z" fill="white"/>
</g>
</svg>
